<svg xmlns="http://www.w3.org/2000/svg" viewBox="0 0 288.21 249.24"><defs><style>.cls-1{fill:#c1c1c1;}.cls-2{fill:#e8e8e8;}.cls-3{fill:#fff;}.cls-4{fill:#94e6ff;}</style></defs><title>androidland</title><g id="Layer_2" data-name="Layer 2"><g id="Layer_1-2" data-name="Layer 1"><polygon class="cls-1" points="288.21 249.24 127.08 249.24 108.67 186.62 156.56 103.67 180.36 62.44 288.21 249.24"/><polygon class="cls-2" points="231.69 249.24 127.08 249.24 108.67 186.62 72.64 64.05 103.06 0 156.56 103.67 231.69 249.24"/><polygon class="cls-3" points="65.17 71.52 15 190 103.54 190 92.35 161.78 59.3 161.72 79.83 116.8 65.17 71.52"/><path class="cls-4" d="M183.25,172.62c-4.25,24-22.69,45-46,52.27-22.63,7.07-47,1.75-70.49-1.39-22.95-3.06-48.5-3.25-66.77,10.73l10.48-25.43c15.68-12.29,38.18-11.46,58-7.89,20.4,3.68,41.55,9.49,61.44,3.65,18.88-5.55,33.95-21.81,39.09-40.81s.61-40.12-11-56C177.36,122.57,187.5,148.59,183.25,172.62Z"/></g></g></svg>