<svg xmlns="http://www.w3.org/2000/svg" viewBox="0 0 515.15 236.61"><defs><style>.cls-1{fill:#fff;}</style></defs><title>mordor2</title><g id="Layer_2" data-name="Layer 2"><g id="Layer_1-2" data-name="Layer 1"><path class="cls-1" d="M50.1,22.23a13.55,13.55,0,0,1,5.56,1.17,8.47,8.47,0,0,1,4.09,3.95L70.57,49h.29l11-21.65a7.76,7.76,0,0,1,4-3.95,14,14,0,0,1,5.63-1.17,11.45,11.45,0,0,1,5.34,1.25,7.68,7.68,0,0,1,3.58,4.18q.14.44.73,2.06V124H81V76.94a14.94,14.94,0,0,1-4.24,4.83,10.36,10.36,0,0,1-6,1.61A10.58,10.58,0,0,1,65.09,82a13.57,13.57,0,0,1-4.17-4.31V124H40.44V29.72A5.06,5.06,0,0,1,41,28.11c.34-.78.61-1.37.8-1.76A7.22,7.22,0,0,1,45.34,23,13.24,13.24,0,0,1,50.1,22.23Z" transform="translate(-2.93 -22.23)"/><path class="cls-1" d="M116.06,107.8v-7.61q0-5.12-.07-11.48t-.07-13.38q0-7.16-.07-13.6t-.07-11.41v-7.9a21.21,21.21,0,0,1,1.17-6.73,23.57,23.57,0,0,1,3.36-6.51,20.12,20.12,0,0,1,5.19-5,11.6,11.6,0,0,1,6.51-2h27.79a10.16,10.16,0,0,1,2.56.58q1.83.59,2.56.88,12.29,5.41,12.29,18.58v61.14a21.67,21.67,0,0,1-1.54,8.19,19.28,19.28,0,0,1-4.24,6.51A20.42,20.42,0,0,1,156.87,124H136.1a20.39,20.39,0,0,1-13-4.39A19.25,19.25,0,0,1,116.06,107.8ZM136.83,43v60h19.6V43Z" transform="translate(-2.93 -22.23)"/><path class="cls-1" d="M191.83,42.47A21.31,21.31,0,0,1,193,35.73a23.71,23.71,0,0,1,3.36-6.53,20.13,20.13,0,0,1,5.19-5,11.57,11.57,0,0,1,6.51-2H236a13.72,13.72,0,0,1,5.78,1.39,20.74,20.74,0,0,1,5.49,3.74,22,22,0,0,1,4.1,5.21A11.48,11.48,0,0,1,253,38.22v28.6a12.11,12.11,0,0,1-1.9,6.45,15.47,15.47,0,0,1-4.53,4.84c.29.39.49.59.58.59a22.05,22.05,0,0,1,4.1,4.84A11.33,11.33,0,0,1,253,89.71V124H232.34V93.17q-.88-1-1.17-1.32a22.65,22.65,0,0,0-8.63-5.78,28.28,28.28,0,0,0-10.24-2V124H192.12v-9.39q0-6.31-.07-14.38T192,83.4q0-8.8-.07-16.87t-.07-14.37V42.47ZM212.6,43V62.31h19.6V43Z" transform="translate(-2.93 -22.23)"/><path class="cls-1" d="M273.3,123.74a10.2,10.2,0,0,1-3.8-2.86,6.49,6.49,0,0,1-1.9-4.33V29.71a5.59,5.59,0,0,1,.66-2.49,10.22,10.22,0,0,1,1.68-2.42A9.46,9.46,0,0,1,272.27,23a5.14,5.14,0,0,1,2.49-.73h26a10,10,0,0,1,3.95,1A22.69,22.69,0,0,1,308.25,25a33.33,33.33,0,0,1,8.63,7.33,42.84,42.84,0,0,1,5.85,9.32,52.63,52.63,0,0,1,3.58,10.63q1.24,5.57,2,11.15.14.73.29,2.42t.15,2v35.79q0,13.64-12.29,19.07-.73.29-2.56.81a11.25,11.25,0,0,1-2.56.51H274.76a3.18,3.18,0,0,1-.66-.15A3.23,3.23,0,0,0,273.3,123.74ZM288.36,43v60.26h19.75V96.94q0-4.7-.07-9.85T308,77.4V70.93q0-3.23-.29-7.2a52,52,0,0,0-1.17-7.79,30.26,30.26,0,0,0-2.63-7.2,14.93,14.93,0,0,0-4.68-5.44,1,1,0,0,0-.73-.29Z" transform="translate(-2.93 -22.23)"/><path class="cls-1" d="M343.65,107.8v-7.61q0-5.12-.07-11.48t-.07-13.38q0-7.16-.07-13.6t-.07-11.41v-7.9a21.21,21.21,0,0,1,1.17-6.73,23.57,23.57,0,0,1,3.36-6.51,20.12,20.12,0,0,1,5.19-5,11.6,11.6,0,0,1,6.51-2h27.79a10.16,10.16,0,0,1,2.56.58q1.83.59,2.56.88,12.29,5.41,12.29,18.58v61.14a21.67,21.67,0,0,1-1.54,8.19,19.28,19.28,0,0,1-4.24,6.51A20.42,20.42,0,0,1,384.46,124H363.69a20.39,20.39,0,0,1-13-4.39A19.25,19.25,0,0,1,343.65,107.8ZM364.42,43v60H384V43Z" transform="translate(-2.93 -22.23)"/><path class="cls-1" d="M419.42,42.47a21.31,21.31,0,0,1,1.17-6.75A23.71,23.71,0,0,1,424,29.2a20.13,20.13,0,0,1,5.19-5,11.57,11.57,0,0,1,6.51-2h27.94a13.72,13.72,0,0,1,5.78,1.39,20.74,20.74,0,0,1,5.49,3.74,22,22,0,0,1,4.1,5.21,11.48,11.48,0,0,1,1.61,5.65v28.6a12.11,12.11,0,0,1-1.9,6.45,15.47,15.47,0,0,1-4.53,4.84c.29.39.49.59.58.59a22.05,22.05,0,0,1,4.1,4.84,11.33,11.33,0,0,1,1.75,6.16V124H459.93V93.17q-.88-1-1.17-1.32a22.65,22.65,0,0,0-8.63-5.78,28.28,28.28,0,0,0-10.24-2V124H419.71v-9.39q0-6.31-.07-14.38t-.07-16.87q0-8.8-.07-16.87t-.07-14.37V42.47Zm20.77.53V62.31h19.6V43Z" transform="translate(-2.93 -22.23)"/><path class="cls-1" d="M2.93,157H23.4V197a23.31,23.31,0,0,0,4.9-.59,35,35,0,0,0,5.49-1.68,28.19,28.19,0,0,0,5.12-2.63,13.11,13.11,0,0,0,3.66-3.44l.88-1.32V157H64.07v33a11.76,11.76,0,0,1-1.24,4.77,32.27,32.27,0,0,1-3.07,5.28,41.43,41.43,0,0,1-3.88,4.69,14.66,14.66,0,0,1-3.8,3v.29a14.77,14.77,0,0,1,3.8,3,41.78,41.78,0,0,1,3.88,4.69,32.36,32.36,0,0,1,3.07,5.28,11.76,11.76,0,0,1,1.24,4.77v33H43.44V228.56l-.88-1.32a13.14,13.14,0,0,0-3.66-3.44,28.19,28.19,0,0,0-5.12-2.63,35.3,35.3,0,0,0-5.49-1.68,23.5,23.5,0,0,0-4.9-.59v39.93H2.93Z" transform="translate(-2.93 -22.23)"/><path class="cls-1" d="M78.69,238.36h20v-60.7h-20V157h61.14v20.62h-20v60.7h20v20.48H78.69Z" transform="translate(-2.93 -22.23)"/><path class="cls-1" d="M164.11,157a13.55,13.55,0,0,1,5.56,1.17,8.48,8.48,0,0,1,4.09,3.95l21.21,42V157h20.19v94.31a4.07,4.07,0,0,1-.58,1.69q-.59,1.1-.88,1.69a6.56,6.56,0,0,1-3.51,3.31,13.43,13.43,0,0,1-4.68.81,14.84,14.84,0,0,1-5.63-1.1,7.38,7.38,0,0,1-4-4l-20.92-41.25v46.37H154.46V164.53a5.07,5.07,0,0,1,.51-1.62c.34-.78.61-1.37.8-1.76a7.23,7.23,0,0,1,3.58-3.3A13.25,13.25,0,0,1,164.11,157Z" transform="translate(-2.93 -22.23)"/><path class="cls-1" d="M290.92,157v20.62H250.55v60.41h19.6V218.47h-9.8V197.4h20.33a9.54,9.54,0,0,1,7.46,3.09,10.8,10.8,0,0,1,2.78,7.49V238.7a20.35,20.35,0,0,1-1.24,6.76,25.44,25.44,0,0,1-3.44,6.54,19.1,19.1,0,0,1-5.19,4.92,11.88,11.88,0,0,1-6.51,1.91H246.75a13.65,13.65,0,0,1-5.78-1.39,20.6,20.6,0,0,1-5.49-3.74,22.48,22.48,0,0,1-4.1-5.13,11.29,11.29,0,0,1-1.61-5.72V174a13.78,13.78,0,0,1,1.39-5.79,20.64,20.64,0,0,1,3.73-5.5,22.5,22.5,0,0,1,5.12-4.11,11.23,11.23,0,0,1,5.7-1.61Z" transform="translate(-2.93 -22.23)"/><path class="cls-1" d="M311.25,258.54a10.18,10.18,0,0,1-3.8-2.86,6.49,6.49,0,0,1-1.9-4.33V164.51a5.59,5.59,0,0,1,.66-2.49,10.24,10.24,0,0,1,1.68-2.42,9.47,9.47,0,0,1,2.34-1.83,5.13,5.13,0,0,1,2.49-.73h26a10,10,0,0,1,3.95,1,22.69,22.69,0,0,1,3.51,1.83,33.34,33.34,0,0,1,8.63,7.33,42.83,42.83,0,0,1,5.85,9.32,52.61,52.61,0,0,1,3.58,10.63q1.24,5.57,2,11.15.14.73.29,2.42c.1,1.12.15,1.79.15,2v35.79q0,13.64-12.29,19.07-.73.3-2.56.81a11.25,11.25,0,0,1-2.56.51H312.72a3.18,3.18,0,0,1-.66-.15A3.24,3.24,0,0,0,311.25,258.54Zm15.07-80.74v60.26h19.75v-6.32q0-4.7-.07-9.85t-.07-9.7v-6.47q0-3.23-.29-7.2a51.94,51.94,0,0,0-1.17-7.79,30.26,30.26,0,0,0-2.63-7.2,14.94,14.94,0,0,0-4.68-5.44,1,1,0,0,0-.73-.29Z" transform="translate(-2.93 -22.23)"/><path class="cls-1" d="M381.61,242.6V235q0-5.12-.07-11.48t-.07-13.38q0-7.17-.07-13.6t-.07-11.41v-7.9a21.2,21.2,0,0,1,1.17-6.73,23.58,23.58,0,0,1,3.36-6.51,20.12,20.12,0,0,1,5.19-5,11.6,11.6,0,0,1,6.51-2h27.79a10.16,10.16,0,0,1,2.56.58q1.83.59,2.56.88,12.29,5.41,12.29,18.58v61.14a21.68,21.68,0,0,1-1.54,8.19,19.28,19.28,0,0,1-4.24,6.51,20.42,20.42,0,0,1-14.55,5.92H401.65a20.39,20.39,0,0,1-13-4.39A19.25,19.25,0,0,1,381.61,242.6Zm20.77-64.8v60H422v-60Z" transform="translate(-2.93 -22.23)"/><path class="cls-1" d="M467,157a13.55,13.55,0,0,1,5.56,1.17,8.48,8.48,0,0,1,4.09,3.95L487.5,183.8h.29l11-21.65a7.76,7.76,0,0,1,4-3.95,14,14,0,0,1,5.63-1.17,11.45,11.45,0,0,1,5.34,1.25,7.68,7.68,0,0,1,3.58,4.18q.14.44.73,2.06v94.31H497.89v-47.1a15,15,0,0,1-4.24,4.83,10.36,10.36,0,0,1-6,1.61,10.58,10.58,0,0,1-5.63-1.39,13.57,13.57,0,0,1-4.17-4.32v46.37H457.37V164.53a5.07,5.07,0,0,1,.51-1.62c.34-.78.61-1.37.8-1.76a7.23,7.23,0,0,1,3.58-3.3A13.25,13.25,0,0,1,467,157Z" transform="translate(-2.93 -22.23)"/></g></g></svg>