<svg xmlns="http://www.w3.org/2000/svg" viewBox="0 0 618.46 449.45"><defs><style>.cls-1{fill:#fff;}</style></defs><title>vote_1</title><g id="Layer_2" data-name="Layer 2"><g id="Layer_1-2" data-name="Layer 1"><path class="cls-1" d="M54.73,195.08H95.1V175.33q-1.17,0-4-.07t-6-.07q-3.22,0-6.07-.07t-4-.07a21.35,21.35,0,0,1-14.55-5.79q-5.78-5.5-5.78-14.59V133.55a21.2,21.2,0,0,1,3.07-11.22A17.11,17.11,0,0,1,67,115.07q.88-.29,2.56-.8a9.57,9.57,0,0,1,2.41-.51h43.88v20.62H75.5V154q1.17,0,4.1.07t6.14.07H96.13q13,.44,18.28,12.35.29.73.88,2.57a10.23,10.23,0,0,1,.58,2.57v27.93a11.35,11.35,0,0,1-1.61,5.73,22.71,22.71,0,0,1-4.1,5.14,20.65,20.65,0,0,1-5.49,3.75,13.65,13.65,0,0,1-5.78,1.4H54.73Z" transform="translate(-7.38 -0.24)"/><path class="cls-1" d="M130.5,113.76H151v81h20v-81h20.62v85.81a11.33,11.33,0,0,1-1.61,5.72,22.61,22.61,0,0,1-4.1,5.13,20.66,20.66,0,0,1-5.49,3.74,13.68,13.68,0,0,1-5.78,1.39H146.73a9.56,9.56,0,0,1-3.88-1,33.54,33.54,0,0,1-3.58-1.83,14,14,0,0,1-3.73-3.15,19.22,19.22,0,0,1-2.78-4.33,24.2,24.2,0,0,1-1.68-4.91,22.06,22.06,0,0,1-.58-4.91Z" transform="translate(-7.38 -0.24)"/><path class="cls-1" d="M267.41,113.76v20.62H227v60.41h19.6v-19.6h-9.8V154.13h20.33a9.55,9.55,0,0,1,7.46,3.09,10.81,10.81,0,0,1,2.78,7.49v30.72a20.34,20.34,0,0,1-1.24,6.76,25.42,25.42,0,0,1-3.44,6.54,19.1,19.1,0,0,1-5.19,4.92,11.87,11.87,0,0,1-6.51,1.91H223.23a13.66,13.66,0,0,1-5.78-1.39,20.58,20.58,0,0,1-5.49-3.74,22.48,22.48,0,0,1-4.1-5.13,11.3,11.3,0,0,1-1.61-5.72v-68.8a13.78,13.78,0,0,1,1.39-5.79,20.67,20.67,0,0,1,3.73-5.5,22.53,22.53,0,0,1,5.12-4.11,11.24,11.24,0,0,1,5.7-1.61Z" transform="translate(-7.38 -0.24)"/><path class="cls-1" d="M343.17,113.76v20.62H302.8v60.41h19.6v-19.6h-9.8V154.13h20.33a9.55,9.55,0,0,1,7.46,3.09,10.81,10.81,0,0,1,2.78,7.49v30.72a20.34,20.34,0,0,1-1.24,6.76,25.42,25.42,0,0,1-3.44,6.54,19.1,19.1,0,0,1-5.19,4.92,11.87,11.87,0,0,1-6.51,1.91H299a13.66,13.66,0,0,1-5.78-1.39,20.58,20.58,0,0,1-5.49-3.74,22.48,22.48,0,0,1-4.1-5.13,11.3,11.3,0,0,1-1.61-5.72v-68.8a13.78,13.78,0,0,1,1.39-5.79,20.67,20.67,0,0,1,3.73-5.5,22.53,22.53,0,0,1,5.12-4.11,11.24,11.24,0,0,1,5.7-1.61Z" transform="translate(-7.38 -0.24)"/><path class="cls-1" d="M418.94,113.76v20.62H378.57v19.75h40.37v21.06H378.57v19.89h40.37v20.48H374.76a13.66,13.66,0,0,1-5.78-1.39,20.58,20.58,0,0,1-5.49-3.74,22.48,22.48,0,0,1-4.1-5.13,11.3,11.3,0,0,1-1.61-5.72v-68.8a13.78,13.78,0,0,1,1.39-5.79,20.67,20.67,0,0,1,3.73-5.5,22.53,22.53,0,0,1,5.12-4.11,11.24,11.24,0,0,1,5.7-1.61Z" transform="translate(-7.38 -0.24)"/><path class="cls-1" d="M433.56,195.08h40.37V175.33q-1.17,0-4-.07t-6-.07q-3.22,0-6.07-.07t-4-.07a21.35,21.35,0,0,1-14.55-5.79q-5.78-5.5-5.78-14.59V133.55a21.2,21.2,0,0,1,3.07-11.22,17.11,17.11,0,0,1,9.21-7.26q.88-.29,2.56-.8a9.57,9.57,0,0,1,2.41-.51H494.7v20.62H454.33V154q1.17,0,4.1.07t6.14.07H475q13,.44,18.28,12.35.29.73.88,2.57a10.23,10.23,0,0,1,.58,2.57v27.93a11.35,11.35,0,0,1-1.61,5.73,22.71,22.71,0,0,1-4.1,5.14,20.65,20.65,0,0,1-5.49,3.75,13.65,13.65,0,0,1-5.78,1.4H433.56Z" transform="translate(-7.38 -0.24)"/><path class="cls-1" d="M529.51,134.38H509.33V113.76h61.14v20.62H550.28v81.18H529.51Z" transform="translate(-7.38 -0.24)"/><path class="cls-1" d="M13.71,279a33.07,33.07,0,0,1,1.24-8.89,32.28,32.28,0,0,1,3.58-8.3,30.94,30.94,0,0,1,5.78-6.9,24.4,24.4,0,0,1,7.68-4.7q1.61-.59,3.51-1.1a13.94,13.94,0,0,1,3.66-.51H67.24a5.78,5.78,0,0,1,3.22,1,9.1,9.1,0,0,1,2.49,2.42,12.63,12.63,0,0,1,1.61,3.23,10.41,10.41,0,0,1,.58,3.23v92H54.51V310.28H34.62v40.08H14v-8.23q0-5.58-.07-12.63t-.07-14.69q0-7.93-.07-14.91t-.07-12.56V279Zm40.66-9.78H41.79a4.68,4.68,0,0,0-2.41.75,10.1,10.1,0,0,0-2.27,1.87,10.4,10.4,0,0,0-1.68,2.47,5.8,5.8,0,0,0-.66,2.54v12.12h19.6Z" transform="translate(-7.38 -0.24)"/><path class="cls-1" d="M99.42,248.56a13.55,13.55,0,0,1,5.56,1.17,8.48,8.48,0,0,1,4.09,3.95l21.21,42v-47.1h20.19v94.31a4.07,4.07,0,0,1-.58,1.69q-.59,1.1-.88,1.69a6.56,6.56,0,0,1-3.51,3.31,13.43,13.43,0,0,1-4.68.81,14.84,14.84,0,0,1-5.63-1.1,7.38,7.38,0,0,1-4-4L110.24,304v46.37H89.76V256a5.07,5.07,0,0,1,.51-1.62c.34-.78.61-1.37.8-1.76a7.23,7.23,0,0,1,3.58-3.3A13.25,13.25,0,0,1,99.42,248.56Z" transform="translate(-7.38 -0.24)"/><path class="cls-1" d="M170.79,350.07a10.18,10.18,0,0,1-3.8-2.86,6.49,6.49,0,0,1-1.9-4.33V256a5.59,5.59,0,0,1,.66-2.49,10.24,10.24,0,0,1,1.68-2.42,9.47,9.47,0,0,1,2.34-1.83,5.13,5.13,0,0,1,2.49-.73h26a10,10,0,0,1,3.95,1,22.69,22.69,0,0,1,3.51,1.83,33.34,33.34,0,0,1,8.63,7.33,42.83,42.83,0,0,1,5.85,9.32,52.61,52.61,0,0,1,3.58,10.63q1.24,5.57,2,11.15.14.73.29,2.42c.1,1.12.15,1.79.15,2V330q0,13.64-12.29,19.07-.73.3-2.56.81a11.25,11.25,0,0,1-2.56.51H172.26a3.18,3.18,0,0,1-.66-.15A3.24,3.24,0,0,0,170.79,350.07Zm15.07-80.74v60.26h19.75v-6.32q0-4.7-.07-9.85t-.07-9.7v-6.47q0-3.23-.29-7.2a51.94,51.94,0,0,0-1.17-7.79,30.26,30.26,0,0,0-2.63-7.2,14.94,14.94,0,0,0-4.68-5.44,1,1,0,0,0-.73-.29Z" transform="translate(-7.38 -0.24)"/><path class="cls-1" d="M322.77,271.44V248.56h20.48v20l10.09,31.89h.29l9.65-30.86V248.56h20.62v23.91l-20,70.41a10.16,10.16,0,0,1-4,5.57,11.57,11.57,0,0,1-12.73,0,10.15,10.15,0,0,1-4-5.57Z" transform="translate(-7.38 -0.24)"/><path class="cls-1" d="M398.82,334.13v-7.61q0-5.12-.07-11.48t-.07-13.38q0-7.17-.07-13.6t-.07-11.41v-7.9A21.2,21.2,0,0,1,399.7,262a23.58,23.58,0,0,1,3.36-6.51,20.12,20.12,0,0,1,5.19-5,11.6,11.6,0,0,1,6.51-2h27.79a10.16,10.16,0,0,1,2.56.58q1.83.59,2.56.88Q460,255.43,460,268.6v61.14a21.68,21.68,0,0,1-1.54,8.19,19.28,19.28,0,0,1-4.24,6.51,20.42,20.42,0,0,1-14.55,5.92H418.86a20.39,20.39,0,0,1-13-4.39A19.25,19.25,0,0,1,398.82,334.13Zm20.77-64.8v60h19.6v-60Z" transform="translate(-7.38 -0.24)"/><path class="cls-1" d="M494.78,269.18H474.59V248.56h61.14v20.62H515.55v81.18H494.78Z" transform="translate(-7.38 -0.24)"/><path class="cls-1" d="M611.5,248.56v20.62H571.13v19.75H611.5V310H571.13v19.89H611.5v20.48H567.32a13.65,13.65,0,0,1-5.78-1.39,20.6,20.6,0,0,1-5.49-3.74,22.48,22.48,0,0,1-4.1-5.13,11.29,11.29,0,0,1-1.61-5.72v-68.8a13.78,13.78,0,0,1,1.39-5.79,20.64,20.64,0,0,1,3.73-5.5,22.5,22.5,0,0,1,5.12-4.11,11.23,11.23,0,0,1,5.7-1.61Z" transform="translate(-7.38 -0.24)"/><path class="cls-1" d="M29.79,34.67q-4-2.88-10.07-1.6c-3.32.71-5.6,1.84-6.85,3.39a6.11,6.11,0,0,0-1.18,5.41,5.51,5.51,0,0,0,1.15,2.48A5,5,0,0,0,15,45.74a12.38,12.38,0,0,0,3.33.58c1.31.07,2.87.11,4.68.11s3.6,0,5.16.19a14.47,14.47,0,0,1,4.09.91,7.32,7.32,0,0,1,2.88,2A7.57,7.57,0,0,1,36.72,53a8.09,8.09,0,0,1-.1,4,7.86,7.86,0,0,1-1.88,3.21,11.86,11.86,0,0,1-3.41,2.42,20.34,20.34,0,0,1-4.73,1.58,19.56,19.56,0,0,1-14.22-2L13.23,60a15.84,15.84,0,0,0,5.92,2.3,18.24,18.24,0,0,0,7.11-.21,13,13,0,0,0,6.49-3,5.4,5.4,0,0,0,1.48-5.28A5.49,5.49,0,0,0,33,51.21a6,6,0,0,0-2.37-1.56A13.36,13.36,0,0,0,27,48.9c-1.41-.12-3-.18-4.88-.17s-3.55,0-5-.15a13.13,13.13,0,0,1-3.8-.81,6.53,6.53,0,0,1-2.61-1.82,7.31,7.31,0,0,1-1.46-3.21,8.62,8.62,0,0,1,0-4.12,8.52,8.52,0,0,1,1.82-3.43,11.36,11.36,0,0,1,3.39-2.6,18.75,18.75,0,0,1,4.76-1.65,17.24,17.24,0,0,1,6.1-.3,14.13,14.13,0,0,1,5.29,1.92Z" transform="translate(-7.38 -0.24)"/><path class="cls-1" d="M57.44,55.7a11.67,11.67,0,0,0,5.39-2.31,10,10,0,0,0,2.93-3.95,14.2,14.2,0,0,0,1-5,26.09,26.09,0,0,0-.4-5.35l-3-16.61,2.46-.44,3,16.61a27.22,27.22,0,0,1,.4,6.46,15.52,15.52,0,0,1-1.43,5.76,12.06,12.06,0,0,1-3.62,4.43,14.49,14.49,0,0,1-6.23,2.56A14.55,14.55,0,0,1,51,57.74a12.19,12.19,0,0,1-5-2.92A15.56,15.56,0,0,1,42.56,50a27.7,27.7,0,0,1-1.91-6L37.35,27.44,39.8,27l3.28,16.55a26.51,26.51,0,0,0,1.6,5.22A13.37,13.37,0,0,0,47.47,53a10.33,10.33,0,0,0,4.19,2.56A11.6,11.6,0,0,0,57.44,55.7Z" transform="translate(-7.38 -0.24)"/><path class="cls-1" d="M103.78,44.46c-2.7,4.11-6.16,6.5-10.43,7.2a14.23,14.23,0,0,1-6.53-.41,16.45,16.45,0,0,1-5.62-3A18.61,18.61,0,0,1,77,43.42a17,17,0,0,1-2.25-5.94,17.74,17.74,0,0,1,2.42-12.41,15.72,15.72,0,0,1,4.35-4.55,14.56,14.56,0,0,1,6.09-2.42,18.23,18.23,0,0,1,4.7-.2,14.26,14.26,0,0,1,3.9.92,11.67,11.67,0,0,1,3.15,1.86,14.22,14.22,0,0,1,2.44,2.61L100,24.77a10.86,10.86,0,0,0-5.33-4,14,14,0,0,0-6.71-.43,11.91,11.91,0,0,0-5.28,2.16,13.51,13.51,0,0,0-3.63,4,14.77,14.77,0,0,0-1.84,5.11,16.39,16.39,0,0,0,0,5.51,15.21,15.21,0,0,0,2,5.39,15.43,15.43,0,0,0,3.65,4.15,14.24,14.24,0,0,0,4.81,2.48,12.22,12.22,0,0,0,5.48.32,13,13,0,0,0,5.61-2.33,17.78,17.78,0,0,0,4.64-5.26l-1-6.4-7.67,1.2-.3-1.91c3.91-.62,5.87-.93,9.78-1.52l2.45,16.12-2.08.32Z" transform="translate(-7.38 -0.24)"/><path class="cls-1" d="M137.76,39.68c-2.79,4-6.31,6.35-10.6,6.93a14.2,14.2,0,0,1-6.51-.58,16.44,16.44,0,0,1-5.54-3.12A18.6,18.6,0,0,1,111,38a17,17,0,0,1-2.1-6,17.75,17.75,0,0,1,2.72-12.34,15.71,15.71,0,0,1,4.46-4.43,14.54,14.54,0,0,1,6.14-2.26,18.2,18.2,0,0,1,4.69-.09,14.25,14.25,0,0,1,3.88,1,11.66,11.66,0,0,1,3.1,1.93,14.23,14.23,0,0,1,2.38,2.67l-1.87,1.43a10.85,10.85,0,0,0-5.23-4.16,14,14,0,0,0-6.7-.6,11.89,11.89,0,0,0-5.33,2,13.5,13.5,0,0,0-3.72,3.92,14.77,14.77,0,0,0-2,5.06,16.4,16.4,0,0,0-.12,5.51,15.23,15.23,0,0,0,1.86,5.44,15.44,15.44,0,0,0,3.55,4.24,14.22,14.22,0,0,0,4.74,2.6,12.2,12.2,0,0,0,5.46.46,13,13,0,0,0,5.66-2.19,17.77,17.77,0,0,0,4.76-5.15l-.82-6.42-7.69,1-.26-1.92c3.92-.52,5.88-.78,9.8-1.27l2,16.18-2.08.26Z" transform="translate(-7.38 -0.24)"/><path class="cls-1" d="M169.77,39.05l.23,2.16c-9,.94-13.44,1.44-22.39,2.53l-4-33.32c9-1.09,13.5-1.6,22.5-2.54L166.3,10c-8,.84-12,1.29-20,2.24l1.56,13.1c6.92-.83,10.39-1.22,17.32-2l.22,2.07c-6.92.74-10.38,1.13-17.29,2l1.65,13.85C157.76,40.34,161.76,39.89,169.77,39.05Z" transform="translate(-7.38 -0.24)"/><path class="cls-1" d="M193.06,10.92q-3.65-3.34-9.77-2.78c-3.36.31-5.75,1.17-7.17,2.56a6.12,6.12,0,0,0-1.8,5.24,5.54,5.54,0,0,0,.84,2.6,5,5,0,0,0,2,1.63,12.29,12.29,0,0,0,3.22,1c1.28.23,2.83.45,4.62.66s3.55.47,5.08.8A14.39,14.39,0,0,1,194,24a7.31,7.31,0,0,1,2.61,2.34A7.6,7.6,0,0,1,197.77,30a8.12,8.12,0,0,1-.56,3.94,7.85,7.85,0,0,1-2.24,3,11.78,11.78,0,0,1-3.65,2,20.16,20.16,0,0,1-4.86,1,19.41,19.41,0,0,1-13.83-3.69l1.09-2.06a15.75,15.75,0,0,0,5.58,3,18.08,18.08,0,0,0,7.06.64,12.91,12.91,0,0,0,6.77-2.22,5.4,5.4,0,0,0,2.08-5.07,5.51,5.51,0,0,0-.91-2.75,6,6,0,0,0-2.16-1.83,13.27,13.27,0,0,0-3.46-1.17c-1.38-.29-3-.54-4.81-.75s-3.5-.45-4.93-.74A13,13,0,0,1,175.29,22a6.52,6.52,0,0,1-2.37-2.11,7.33,7.33,0,0,1-1.07-3.36,8.65,8.65,0,0,1,.49-4.09,8.51,8.51,0,0,1,2.2-3.19A11.28,11.28,0,0,1,178.19,7,18.59,18.59,0,0,1,183.09,6a17.1,17.1,0,0,1,6.06.43,14.07,14.07,0,0,1,5,2.53Z" transform="translate(-7.38 -0.24)"/><path class="cls-1" d="M225.94,5.08c-5.05.31-7.58.48-12.63.84l2.22,31.31-2.42.17L210.83,6.1c-5.05.37-7.57.56-12.62,1L198,4.9c11.1-.91,16.66-1.31,27.77-2Z" transform="translate(-7.38 -0.24)"/><path class="cls-1" d="M239.77,2.12c5.21,7.17,7.79,10.77,12.88,18,4.47-7.63,6.73-11.44,11.33-19L266.75,1C261.56,9.51,259,13.79,254,22.36L254.53,35l-2.42.1-.56-12.75c-5.72-8.08-8.62-12.1-14.5-20.11Z" transform="translate(-7.38 -0.24)"/><path class="cls-1" d="M284.3,34.32A14.19,14.19,0,0,1,277.84,33a16.82,16.82,0,0,1-5.11-3.69A17.27,17.27,0,0,1,269.32,24,17.84,17.84,0,0,1,268,17.73a17.05,17.05,0,0,1,1-6.46,17.7,17.7,0,0,1,3.23-5.53,16.05,16.05,0,0,1,5-3.89,14.79,14.79,0,0,1,6.4-1.54,14.48,14.48,0,0,1,6.63,1.37,16.29,16.29,0,0,1,5.16,3.83,17.7,17.7,0,0,1,3.33,5.42A17.16,17.16,0,0,1,300,17.07a17.39,17.39,0,0,1-1.16,6.49A17.81,17.81,0,0,1,295.53,29a16.31,16.31,0,0,1-5,3.8A14.47,14.47,0,0,1,284.3,34.32ZM270.42,17.65a16,16,0,0,0,1.15,5.52,15.11,15.11,0,0,0,2.91,4.65A13.77,13.77,0,0,0,278.84,31a12.16,12.16,0,0,0,5.46,1.11,11.86,11.86,0,0,0,5.48-1.38,13.56,13.56,0,0,0,4.15-3.44,15.89,15.89,0,0,0,2.65-4.78,15.73,15.73,0,0,0,.9-5.4,15.48,15.48,0,0,0-1.07-5.54,15.16,15.16,0,0,0-2.89-4.69,13.85,13.85,0,0,0-4.35-3.22,12,12,0,0,0-5.47-1.13,12.25,12.25,0,0,0-5.61,1.4,13.7,13.7,0,0,0-4.23,3.49,15.32,15.32,0,0,0-2.62,4.83A15.58,15.58,0,0,0,270.42,17.65Z" transform="translate(-7.38 -0.24)"/><path class="cls-1" d="M320.21,31.83a11.58,11.58,0,0,0,5.71-1.23,10,10,0,0,0,3.62-3.32,14.24,14.24,0,0,0,1.93-4.7,26.18,26.18,0,0,0,.63-5.33c.1-6.75.14-10.12.24-16.87l2.49,0c-.11,6.75-.16,10.12-.27,16.87a27.36,27.36,0,0,1-.85,6.42,15.56,15.56,0,0,1-2.5,5.38,12,12,0,0,1-4.38,3.66,16.68,16.68,0,0,1-13.33-.15,12.15,12.15,0,0,1-4.37-3.83,15.62,15.62,0,0,1-2.36-5.4,27.85,27.85,0,0,1-.72-6.24C306,10.38,306,7,306,.25h2.49c0,6.75,0,10.12,0,16.87a26.63,26.63,0,0,0,.57,5.43,13.4,13.4,0,0,0,1.92,4.7,10.29,10.29,0,0,0,3.6,3.31A11.5,11.5,0,0,0,320.21,31.83Z" transform="translate(-7.38 -0.24)"/><path class="cls-1" d="M342.61,34.13,343.35.58c5.75.13,8.62.2,14.37.39a9.09,9.09,0,0,1,4,1,10.2,10.2,0,0,1,3.1,2.5,11.26,11.26,0,0,1,2,3.43,10,10,0,0,1,.6,3.78,11.15,11.15,0,0,1-.72,3.54,10.48,10.48,0,0,1-1.76,3,9.21,9.21,0,0,1-2.63,2.17A9.09,9.09,0,0,1,359,21.53c3.22,5.33,4.82,8,8,13.35l-2.8-.11c-3.08-5.19-4.63-7.78-7.77-12.95-4.42-.14-6.62-.2-11-.31L345,34.18Zm2.78-14.83c4.79.11,7.18.18,12,.34a6.34,6.34,0,0,0,3-.61,7.58,7.58,0,0,0,2.38-1.78,8.28,8.28,0,0,0,1.57-2.59,9.42,9.42,0,0,0,.62-3,8.14,8.14,0,0,0-.49-3.12,8.61,8.61,0,0,0-1.55-2.68,8.21,8.21,0,0,0-2.36-1.9,6.64,6.64,0,0,0-3-.78c-4.71-.15-7.06-.22-11.77-.33Z" transform="translate(-7.38 -0.24)"/><path class="cls-1" d="M399.34,34.57a11.59,11.59,0,0,0,5.77-.9,10,10,0,0,0,3.8-3.1,14.23,14.23,0,0,0,2.2-4.58,26.19,26.19,0,0,0,.93-5.29l1.21-16.83,2.48.18L414.5,20.87a27.31,27.31,0,0,1-1.21,6.36,15.55,15.55,0,0,1-2.8,5.22,12,12,0,0,1-4.59,3.4,16.69,16.69,0,0,1-13.31-.91,12.16,12.16,0,0,1-4.14-4.07,15.62,15.62,0,0,1-2-5.53,27.82,27.82,0,0,1-.36-6.27l.9-16.85,2.48.13-.93,16.85a26.63,26.63,0,0,0,.25,5.46,13.42,13.42,0,0,0,1.65,4.8A10.3,10.3,0,0,0,393.8,33,11.51,11.51,0,0,0,399.34,34.57Z" transform="translate(-7.38 -0.24)"/><path class="cls-1" d="M426.36,9.42,424,38.34l-2.42-.2L424.25,4.7l1.9.15Q437,20.49,447.44,36.42L450.34,7l2.48.25-3.36,33.39-2.23-.22Q437,24.79,426.36,9.42Z" transform="translate(-7.38 -0.24)"/><path class="cls-1" d="M458.22,41.57,461.79,8.2l2.47.27-3.63,33.36Z" transform="translate(-7.38 -0.24)"/><path class="cls-1" d="M472.13,9.35q4.76,15.91,9.33,31.86,8.34-14.36,16.83-28.62l2.61.35q-9.49,15.61-18.68,31.41L480,44.08q-5.08-17.56-10.49-35Z" transform="translate(-7.38 -0.24)"/><path class="cls-1" d="M524.2,48.05l-.34,2.15c-8.92-1.39-13.38-2.05-22.32-3.3l4.63-33.24c9,1.25,13.47,1.91,22.43,3.31l-.33,2.15c-8-1.24-12-1.83-19.93-3L506.5,29.22c6.91,1,10.36,1.48,17.26,2.55l-.32,2.05c-6.89-1.06-10.34-1.57-17.23-2.54l-1.95,13.81C512.24,46.22,516.23,46.81,524.2,48.05Z" transform="translate(-7.38 -0.24)"/><path class="cls-1" d="M530.41,51.24l5.34-33.13c5.69.92,8.54,1.39,14.23,2.37a9.15,9.15,0,0,1,3.85,1.58A10.22,10.22,0,0,1,556.56,25,11.25,11.25,0,0,1,558,28.63a10,10,0,0,1,.08,3.83,11.13,11.13,0,0,1-1.2,3.41,10.47,10.47,0,0,1-2.16,2.76,9.24,9.24,0,0,1-2.91,1.79,9.15,9.15,0,0,1-3.43.6c2.47,5.72,3.69,8.59,6.1,14.32l-2.77-.49c-2.35-5.56-3.54-8.34-6-13.9-4.37-.75-6.55-1.11-10.93-1.83l-2,12.5Zm4.8-14.31c4.74.77,7.11,1.17,11.85,2a6.38,6.38,0,0,0,3.07-.19,7.6,7.6,0,0,0,2.61-1.44,8.27,8.27,0,0,0,1.91-2.35,9.38,9.38,0,0,0,1-2.91,8.11,8.11,0,0,0-.06-3.15A8.6,8.6,0,0,0,554.45,26a8.24,8.24,0,0,0-2.09-2.21,6.68,6.68,0,0,0-2.84-1.19c-4.66-.8-7-1.19-11.65-1.95Z" transform="translate(-7.38 -0.24)"/><path class="cls-1" d="M585.79,32.79c-1.73-2.82-4.61-4.63-8.65-5.4q-5-1-7.62.46a6.11,6.11,0,0,0-3.19,4.53,5.51,5.51,0,0,0,.09,2.73,5,5,0,0,0,1.46,2.12,12.35,12.35,0,0,0,2.84,1.83c1.17.57,2.6,1.22,4.27,1.92s3.29,1.45,4.68,2.18a14.49,14.49,0,0,1,3.41,2.43,7.32,7.32,0,0,1,1.87,3A7.57,7.57,0,0,1,585,52.4,8.08,8.08,0,0,1,583.39,56a7.86,7.86,0,0,1-3,2.22,11.86,11.86,0,0,1-4.08.91,20.31,20.31,0,0,1-5-.39,19.5,19.5,0,0,1-12.29-7.4l1.62-1.67a15.81,15.81,0,0,0,4.54,4.42,18.19,18.19,0,0,0,6.62,2.58,13,13,0,0,0,7.15-.24,5.4,5.4,0,0,0,3.42-4.28,5.49,5.49,0,0,0-.11-2.89,6,6,0,0,0-1.57-2.36,13.35,13.35,0,0,0-3-2.08c-1.25-.66-2.73-1.35-4.42-2.06s-3.25-1.41-4.55-2.09a13.11,13.11,0,0,1-3.18-2.23,6.53,6.53,0,0,1-1.7-2.69,7.31,7.31,0,0,1-.09-3.52,8.63,8.63,0,0,1,1.61-3.79,8.51,8.51,0,0,1,3-2.45,11.32,11.32,0,0,1,4.13-1.08,18.7,18.7,0,0,1,5,.33,17.22,17.22,0,0,1,5.73,2.1,14.13,14.13,0,0,1,4.12,3.83Z" transform="translate(-7.38 -0.24)"/><path class="cls-1" d="M611.91,64.69l-.47,2.12c-8.84-2-13.26-2.93-22.12-4.75l6.78-32.87C605,31,609.45,32,618.33,34l-.47,2.12C610,34.32,606,33.47,598.1,31.82l-2.69,12.91c6.85,1.43,10.27,2.16,17.11,3.67l-.45,2c-6.83-1.51-10.24-2.24-17.08-3.67l-2.84,13.65C600.06,62.07,604,62.92,611.91,64.69Z" transform="translate(-7.38 -0.24)"/><path class="cls-1" d="M9.91,382.8Q13,399.12,16.2,415.4q9.56-13.58,19-27.25l2.53.51q-10.35,15.07-21,29.95l-2.25-.48q-3.71-17.91-7.08-35.89Z" transform="translate(-7.38 -0.24)"/><path class="cls-1" d="M48.64,425.21a14.62,14.62,0,0,1-6.21-2.67,16.67,16.67,0,0,1-6.5-10.71,17.55,17.55,0,0,1,.09-6.39,17.21,17.21,0,0,1,2.46-6.07,18.13,18.13,0,0,1,4.35-4.68A16.21,16.21,0,0,1,48.5,392a14.57,14.57,0,0,1,6.46-.19,14.26,14.26,0,0,1,6.1,2.64,16.46,16.46,0,0,1,4.25,4.73,18.14,18.14,0,0,1,2.24,5.94,17.33,17.33,0,0,1,.07,6.28,17.12,17.12,0,0,1-2.34,6.16,17.38,17.38,0,0,1-4.3,4.73A16.26,16.26,0,0,1,55.24,425,14.89,14.89,0,0,1,48.64,425.21ZM38.43,405.91a15.75,15.75,0,0,0-.1,5.64,14.79,14.79,0,0,0,1.86,5.18,13.74,13.74,0,0,0,3.66,4.05A12.5,12.5,0,0,0,49.1,423a12.18,12.18,0,0,0,5.78-.23,13.52,13.52,0,0,0,4.82-2.56,15.73,15.73,0,0,0,3.48-20.12,14,14,0,0,0-3.58-4,11.84,11.84,0,0,0-5-2.19,12.09,12.09,0,0,0-5.69.22A13.84,13.84,0,0,0,44,396.68a16,16,0,0,0-5.59,9.24Z" transform="translate(-7.38 -0.24)"/><path class="cls-1" d="M98.43,401.65c-4.91-.76-7.36-1.15-12.27-2l-5.07,31-2.46-.41,5.13-31c-4.9-.81-7.36-1.23-12.25-2.08l.37-2.14c10.74,1.88,16.12,2.76,26.89,4.43Z" transform="translate(-7.38 -0.24)"/><path class="cls-1" d="M122.1,434.58l-.29,2.16c-9.15-1.23-13.73-1.88-22.86-3.26l5-33.19c8.75,1.32,13.13,1.95,21.9,3.13l-.29,2.15c-7.82-1.05-11.72-1.61-19.53-2.77l-1.94,13c6.89,1,10.33,1.52,17.23,2.46l-.28,2.06c-6.91-.94-10.36-1.44-17.25-2.46l-2.06,13.79C109.87,432.91,113.94,433.49,122.1,434.58Z" transform="translate(-7.38 -0.24)"/><path class="cls-1" d="M141,439.18l4-33.32c8.74,1.06,13.12,1.55,21.87,2.47l-.23,2.16c-7.8-.82-11.7-1.25-19.49-2.18l-1.57,13.24c6.68.79,10,1.17,16.7,1.89l-.22,2.07c-6.69-.72-10-1.09-16.73-1.89l-1.89,15.86Z" transform="translate(-7.38 -0.24)"/><path class="cls-1" d="M182.71,443.84a14.54,14.54,0,0,1-6.42-2.07,16.65,16.65,0,0,1-7.45-10,17.59,17.59,0,0,1-.51-6.37,17.26,17.26,0,0,1,1.87-6.27,18.14,18.14,0,0,1,3.88-5.07,16.16,16.16,0,0,1,5.38-3.25,14.48,14.48,0,0,1,6.39-.8,14.18,14.18,0,0,1,6.3,2.05,16.42,16.42,0,0,1,4.66,4.31,18.15,18.15,0,0,1,2.78,5.7,17.37,17.37,0,0,1,.66,6.24,17.17,17.17,0,0,1-1.74,6.36,17.4,17.4,0,0,1-3.82,5.12,16.22,16.22,0,0,1-5.43,3.29A14.81,14.81,0,0,1,182.71,443.84ZM170.78,425.6a15.8,15.8,0,0,0,.43,5.63,14.79,14.79,0,0,0,2.33,5,13.7,13.7,0,0,0,4,3.69,12.42,12.42,0,0,0,5.41,1.74,12.11,12.11,0,0,0,5.71-.77,13.48,13.48,0,0,0,4.55-3,15.77,15.77,0,0,0,1.57-20.36,13.94,13.94,0,0,0-3.93-3.63,11.77,11.77,0,0,0-5.21-1.7,12,12,0,0,0-5.63.76,13.8,13.8,0,0,0-4.56,3,16,16,0,0,0-4.68,9.72Z" transform="translate(-7.38 -0.24)"/><path class="cls-1" d="M205.57,445.5,208.08,412c5.6.42,8.4.62,14,1a8.82,8.82,0,0,1,3.89,1.15,10.15,10.15,0,0,1,3,2.57,11.43,11.43,0,0,1,1.85,3.47,10.13,10.13,0,0,1,.52,3.79,11.17,11.17,0,0,1-.78,3.53,10.36,10.36,0,0,1-1.82,3,9.07,9.07,0,0,1-6,3.09c3.08,5.42,4.64,8.13,7.78,13.54l-2.87-.17c-3-5.26-4.55-7.89-7.54-13.16-4.43-.29-6.65-.44-11.08-.77L208,445.69Zm3.57-14.67c4.79.35,7.19.52,12,.83a6.31,6.31,0,0,0,3-.52,7.51,7.51,0,0,0,2.42-1.72,8.21,8.21,0,0,0,1.62-2.55,9.42,9.42,0,0,0,.69-3,8.25,8.25,0,0,0-.41-3.13A8.73,8.73,0,0,0,227,418a8.17,8.17,0,0,0-2.27-2,6.45,6.45,0,0,0-2.88-.87c-4.6-.3-6.91-.46-11.51-.8Z" transform="translate(-7.38 -0.24)"/><path class="cls-1" d="M248.64,414.49c4.37,7.64,6.59,11.45,11.09,19.05,5.08-7.25,7.58-10.88,12.54-18.17l2.71.08c-5.55,8.21-8.37,12.3-14.08,20.45l-.46,12.66-2.48-.09.49-12.75c-5.06-8.52-7.56-12.79-12.46-21.35Z" transform="translate(-7.38 -0.24)"/><path class="cls-1" d="M290.91,449.6a14.51,14.51,0,0,1-6.55-1.58,16.7,16.7,0,0,1-5-3.94,16.88,16.88,0,0,1-3.16-5.52,17.61,17.61,0,0,1-1-6.31,17.28,17.28,0,0,1,1.39-6.39,18.14,18.14,0,0,1,3.48-5.35,16.14,16.14,0,0,1,5.11-3.65,14.46,14.46,0,0,1,6.3-1.28,14.16,14.16,0,0,1,6.43,1.57,16.41,16.41,0,0,1,5,3.94,18.15,18.15,0,0,1,3.2,5.48,17.38,17.38,0,0,1,1.13,6.17,17.17,17.17,0,0,1-1.26,6.47,17.39,17.39,0,0,1-3.42,5.39,16.22,16.22,0,0,1-5.16,3.69A14.78,14.78,0,0,1,290.91,449.6Zm-13.26-17.29a15.81,15.81,0,0,0,.85,5.58,14.79,14.79,0,0,0,2.7,4.79,13.68,13.68,0,0,0,4.28,3.37,12.4,12.4,0,0,0,5.52,1.32,12.09,12.09,0,0,0,5.63-1.2,13.48,13.48,0,0,0,4.3-3.34,15.78,15.78,0,0,0,0-20.42,13.93,13.93,0,0,0-4.19-3.33,11.75,11.75,0,0,0-5.32-1.3A12,12,0,0,0,285.9,419a13.79,13.79,0,0,0-4.32,3.29,16,16,0,0,0-3.93,10Z" transform="translate(-7.38 -0.24)"/><path class="cls-1" d="M327.67,447.47a11.81,11.81,0,0,0,5.79-1.35,9.9,9.9,0,0,0,3.59-3.41,14,14,0,0,0,1.8-4.76,25.88,25.88,0,0,0,.46-5.35c-.13-6.75-.19-10.12-.31-16.87l2.43,0c.14,6.75.21,10.12.34,16.87a27,27,0,0,1-.62,6.44,15.2,15.2,0,0,1-2.34,5.46,12,12,0,0,1-4.36,3.78,17,17,0,0,1-13.63.07,12.1,12.1,0,0,1-4.46-3.81,15.26,15.26,0,0,1-2.38-5.41,27.49,27.49,0,0,1-.7-6.24c0-6.75,0-10.12,0-16.87h2.43l0,16.87a26.33,26.33,0,0,0,.57,5.43,13.16,13.16,0,0,0,2,4.7,10.25,10.25,0,0,0,3.68,3.29A11.73,11.73,0,0,0,327.67,447.47Z" transform="translate(-7.38 -0.24)"/><path class="cls-1" d="M350.62,449q-.44-16.77-.88-33.55c5.61-.15,8.42-.24,14-.44a8.82,8.82,0,0,1,4,.75,10.16,10.16,0,0,1,3.21,2.26,11.45,11.45,0,0,1,2.19,3.27,10.14,10.14,0,0,1,.9,3.72,11.18,11.18,0,0,1-.42,3.59,10.37,10.37,0,0,1-1.5,3.16,9.07,9.07,0,0,1-5.69,3.68c3.61,5.09,5.43,7.62,9.11,12.69l-2.87.12c-3.56-4.92-5.32-7.39-8.83-12.34-4.44.16-6.66.23-11.1.35.14,5.07.21,7.6.35,12.66Zm2.07-15c4.8-.13,7.2-.21,12-.39a6.3,6.3,0,0,0,3-.82,7.5,7.5,0,0,0,2.24-2,8.2,8.2,0,0,0,1.36-2.7,9.41,9.41,0,0,0,.38-3.07,8.25,8.25,0,0,0-.73-3.07,8.74,8.74,0,0,0-1.73-2.55,8.18,8.18,0,0,0-2.45-1.73,6.45,6.45,0,0,0-3-.58c-4.61.17-6.91.24-11.52.37Z" transform="translate(-7.38 -0.24)"/><path class="cls-1" d="M408.45,444.36a11.82,11.82,0,0,0,5.71-1.67,9.91,9.91,0,0,0,3.39-3.61,14,14,0,0,0,1.53-4.85,25.87,25.87,0,0,0,.15-5.37L418,412l2.42-.18,1.29,16.82a27,27,0,0,1-.25,6.47,15.19,15.19,0,0,1-2,5.58,12,12,0,0,1-4.14,4,17,17,0,0,1-13.61.84A12.1,12.1,0,0,1,397,442a15.27,15.27,0,0,1-2.68-5.27,27.51,27.51,0,0,1-1.05-6.19l-1-16.85,2.42-.14,1,16.85a26.32,26.32,0,0,0,.87,5.39,13.16,13.16,0,0,0,2.21,4.58,10.25,10.25,0,0,0,3.86,3.08A11.74,11.74,0,0,0,408.45,444.36Z" transform="translate(-7.38 -0.24)"/><path class="cls-1" d="M431.5,415.5q1.22,14.46,2.45,28.92l-2.48.21-2.77-33.45,1.85-.15q13.11,13.78,26.59,27.2l-3-29.39,2.42-.25L460,442l-2.28.23Q444.44,429,431.5,415.5Z" transform="translate(-7.38 -0.24)"/><path class="cls-1" d="M469,441l-3.65-33.36,2.41-.27,3.71,33.35Z" transform="translate(-7.38 -0.24)"/><path class="cls-1" d="M475.42,406.52q8.22,14.42,16.59,28.74,4.56-16,8.94-32l2.55-.35q-4.81,17.63-10,35.17l-2.28.29q-9.35-15.71-18.41-31.59Z" transform="translate(-7.38 -0.24)"/><path class="cls-1" d="M535.85,429.9l.34,2.15c-9.13,1.44-13.7,2.12-22.85,3.41l-4.69-33.23c8.76-1.24,13.14-1.89,21.89-3.26l.34,2.15c-7.8,1.23-11.7,1.81-19.51,2.93l1.86,13.06c6.89-1,10.33-1.5,17.22-2.57l.32,2.05c-6.89,1.07-10.34,1.59-17.24,2.57l2,13.8C523.64,431.8,527.71,431.19,535.85,429.9Z" transform="translate(-7.38 -0.24)"/><path class="cls-1" d="M542.89,431l-5.38-33.13c5.56-.9,8.33-1.37,13.89-2.33a8.87,8.87,0,0,1,4.06.2,10.19,10.19,0,0,1,3.5,1.81,11.45,11.45,0,0,1,2.62,2.94A10.11,10.11,0,0,1,563,404a11.14,11.14,0,0,1,.06,3.62A10.35,10.35,0,0,1,562,411a9.11,9.11,0,0,1-5.17,4.41c4.27,4.55,6.43,6.82,10.76,11.34l-2.84.51c-4.2-4.4-6.29-6.6-10.43-11-4.39.76-6.59,1.13-11,1.85l2.05,12.5Zm0-15.09c4.75-.78,7.13-1.18,11.88-2a6.34,6.34,0,0,0,2.83-1.21,7.52,7.52,0,0,0,2-2.24,8.2,8.2,0,0,0,1-2.86,9.39,9.39,0,0,0,0-3.09,8.22,8.22,0,0,0-1.13-2.94,8.72,8.72,0,0,0-2.06-2.3,8.2,8.2,0,0,0-2.67-1.38,6.49,6.49,0,0,0-3-.17c-4.56.79-6.84,1.17-11.41,1.92Z" transform="translate(-7.38 -0.24)"/><path class="cls-1" d="M588.51,394.29q-4-2.92-9.87-1.77-4.89.94-6.78,3.19a6.19,6.19,0,0,0-1.32,5.37,5.55,5.55,0,0,0,1.06,2.52,4.9,4.9,0,0,0,2.11,1.46,12,12,0,0,0,3.29.68c1.3.11,2.86.19,4.66.21s3.59.11,5.15.27a14.81,14.81,0,0,1,4.09.95,7.41,7.41,0,0,1,2.88,2,7.55,7.55,0,0,1,1.57,3.49,8,8,0,0,1-.12,4,7.83,7.83,0,0,1-1.95,3.21,12,12,0,0,1-3.51,2.41,20.66,20.66,0,0,1-4.86,1.52,19.62,19.62,0,0,1-14.41-2.39l.94-2.14a15.7,15.7,0,0,0,5.91,2.48,18.41,18.41,0,0,0,7.25-.06,13.23,13.23,0,0,0,6.67-2.94,5.35,5.35,0,0,0,1.56-5.28,5.47,5.47,0,0,0-1.22-2.62,6.06,6.06,0,0,0-2.37-1.58,13.7,13.7,0,0,0-3.59-.79c-1.41-.14-3-.23-4.88-.26s-3.54-.12-5-.27A12.81,12.81,0,0,1,572,407a6.46,6.46,0,0,1-2.54-1.91,7.34,7.34,0,0,1-1.33-3.26,8.78,8.78,0,0,1,.15-4.11,8.57,8.57,0,0,1,1.88-3.36,11.15,11.15,0,0,1,3.38-2.49,18.33,18.33,0,0,1,4.67-1.52,16.86,16.86,0,0,1,6-.17,14.09,14.09,0,0,1,5.18,2Z" transform="translate(-7.38 -0.24)"/><path class="cls-1" d="M625.37,412.86l.47,2.12c-9,2-13.58,3-22.65,4.87L596.41,387c8.69-1.8,13-2.73,21.7-4.66l.47,2.12c-7.73,1.72-11.6,2.56-19.34,4.17l2.69,12.91c6.83-1.42,10.25-2.16,17.07-3.67l.45,2c-6.83,1.51-10.25,2.25-17.09,3.67l2.84,13.65C613.28,415.54,617.31,414.67,625.37,412.86Z" transform="translate(-7.38 -0.24)"/></g></g></svg>