<svg xmlns="http://www.w3.org/2000/svg" viewBox="0 0 571.1 445.9"><defs><style>.cls-1{fill:#fff;}</style></defs><title>mordor</title><g id="Layer_2" data-name="Layer 2"><g id="Layer_1-2" data-name="Layer 1"><path class="cls-1" d="M74.7,101a13.55,13.55,0,0,1,5.56,1.17,8.47,8.47,0,0,1,4.09,3.95l10.82,21.65h.29l11-21.65a7.76,7.76,0,0,1,4-3.95,14,14,0,0,1,5.63-1.17,11.45,11.45,0,0,1,5.34,1.25,7.68,7.68,0,0,1,3.58,4.18q.14.44.73,2.06v94.31H105.56v-47.1a14.94,14.94,0,0,1-4.24,4.83,10.36,10.36,0,0,1-6,1.61,10.58,10.58,0,0,1-5.63-1.39,13.57,13.57,0,0,1-4.17-4.31v46.37H65V108.51a5.06,5.06,0,0,1,.51-1.62c.34-.78.61-1.37.8-1.76a7.22,7.22,0,0,1,3.58-3.3A13.24,13.24,0,0,1,74.7,101Z" transform="translate(-0.05 -0.23)"/><path class="cls-1" d="M140.66,186.58V179q0-5.12-.07-11.48t-.07-13.38q0-7.16-.07-13.6t-.07-11.41v-7.9a21.21,21.21,0,0,1,1.17-6.73,23.57,23.57,0,0,1,3.36-6.51,20.12,20.12,0,0,1,5.19-5,11.6,11.6,0,0,1,6.51-2H184.4a10.16,10.16,0,0,1,2.56.58q1.83.59,2.56.88,12.29,5.41,12.29,18.58v61.14a21.67,21.67,0,0,1-1.54,8.19,19.28,19.28,0,0,1-4.24,6.51,20.42,20.42,0,0,1-14.55,5.92H160.7a20.39,20.39,0,0,1-13-4.39A19.25,19.25,0,0,1,140.66,186.58Zm20.77-64.8v60H181v-60Z" transform="translate(-0.05 -0.23)"/><path class="cls-1" d="M216.43,121.26a21.31,21.31,0,0,1,1.17-6.75A23.71,23.71,0,0,1,221,108a20.13,20.13,0,0,1,5.19-5,11.57,11.57,0,0,1,6.51-2H260.6a13.72,13.72,0,0,1,5.78,1.39,20.74,20.74,0,0,1,5.49,3.74,22,22,0,0,1,4.1,5.21,11.48,11.48,0,0,1,1.61,5.65v28.6a12.11,12.11,0,0,1-1.9,6.45,15.47,15.47,0,0,1-4.53,4.84c.29.39.49.59.58.59a22.05,22.05,0,0,1,4.1,4.84,11.33,11.33,0,0,1,1.75,6.16v34.33H256.95V172q-.88-1-1.17-1.32a22.65,22.65,0,0,0-8.63-5.78,28.28,28.28,0,0,0-10.24-2v39.93H216.72v-9.39q0-6.31-.07-14.38t-.07-16.87q0-8.8-.07-16.87t-.07-14.37v-9.68Zm20.77.53v19.31h19.6V121.79Z" transform="translate(-0.05 -0.23)"/><path class="cls-1" d="M297.9,202.53a10.2,10.2,0,0,1-3.8-2.86,6.49,6.49,0,0,1-1.9-4.33V108.5a5.59,5.59,0,0,1,.66-2.49,10.22,10.22,0,0,1,1.68-2.42,9.46,9.46,0,0,1,2.34-1.84,5.14,5.14,0,0,1,2.49-.73h26a10,10,0,0,1,3.95,1,22.69,22.69,0,0,1,3.51,1.83,33.33,33.33,0,0,1,8.63,7.33,42.84,42.84,0,0,1,5.85,9.32,52.63,52.63,0,0,1,3.58,10.63q1.24,5.57,2,11.15.14.73.29,2.42t.15,2v35.79q0,13.64-12.29,19.07-.73.29-2.56.81a11.25,11.25,0,0,1-2.56.51H299.36a3.18,3.18,0,0,1-.66-.15A3.23,3.23,0,0,0,297.9,202.53ZM313,121.79V182h19.75v-6.32q0-4.7-.07-9.85t-.07-9.7v-6.47q0-3.23-.29-7.2a52,52,0,0,0-1.17-7.79,30.26,30.26,0,0,0-2.63-7.2,14.93,14.93,0,0,0-4.68-5.44,1,1,0,0,0-.73-.29Z" transform="translate(-0.05 -0.23)"/><path class="cls-1" d="M368.25,186.58V179q0-5.12-.07-11.48t-.07-13.38q0-7.16-.07-13.6T368,129.1v-7.9a21.21,21.21,0,0,1,1.17-6.73,23.57,23.57,0,0,1,3.36-6.51,20.12,20.12,0,0,1,5.19-5,11.6,11.6,0,0,1,6.51-2H412a10.16,10.16,0,0,1,2.56.58q1.83.59,2.56.88,12.29,5.41,12.29,18.58v61.14a21.67,21.67,0,0,1-1.54,8.19,19.28,19.28,0,0,1-4.24,6.51,20.42,20.42,0,0,1-14.55,5.92H388.29a20.39,20.39,0,0,1-13-4.39A19.25,19.25,0,0,1,368.25,186.58ZM389,121.79v60h19.6v-60Z" transform="translate(-0.05 -0.23)"/><path class="cls-1" d="M444,121.26a21.31,21.31,0,0,1,1.17-6.75,23.71,23.71,0,0,1,3.36-6.53,20.13,20.13,0,0,1,5.19-5,11.57,11.57,0,0,1,6.51-2h27.94a13.72,13.72,0,0,1,5.78,1.39,20.74,20.74,0,0,1,5.49,3.74,22,22,0,0,1,4.1,5.21,11.48,11.48,0,0,1,1.61,5.65v28.6a12.11,12.11,0,0,1-1.9,6.45,15.47,15.47,0,0,1-4.53,4.84c.29.39.49.59.58.59a22.05,22.05,0,0,1,4.1,4.84,11.33,11.33,0,0,1,1.75,6.16v34.33H484.53V172q-.88-1-1.17-1.32a22.65,22.65,0,0,0-8.63-5.78,28.28,28.28,0,0,0-10.24-2v39.93H444.31v-9.39q0-6.31-.07-14.38t-.07-16.87q0-8.8-.07-16.87T444,130.94v-9.68Zm20.77.53v19.31h19.6V121.79Z" transform="translate(-0.05 -0.23)"/><path class="cls-1" d="M27.53,235.82H48v39.93a23.31,23.31,0,0,0,4.9-.59,35,35,0,0,0,5.49-1.68,28.19,28.19,0,0,0,5.12-2.63,13.11,13.11,0,0,0,3.66-3.44L68,266.1V235.82H88.67v33a11.76,11.76,0,0,1-1.24,4.77,32.27,32.27,0,0,1-3.07,5.28,41.43,41.43,0,0,1-3.88,4.69,14.66,14.66,0,0,1-3.8,3v.29a14.77,14.77,0,0,1,3.8,3,41.78,41.78,0,0,1,3.88,4.69,32.36,32.36,0,0,1,3.07,5.28,11.76,11.76,0,0,1,1.24,4.77v33H68V307.34L67.17,306a13.14,13.14,0,0,0-3.66-3.44A28.19,28.19,0,0,0,58.39,300a35.3,35.3,0,0,0-5.49-1.68,23.5,23.5,0,0,0-4.9-.59v39.93H27.53Z" transform="translate(-0.05 -0.23)"/><path class="cls-1" d="M103.29,317.14h20v-60.7h-20V235.82h61.14v20.62h-20v60.7h20v20.48H103.29Z" transform="translate(-0.05 -0.23)"/><path class="cls-1" d="M188.71,235.82a13.55,13.55,0,0,1,5.56,1.17,8.48,8.48,0,0,1,4.09,3.95l21.21,42v-47.1h20.19v94.31a4.07,4.07,0,0,1-.58,1.69q-.59,1.1-.88,1.69a6.56,6.56,0,0,1-3.51,3.31,13.43,13.43,0,0,1-4.68.81,14.84,14.84,0,0,1-5.63-1.1,7.38,7.38,0,0,1-4-4l-20.92-41.25v46.37H179.06V243.31a5.07,5.07,0,0,1,.51-1.62c.34-.78.61-1.37.8-1.76a7.23,7.23,0,0,1,3.58-3.3A13.25,13.25,0,0,1,188.71,235.82Z" transform="translate(-0.05 -0.23)"/><path class="cls-1" d="M315.53,235.82v20.62H275.16v60.41h19.6V297.26H285V276.19h20.33a9.54,9.54,0,0,1,7.46,3.09,10.8,10.8,0,0,1,2.78,7.49v30.72a20.35,20.35,0,0,1-1.24,6.76,25.44,25.44,0,0,1-3.44,6.54,19.1,19.1,0,0,1-5.19,4.92,11.88,11.88,0,0,1-6.51,1.91H271.35a13.65,13.65,0,0,1-5.78-1.39,20.6,20.6,0,0,1-5.49-3.74,22.48,22.48,0,0,1-4.1-5.13,11.29,11.29,0,0,1-1.61-5.72v-68.8a13.78,13.78,0,0,1,1.39-5.79,20.64,20.64,0,0,1,3.73-5.5,22.5,22.5,0,0,1,5.12-4.11,11.23,11.23,0,0,1,5.7-1.61Z" transform="translate(-0.05 -0.23)"/><path class="cls-1" d="M335.86,337.33a10.18,10.18,0,0,1-3.8-2.86,6.49,6.49,0,0,1-1.9-4.33V243.3a5.59,5.59,0,0,1,.66-2.49,10.24,10.24,0,0,1,1.68-2.42,9.47,9.47,0,0,1,2.34-1.83,5.13,5.13,0,0,1,2.49-.73h26a10,10,0,0,1,3.95,1,22.69,22.69,0,0,1,3.51,1.83,33.34,33.34,0,0,1,8.63,7.33,42.83,42.83,0,0,1,5.85,9.32,52.61,52.61,0,0,1,3.58,10.63q1.24,5.57,2,11.15.14.73.29,2.42c.1,1.12.15,1.79.15,2v35.79q0,13.64-12.29,19.07-.73.3-2.56.81a11.25,11.25,0,0,1-2.56.51H337.32a3.18,3.18,0,0,1-.66-.15A3.24,3.24,0,0,0,335.86,337.33Zm15.07-80.74v60.26h19.75v-6.32q0-4.7-.07-9.85t-.07-9.7v-6.47q0-3.23-.29-7.2a51.94,51.94,0,0,0-1.17-7.79,30.26,30.26,0,0,0-2.63-7.2,14.94,14.94,0,0,0-4.68-5.44,1,1,0,0,0-.73-.29Z" transform="translate(-0.05 -0.23)"/><path class="cls-1" d="M406.21,321.39v-7.61q0-5.12-.07-11.48t-.07-13.38q0-7.17-.07-13.6t-.07-11.41V256a21.2,21.2,0,0,1,1.17-6.73,23.58,23.58,0,0,1,3.36-6.51,20.12,20.12,0,0,1,5.19-5,11.6,11.6,0,0,1,6.51-2h27.79a10.16,10.16,0,0,1,2.56.58q1.83.59,2.56.88,12.29,5.41,12.29,18.58V317a21.68,21.68,0,0,1-1.54,8.19,19.28,19.28,0,0,1-4.24,6.51A20.42,20.42,0,0,1,447,337.62H426.25a20.39,20.39,0,0,1-13-4.39A19.25,19.25,0,0,1,406.21,321.39ZM427,256.59v60h19.6v-60Z" transform="translate(-0.05 -0.23)"/><path class="cls-1" d="M491.63,235.82a13.55,13.55,0,0,1,5.56,1.17,8.48,8.48,0,0,1,4.09,3.95l10.82,21.65h.29l11-21.65a7.76,7.76,0,0,1,4-3.95,14,14,0,0,1,5.63-1.17,11.45,11.45,0,0,1,5.34,1.25,7.68,7.68,0,0,1,3.58,4.18q.14.44.73,2.06v94.31H522.49v-47.1a15,15,0,0,1-4.24,4.83,10.36,10.36,0,0,1-6,1.61,10.58,10.58,0,0,1-5.63-1.39,13.57,13.57,0,0,1-4.17-4.32v46.37H482V243.31a5.07,5.07,0,0,1,.51-1.62c.34-.78.61-1.37.8-1.76a7.23,7.23,0,0,1,3.58-3.3A13.25,13.25,0,0,1,491.63,235.82Z" transform="translate(-0.05 -0.23)"/><path class="cls-1" d="M.05,414.46,7.22,382.4c8.45,1.89,12.68,2.8,21.15,4.54L27.94,389c-7.55-1.55-11.32-2.36-18.85-4L6.27,397.73c6.46,1.43,9.69,2.13,16.17,3.47l-.41,2c-6.48-1.35-9.72-2-16.19-3.48L2.44,415Z" transform="translate(-0.05 -0.23)"/><path class="cls-1" d="M28,420.37l6.47-32.21c5.41,1.09,8.12,1.62,13.54,2.64a8.7,8.7,0,0,1,3.65,1.58,10,10,0,0,1,2.59,2.86,11.21,11.21,0,0,1,1.39,3.59,9.9,9.9,0,0,1,.06,3.75,10.88,10.88,0,0,1-1.18,3.34,10.16,10.16,0,0,1-2.13,2.69,8.92,8.92,0,0,1-6.26,2.27c2.36,5.64,3.56,8.46,6,14.09l-2.78-.51c-2.35-5.47-3.51-8.21-5.79-13.7-4.29-.82-6.44-1.23-10.73-2.09l-2.42,12.16Zm5.24-13.82c4.64.92,7,1.37,11.6,2.25a6.22,6.22,0,0,0,3-.14,7.36,7.36,0,0,0,2.57-1.38A8,8,0,0,0,52.27,405a9.18,9.18,0,0,0,1-2.85,8.05,8.05,0,0,0,0-3.09,8.55,8.55,0,0,0-1.1-2.81,8,8,0,0,0-2-2.18,6.36,6.36,0,0,0-2.71-1.19c-4.46-.84-6.68-1.28-11.13-2.16Z" transform="translate(-0.05 -0.23)"/><path class="cls-1" d="M71.88,428.65a14.32,14.32,0,0,1-6.14-2.49,16.31,16.31,0,0,1-6.58-10.35,17.17,17.17,0,0,1,0-6.26,16.85,16.85,0,0,1,2.29-6,17.75,17.75,0,0,1,4.16-4.67A15.88,15.88,0,0,1,71,396.11a14.25,14.25,0,0,1,6.31-.32,13.94,13.94,0,0,1,6,2.46,16.1,16.1,0,0,1,4.26,4.54,17.81,17.81,0,0,1,2.32,5.77,17,17,0,0,1,.2,6.14A16.76,16.76,0,0,1,88,420.78a17,17,0,0,1-4.11,4.72,15.93,15.93,0,0,1-5.55,2.82A14.59,14.59,0,0,1,71.88,428.65ZM61.49,410a15.42,15.42,0,0,0,0,5.52,14.45,14.45,0,0,0,1.93,5,13.45,13.45,0,0,0,3.67,3.89,12.24,12.24,0,0,0,5.18,2.09,11.93,11.93,0,0,0,5.65-.34,13.24,13.24,0,0,0,4.67-2.61,15.41,15.41,0,0,0,3-19.77A13.69,13.69,0,0,0,82,400a11.59,11.59,0,0,0-5-2,11.82,11.82,0,0,0-5.56.33,13.54,13.54,0,0,0-4.67,2.56A15.65,15.65,0,0,0,61.49,410Z" transform="translate(-0.05 -0.23)"/><path class="cls-1" d="M124.65,436l3.49-28.19c-6.29,8.15-9.48,12.21-16,20.29l-1.51-.2c-4.1-9.5-6.1-14.26-10-23.79l-4.1,28.11-2.42-.35L99,399.41l2.36.35c4.11,10.1,6.22,15.15,10.54,25.21,6.83-8.57,10.2-12.87,16.84-21.52l2.36.29-4,32.61Z" transform="translate(-0.05 -0.23)"/><path class="cls-1" d="M148.13,438.74l3.45-32.67,2.37.25-3.17,30.56c8.05.84,12.08,1.22,20.15,1.93l-.19,2.12C161.69,440.13,157.16,439.7,148.13,438.74Z" transform="translate(-0.05 -0.23)"/><path class="cls-1" d="M187.1,442.5a14.24,14.24,0,0,1-6.32-1.93,16.29,16.29,0,0,1-7.45-9.72,17.22,17.22,0,0,1-.6-6.23,16.9,16.9,0,0,1,1.74-6.16,17.76,17.76,0,0,1,3.72-5,15.84,15.84,0,0,1,5.21-3.26,14.18,14.18,0,0,1,6.24-.88,13.87,13.87,0,0,1,6.19,1.91,16.07,16.07,0,0,1,4.63,4.14,17.83,17.83,0,0,1,2.81,5.54A17,17,0,0,1,204,427a16.8,16.8,0,0,1-1.61,6.25,17,17,0,0,1-3.66,5.07,15.89,15.89,0,0,1-5.27,3.3A14.52,14.52,0,0,1,187.1,442.5Zm-12-17.68a15.46,15.46,0,0,0,.5,5.5,14.46,14.46,0,0,0,2.36,4.84,13.42,13.42,0,0,0,4,3.55,12.18,12.18,0,0,0,5.33,1.62,11.87,11.87,0,0,0,5.59-.84,13.21,13.21,0,0,0,4.41-3,15.43,15.43,0,0,0,1.22-20,13.66,13.66,0,0,0-3.9-3.5,11.53,11.53,0,0,0-5.13-1.58,11.76,11.76,0,0,0-5.5.83,13.51,13.51,0,0,0-4.42,3,15.68,15.68,0,0,0-4.44,9.59Z" transform="translate(-0.05 -0.23)"/><path class="cls-1" d="M209.53,443.77l1.91-32.8c5.49.32,8.23.46,13.72.72a8.64,8.64,0,0,1,3.82,1.06,10,10,0,0,1,3,2.47,11.23,11.23,0,0,1,1.87,3.37,9.93,9.93,0,0,1,.58,3.7,10.92,10.92,0,0,1-.7,3.47,10.18,10.18,0,0,1-1.72,3,8.88,8.88,0,0,1-5.86,3.12c3.11,5.26,4.68,7.88,7.86,13.12l-2.82-.11c-3.08-5.09-4.6-7.64-7.61-12.75-4.35-.21-6.52-.32-10.87-.57l-.7,12.38Zm3.25-14.41c4.7.26,7,.39,11.75.61a6.17,6.17,0,0,0,3-.56,7.33,7.33,0,0,0,2.34-1.73,8,8,0,0,0,1.55-2.53,9.21,9.21,0,0,0,.62-3,8.06,8.06,0,0,0-.46-3.05,8.56,8.56,0,0,0-1.48-2.63,8,8,0,0,0-2.25-1.88,6.32,6.32,0,0,0-2.84-.8c-4.51-.21-6.77-.33-11.27-.59Z" transform="translate(-0.05 -0.23)"/><path class="cls-1" d="M240.5,445.2l1.13-32.83c4.39.15,6.59.22,11,.33a17.24,17.24,0,0,1,6.84,1.45,14,14,0,0,1,4.86,3.61,14.83,14.83,0,0,1,2.87,5.25,20.21,20.21,0,0,1,.9,6.38,19.5,19.5,0,0,1-1.21,6.76,14.41,14.41,0,0,1-3.29,5.13,14.23,14.23,0,0,1-5.14,3.24,17.73,17.73,0,0,1-6.69,1C247.26,445.43,245,445.36,240.5,445.2Zm25.18-15.85a17.65,17.65,0,0,0-.8-5.73,12.93,12.93,0,0,0-2.52-4.55,11.93,11.93,0,0,0-4.12-3,14.45,14.45,0,0,0-5.67-1.2c-3.45-.09-5.18-.14-8.62-.25q-.47,14.29-.93,28.58c3.53.12,5.29.17,8.82.26a14.73,14.73,0,0,0,5.91-.95,11.62,11.62,0,0,0,4.32-2.95,13.07,13.07,0,0,0,2.66-4.51A17.7,17.7,0,0,0,265.68,429.36Z" transform="translate(-0.05 -0.23)"/><path class="cls-1" d="M300.33,446.13a14.23,14.23,0,0,1-6.46-1.38,16.28,16.28,0,0,1-8.25-9,17.22,17.22,0,0,1-1.13-6.15,16.9,16.9,0,0,1,1.2-6.29,17.76,17.76,0,0,1,3.27-5.33,15.82,15.82,0,0,1,4.91-3.7,14.16,14.16,0,0,1,6.14-1.42,13.86,13.86,0,0,1,6.33,1.37,16.07,16.07,0,0,1,5,3.73,17.83,17.83,0,0,1,3.28,5.28,17,17,0,0,1,1.27,6,16.8,16.8,0,0,1-1.06,6.36,17,17,0,0,1-3.21,5.37,15.88,15.88,0,0,1-5,3.75A14.5,14.5,0,0,1,300.33,446.13ZM286.9,429.55a15.46,15.46,0,0,0,1,5.44,14.46,14.46,0,0,0,2.76,4.62,13.4,13.4,0,0,0,4.28,3.19,12.16,12.16,0,0,0,5.44,1.15,11.86,11.86,0,0,0,5.49-1.32,13.21,13.21,0,0,0,4.13-3.38,15.44,15.44,0,0,0-.51-20,13.65,13.65,0,0,0-4.19-3.15A11.52,11.52,0,0,0,300,415a11.75,11.75,0,0,0-5.4,1.3,13.5,13.5,0,0,0-4.14,3.33,15.69,15.69,0,0,0-3.59,9.93Z" transform="translate(-0.05 -0.23)"/><path class="cls-1" d="M322.78,445.45l-.93-32.84c8.6-.24,12.9-.4,21.5-.79l.1,2.13c-7.66.35-11.49.49-19.16.72l.39,13c6.57-.2,9.86-.32,16.43-.6l.09,2c-6.58.28-9.88.4-16.46.6l.47,15.63Z" transform="translate(-0.05 -0.23)"/><path class="cls-1" d="M382.33,411.59c-4.84.37-7.26.54-12.1.86l2,30.66-2.43.16-2-30.66c-4.84.31-7.26.46-12.11.72l-.12-2.12c10.62-.58,15.93-.93,26.54-1.74Z" transform="translate(-0.05 -0.23)"/><path class="cls-1" d="M412.81,406.77l3.27,32.69-2.43.24L412.11,424c-8.42.83-12.64,1.21-21.07,1.9l1.28,15.68-2.43.2-2.62-32.75,2.37-.19,1.22,14.94c8.42-.69,12.63-1.07,21-1.89L410.44,407Z" transform="translate(-0.05 -0.23)"/><path class="cls-1" d="M447.09,433.84l.26,2.11c-9,1.12-13.48,1.64-22.48,2.6l-3.5-32.67c8.6-.92,12.9-1.42,21.5-2.48l.26,2.11c-7.66,1-11.49,1.4-19.16,2.23l1.4,12.83c6.77-.74,10.16-1.13,16.92-2l.25,2c-6.78.83-10.17,1.22-16.95,2l1.48,13.57C435.09,435.3,439.09,434.83,447.09,433.84Z" transform="translate(-0.05 -0.23)"/><path class="cls-1" d="M466.14,433.47l-4.53-32.54c5.45-.76,8.18-1.15,13.63-2a8.68,8.68,0,0,1,4,.29,10,10,0,0,1,3.39,1.84,11.21,11.21,0,0,1,2.5,2.93,9.91,9.91,0,0,1,1.29,3.52,10.9,10.9,0,0,1,0,3.54,10.17,10.17,0,0,1-1.12,3.24,8.91,8.91,0,0,1-5.15,4.21c4.09,4.55,6.14,6.81,10.29,11.33l-2.79.44c-4-4.39-6-6.6-10-11-4.32.65-6.47,1-10.79,1.57l1.73,12.28Zm.38-14.77c4.67-.66,7-1,11.67-1.7a6.2,6.2,0,0,0,2.8-1.13,7.35,7.35,0,0,0,2-2.15,8,8,0,0,0,1-2.78,9.21,9.21,0,0,0,0-3,8,8,0,0,0-1-2.9,8.56,8.56,0,0,0-2-2.29,8,8,0,0,0-2.58-1.41,6.35,6.35,0,0,0-2.95-.23c-4.48.67-6.72,1-11.2,1.63Z" transform="translate(-0.05 -0.23)"/><path class="cls-1" d="M496.88,428.82l-5.3-32.42,2.35-.39,5.36,32.41Z" transform="translate(-0.05 -0.23)"/><path class="cls-1" d="M505.6,398.53l4.88,28-2.41.42-5.58-32.37,1.8-.31q14,12.31,28.38,24.2l-5.48-28.4,2.34-.45,6.28,32.25-2.21.43Q519.43,410.61,505.6,398.53Z" transform="translate(-0.05 -0.23)"/><path class="cls-1" d="M568,409.9a15,15,0,0,1-10.06,7.68,14.3,14.3,0,0,1-6.57-.09,16,16,0,0,1-5.71-2.7,17.74,17.74,0,0,1-4.29-4.61,16.42,16.42,0,0,1-2.36-5.76,17.32,17.32,0,0,1-.09-6.35,17.5,17.5,0,0,1,2.08-5.85,15.52,15.52,0,0,1,4-4.58,14,14,0,0,1,5.72-2.6,17.58,17.58,0,0,1,4.48-.42,13.83,13.83,0,0,1,3.8.69,11.47,11.47,0,0,1,3.15,1.63,14.21,14.21,0,0,1,2.53,2.4L563,390.91a10.73,10.73,0,0,0-5.4-3.63,13.57,13.57,0,0,0-6.48-.1,11.47,11.47,0,0,0-5,2.32,13.32,13.32,0,0,0-3.34,4,14.77,14.77,0,0,0-1.62,5.05,16.21,16.21,0,0,0,.17,5.39,14.86,14.86,0,0,0,5.87,9.15,13.88,13.88,0,0,0,4.88,2.23,12.27,12.27,0,0,0,5.5,0,13.05,13.05,0,0,0,5.49-2.6,17.22,17.22,0,0,0,4.31-5.45L566,401.18l-7.47,1.63-.4-1.85c3.8-.82,5.7-1.24,9.5-2.09l3.48,15.58-2.06.46Z" transform="translate(-0.05 -0.23)"/><path class="cls-1" d="M86.43,55.26,79.26,23.2c8.75-2,13.13-2.88,21.92-4.63l.42,2.09C93.8,22.21,89.91,23,82.14,24.74L85,37.48C91.46,36,94.72,35.35,101.24,34l.4,2c-6.51,1.32-9.76,2-16.26,3.44l3.37,15.27Z" transform="translate(-0.05 -0.23)"/><path class="cls-1" d="M135.06,43.6l.35,2.1c-8.72,1.46-13.07,2.24-21.76,3.91l-6.19-32.26c8.83-1.7,13.25-2.49,22.11-4l.35,2.1c-7.87,1.32-11.79,2-19.64,3.51l2.4,12.68c6.76-1.28,10.15-1.89,16.93-3l.34,2c-6.77,1.15-10.14,1.76-16.89,3l2.54,13.41C123.37,45.59,127.26,44.9,135.06,43.6Z" transform="translate(-0.05 -0.23)"/><path class="cls-1" d="M163.38,39.31l.29,2.11c-8.75,1.19-13.12,1.83-21.85,3.23l-5.19-32.44c8.87-1.42,13.31-2.08,22.19-3.28l.29,2.11c-7.89,1.07-11.84,1.65-19.71,2.89l2,12.75c6.79-1.07,10.19-1.57,17-2.51l.28,2c-6.79.94-10.18,1.44-17,2.51l2.12,13.48C151.65,40.94,155.56,40.37,163.38,39.31Z" transform="translate(-0.05 -0.23)"/><path class="cls-1" d="M170.1,40.57,165.92,8l2.45-.31,3.83,30.48c7.87-1,11.81-1.44,19.69-2.26L192.1,38C183.29,38.93,178.89,39.44,170.1,40.57Z" transform="translate(-0.05 -0.23)"/><path class="cls-1" d="M227.51,4.24c-5,.31-7.49.49-12.49.87q1.17,15.32,2.33,30.63l-2.37.18L212.57,5.3c-5,.39-7.49.61-12.48,1.07l-.19-2.12c11-1,16.48-1.44,27.47-2.13Z" transform="translate(-0.05 -0.23)"/><path class="cls-1" d="M259.18.65q.48,16.42,1,32.84l-2.37.07c-.2-6.29-.3-9.43-.5-15.72-8.48.27-12.72.46-21.2.92l.86,15.71-2.37.13L232.67,1.8l2.46-.14.82,15c8.5-.47,12.75-.65,21.25-.92-.19-6-.29-9-.48-15Z" transform="translate(-0.05 -0.23)"/><path class="cls-1" d="M290.79,31c0,.85,0,1.28,0,2.13-8.81,0-13.22,0-22,.18q-.33-16.42-.66-32.84C277,.24,281.52.21,290.47.24c0,.85,0,1.28,0,2.13-7.95,0-11.92,0-19.87.14l.23,12.91c6.85-.12,10.28-.15,17.13-.14,0,.81,0,1.22,0,2-6.84,0-10.26,0-17.1.14.1,5.46.14,8.19.24,13.65C279,31,282.91,30.93,290.79,31Z" transform="translate(-0.05 -0.23)"/><path class="cls-1" d="M331.33,32l-.1,2.13c-8.8-.42-13.21-.58-22-.79q.39-16.42.78-32.84c8.95.21,13.42.37,22.37.8l-.1,2.13c-7.94-.38-11.92-.52-19.86-.73l-.34,12.91c6.85.18,10.28.3,17.13.61l-.09,2c-6.83-.31-10.25-.43-17.09-.61l-.36,13.65C319.52,31.48,323.46,31.63,331.33,32Z" transform="translate(-0.05 -0.23)"/><path class="cls-1" d="M341.7,6.23,340.07,34.6l-2.37-.13q.9-16.4,1.8-32.8l1.88.1q11.11,15,21.61,30.49l2.37-28.82,2.45.2L365,36.37l-2.18-.18Q352.57,21,341.7,6.23Z" transform="translate(-0.05 -0.23)"/><path class="cls-1" d="M395.79,37.36l-.25,2.11c-8.76-1-13.15-1.5-21.93-2.33l3.08-32.71c8.92.84,13.38,1.31,22.28,2.36l-.25,2.11c-7.91-.93-11.87-1.36-19.79-2.12L377.7,19.63c6.83.66,10.24,1,17.06,1.81l-.23,2c-6.8-.78-10.21-1.15-17-1.8l-1.32,13.59C384,36,388,36.43,395.79,37.36Z" transform="translate(-0.05 -0.23)"/><path class="cls-1" d="M402,40.25l4.09-32.6c5.66.71,8.48,1.09,14.13,1.88A9.09,9.09,0,0,1,424.05,11a10.07,10.07,0,0,1,2.79,2.77,11,11,0,0,1,1.56,3.55,9.67,9.67,0,0,1,.18,3.75,10.83,10.83,0,0,1-1.09,3.37,10.3,10.3,0,0,1-2,2.76,9.07,9.07,0,0,1-6.17,2.51c2.59,5.53,3.87,8.3,6.37,13.85l-2.72-.41c-2.45-5.38-3.69-8.07-6.23-13.43-4.31-.6-6.47-.89-10.78-1.45l-1.58,12.3ZM406.2,26.1c4.68.6,7,.91,11.7,1.57a6.3,6.3,0,0,0,3-.27,7.48,7.48,0,0,0,2.52-1.48,8.09,8.09,0,0,0,1.81-2.35,9.13,9.13,0,0,0,.94-2.88A7.88,7.88,0,0,0,426,17.6a8.42,8.42,0,0,0-1.24-2.78,8.11,8.11,0,0,0-2.13-2.11,6.63,6.63,0,0,0-2.84-1.08c-4.62-.65-6.94-1-11.57-1.55Z" transform="translate(-0.05 -0.23)"/><path class="cls-1" d="M457,43.63c-3.83,2.93-7.8,4-12,3.3a14,14,0,0,1-5.91-2.46,16.2,16.2,0,0,1-4.27-4.55,18.31,18.31,0,0,1-2.36-5.81,16.64,16.64,0,0,1-.22-6.22,17.24,17.24,0,0,1,6.19-10.73A15.45,15.45,0,0,1,444,14.34a14.48,14.48,0,0,1,6.48-.28,18.15,18.15,0,0,1,4.46,1.33,14.14,14.14,0,0,1,3.35,2.11,11.47,11.47,0,0,1,2.34,2.74A13.86,13.86,0,0,1,462,23.44l-2.2.77a10.64,10.64,0,0,0-3.68-5.45A13.94,13.94,0,0,0,450,16.19a11.83,11.83,0,0,0-5.63.31,13.24,13.24,0,0,0-4.67,2.56,14.37,14.37,0,0,0-3.34,4.15,15.94,15.94,0,0,0-1.73,5.11,14.87,14.87,0,0,0,.16,5.62,15.14,15.14,0,0,0,2.08,5,14,14,0,0,0,3.67,3.82,12,12,0,0,0,5,2,12.83,12.83,0,0,0,5.94-.36,17.57,17.57,0,0,0,6-3.37l1.16-6.23c-3-.56-4.51-.83-7.52-1.37l.33-1.87c3.84.68,5.76,1,9.59,1.76l-3,15.69-2-.38Z" transform="translate(-0.05 -0.23)"/><path class="cls-1" d="M469,17.71c3.33,8.06,4.95,12.09,8.09,20.17,6.11-6.16,9.21-9.22,15.5-15.28l2.7.6c-7.09,6.8-10.58,10.23-17.45,17.15l-2.53,12.14L473,52l2.52-12.24c-3.54-9-5.37-13.56-9.15-22.57Z" transform="translate(-0.05 -0.23)"/></g></g></svg>