<svg xmlns="http://www.w3.org/2000/svg" viewBox="0 0 591.06 440.88"><defs><style>.cls-1{fill:#fff;}</style></defs><title>pandora</title><g id="Layer_2" data-name="Layer 2"><g id="Layer_1-2" data-name="Layer 1"><path class="cls-1" d="M61.14,162v40.08H40.22V120.41a21.37,21.37,0,0,1,1.17-6.76,22.69,22.69,0,0,1,3.36-6.47A20.65,20.65,0,0,1,50,102.27a11.57,11.57,0,0,1,6.51-2H84.25a11.35,11.35,0,0,1,2.56.52q1.83.51,2.56.81,12.29,5.45,12.29,18.86v20.48a21.6,21.6,0,0,1-1.76,8.55q-5.12,11.79-18.58,12.23c-.58,0-1.51,0-2.78.07s-2.68.07-4.24.07-3,0-4.68.07-3.17.07-4.53.07Zm.15-41.1v19.75h19.6V120.91Z" transform="translate(-2.93 -0.23)"/><path class="cls-1" d="M116.28,130.69a33.07,33.07,0,0,1,1.24-8.89,32.28,32.28,0,0,1,3.58-8.3,31,31,0,0,1,5.78-6.9,24.43,24.43,0,0,1,7.68-4.7q1.61-.59,3.51-1.1a14,14,0,0,1,3.66-.51h28.08a5.78,5.78,0,0,1,3.22,1,9.09,9.09,0,0,1,2.49,2.42,12.61,12.61,0,0,1,1.61,3.23,10.4,10.4,0,0,1,.58,3.23v92H157.09V162H137.2v40.08H116.58v-8.23q0-5.58-.07-12.63t-.07-14.69q0-7.93-.07-14.91t-.07-12.56v-8.37Zm40.66-9.78H144.37a4.67,4.67,0,0,0-2.41.75,10.1,10.1,0,0,0-2.27,1.87A10.4,10.4,0,0,0,138,126a5.8,5.8,0,0,0-.66,2.54v12.12h19.6Z" transform="translate(-2.93 -0.23)"/><path class="cls-1" d="M202,100.29a13.55,13.55,0,0,1,5.56,1.17,8.47,8.47,0,0,1,4.09,3.95l21.21,42v-47.1H253V194.6a4.07,4.07,0,0,1-.58,1.69q-.59,1.1-.88,1.69a6.56,6.56,0,0,1-3.51,3.31,13.43,13.43,0,0,1-4.68.81,14.84,14.84,0,0,1-5.63-1.1,7.38,7.38,0,0,1-4-4l-20.92-41.25v46.37H192.34V107.78a5.06,5.06,0,0,1,.51-1.62c.34-.78.61-1.37.8-1.76a7.22,7.22,0,0,1,3.58-3.3A13.24,13.24,0,0,1,202,100.29Z" transform="translate(-2.93 -0.23)"/><path class="cls-1" d="M273.37,201.8a10.2,10.2,0,0,1-3.8-2.86,6.49,6.49,0,0,1-1.9-4.33V107.77a5.59,5.59,0,0,1,.66-2.49,10.22,10.22,0,0,1,1.68-2.42,9.46,9.46,0,0,1,2.34-1.84,5.14,5.14,0,0,1,2.49-.73h26a10,10,0,0,1,3.95,1,22.69,22.69,0,0,1,3.51,1.83,33.33,33.33,0,0,1,8.63,7.33,42.84,42.84,0,0,1,5.85,9.32,52.63,52.63,0,0,1,3.58,10.63q1.24,5.57,2,11.15.14.73.29,2.42t.15,2V181.7q0,13.64-12.29,19.07-.73.29-2.56.81a11.25,11.25,0,0,1-2.56.51H274.83a3.18,3.18,0,0,1-.66-.15A3.23,3.23,0,0,0,273.37,201.8Zm15.07-80.74v60.26h19.75V175q0-4.7-.07-9.85t-.07-9.7V149q0-3.23-.29-7.2a52,52,0,0,0-1.17-7.79,30.26,30.26,0,0,0-2.63-7.2,14.93,14.93,0,0,0-4.68-5.44,1,1,0,0,0-.73-.29Z" transform="translate(-2.93 -0.23)"/><path class="cls-1" d="M343.73,185.85v-7.61q0-5.12-.07-11.48t-.07-13.38q0-7.16-.07-13.6t-.07-11.41v-7.9a21.21,21.21,0,0,1,1.17-6.73,23.57,23.57,0,0,1,3.36-6.51,20.12,20.12,0,0,1,5.19-5,11.6,11.6,0,0,1,6.51-2h27.79a10.16,10.16,0,0,1,2.56.58q1.83.59,2.56.88,12.29,5.41,12.29,18.58v61.14a21.67,21.67,0,0,1-1.54,8.19,19.28,19.28,0,0,1-4.24,6.51,20.42,20.42,0,0,1-14.55,5.92H363.76a20.39,20.39,0,0,1-13-4.39A19.25,19.25,0,0,1,343.73,185.85Zm20.77-64.8v60h19.6v-60Z" transform="translate(-2.93 -0.23)"/><path class="cls-1" d="M419.49,120.53a21.31,21.31,0,0,1,1.17-6.75,23.71,23.71,0,0,1,3.36-6.53,20.13,20.13,0,0,1,5.19-5,11.57,11.57,0,0,1,6.51-2h27.94a13.72,13.72,0,0,1,5.78,1.39,20.74,20.74,0,0,1,5.49,3.74,22,22,0,0,1,4.1,5.21,11.48,11.48,0,0,1,1.61,5.65v28.6a12.11,12.11,0,0,1-1.9,6.45,15.47,15.47,0,0,1-4.53,4.84c.29.39.49.59.58.59a22.05,22.05,0,0,1,4.1,4.84,11.33,11.33,0,0,1,1.75,6.16v34.33H460V171.23q-.88-1-1.17-1.32a22.65,22.65,0,0,0-8.63-5.78,28.28,28.28,0,0,0-10.24-2v39.93H419.78V192.7q0-6.31-.07-14.38t-.07-16.87q0-8.8-.07-16.87t-.07-14.37v-9.68Zm20.77.53v19.31h19.6V121.06Z" transform="translate(-2.93 -0.23)"/><path class="cls-1" d="M495.26,130.69a33.07,33.07,0,0,1,1.24-8.89,32.28,32.28,0,0,1,3.58-8.3,31,31,0,0,1,5.78-6.9,24.43,24.43,0,0,1,7.68-4.7q1.61-.59,3.51-1.1a14,14,0,0,1,3.66-.51h28.08a5.78,5.78,0,0,1,3.22,1,9.09,9.09,0,0,1,2.49,2.42,12.61,12.61,0,0,1,1.61,3.23,10.4,10.4,0,0,1,.58,3.23v92H536.07V162H516.17v40.08H495.55v-8.23q0-5.58-.07-12.63t-.07-14.69q0-7.93-.07-14.91t-.07-12.56v-8.37Zm40.66-9.78H523.34a4.67,4.67,0,0,0-2.41.75,10.1,10.1,0,0,0-2.27,1.87A10.4,10.4,0,0,0,517,126a5.8,5.8,0,0,0-.66,2.54v12.12h19.6Z" transform="translate(-2.93 -0.23)"/><path class="cls-1" d="M2.93,235.09H23.4v81h20v-81H64.07V320.9a11.32,11.32,0,0,1-1.61,5.72,22.62,22.62,0,0,1-4.1,5.13,20.68,20.68,0,0,1-5.49,3.74,13.67,13.67,0,0,1-5.78,1.39H19.16a9.55,9.55,0,0,1-3.88-1,33.54,33.54,0,0,1-3.58-1.83A14,14,0,0,1,8,331a19.24,19.24,0,0,1-2.78-4.33,24.22,24.22,0,0,1-1.68-4.91,22.05,22.05,0,0,1-.58-4.91Z" transform="translate(-2.93 -0.23)"/><path class="cls-1" d="M88.34,235.09a13.55,13.55,0,0,1,5.56,1.17A8.48,8.48,0,0,1,98,240.21l21.21,42v-47.1h20.19V329.4a4.07,4.07,0,0,1-.58,1.69q-.59,1.1-.88,1.69a6.56,6.56,0,0,1-3.51,3.31,13.43,13.43,0,0,1-4.68.81,14.84,14.84,0,0,1-5.63-1.1,7.38,7.38,0,0,1-4-4L99.17,290.52v46.37H78.69V242.58A5.07,5.07,0,0,1,79.2,241c.34-.78.61-1.37.8-1.76a7.23,7.23,0,0,1,3.58-3.3A13.25,13.25,0,0,1,88.34,235.09Z" transform="translate(-2.93 -0.23)"/><path class="cls-1" d="M154,316.41h20v-60.7H154V235.09h61.14v20.62h-20v60.7h20v20.48H154Z" transform="translate(-2.93 -0.23)"/><path class="cls-1" d="M229.78,258V235.09h20.48v20L260.35,287h.29l9.65-30.86V235.09h20.62V259l-20,70.41a10.16,10.16,0,0,1-4,5.57,11.57,11.57,0,0,1-12.73,0,10.15,10.15,0,0,1-4-5.57Z" transform="translate(-2.93 -0.23)"/><path class="cls-1" d="M366.69,235.09v20.62H326.32v19.75h40.37v21.06H326.32v19.89h40.37v20.48H322.52a13.65,13.65,0,0,1-5.78-1.39,20.6,20.6,0,0,1-5.49-3.74,22.48,22.48,0,0,1-4.1-5.13,11.29,11.29,0,0,1-1.61-5.72V252.1a13.78,13.78,0,0,1,1.39-5.79,20.64,20.64,0,0,1,3.73-5.5,22.5,22.5,0,0,1,5.12-4.11,11.23,11.23,0,0,1,5.7-1.61Z" transform="translate(-2.93 -0.23)"/><path class="cls-1" d="M381.32,255.33a21.32,21.32,0,0,1,1.17-6.75,23.7,23.7,0,0,1,3.36-6.53,20.13,20.13,0,0,1,5.19-5,11.57,11.57,0,0,1,6.51-2h27.94a13.7,13.7,0,0,1,5.78,1.39,20.71,20.71,0,0,1,5.49,3.74,22,22,0,0,1,4.1,5.21,11.48,11.48,0,0,1,1.61,5.65v28.6a12.11,12.11,0,0,1-1.9,6.45A15.46,15.46,0,0,1,436,291c.29.39.49.59.58.59a22,22,0,0,1,4.1,4.84,11.33,11.33,0,0,1,1.75,6.16v34.33H421.83V306q-.88-1-1.17-1.32a22.64,22.64,0,0,0-8.63-5.78,28.28,28.28,0,0,0-10.24-2v39.93H381.61V327.5q0-6.31-.07-14.37t-.07-16.87q0-8.8-.07-16.87T381.32,265v-9.68Zm20.77.53v19.31h19.6V255.86Z" transform="translate(-2.93 -0.23)"/><path class="cls-1" d="M457.08,316.41h40.37V296.67q-1.17,0-4-.07t-6-.07q-3.22,0-6.07-.07t-4-.07a21.35,21.35,0,0,1-14.55-5.79q-5.78-5.5-5.78-14.59V254.88a21.2,21.2,0,0,1,3.07-11.22,17.11,17.11,0,0,1,9.21-7.26q.88-.29,2.56-.8a9.53,9.53,0,0,1,2.41-.51h43.88v20.62H477.85v19.6q1.17,0,4.1.07t6.14.07h10.38q13,.44,18.28,12.35.29.73.88,2.57a10.22,10.22,0,0,1,.58,2.57v27.93a11.35,11.35,0,0,1-1.61,5.73,22.7,22.7,0,0,1-4.1,5.14,20.65,20.65,0,0,1-5.49,3.75,13.65,13.65,0,0,1-5.78,1.4H457.08Z" transform="translate(-2.93 -0.23)"/><path class="cls-1" d="M594,235.09v20.62H553.62v19.75H594v21.06H553.62v19.89H594v20.48H549.81A13.65,13.65,0,0,1,544,335.5a20.6,20.6,0,0,1-5.49-3.74,22.48,22.48,0,0,1-4.1-5.13,11.29,11.29,0,0,1-1.61-5.72V252.1a13.78,13.78,0,0,1,1.39-5.79,20.64,20.64,0,0,1,3.73-5.5,22.5,22.5,0,0,1,5.12-4.11,11.23,11.23,0,0,1,5.7-1.61Z" transform="translate(-2.93 -0.23)"/><path class="cls-1" d="M87.44,417.73l7.17-32.06c8.45,1.89,12.68,2.78,21.16,4.47l-.42,2.09c-7.56-1.51-11.33-2.3-18.87-4L93.66,401c6.49,1.43,9.74,2.12,16.24,3.44l-.4,2c-6.52-1.32-9.78-2-16.28-3.45l-3.37,15.27Z" transform="translate(-2.93 -0.23)"/><path class="cls-1" d="M115.61,423.59l6.21-32.26c5.42,1,8.13,1.55,13.56,2.51a8.71,8.71,0,0,1,3.67,1.54,10,10,0,0,1,2.63,2.82,11.23,11.23,0,0,1,1.44,3.58,9.89,9.89,0,0,1,.11,3.75,10.85,10.85,0,0,1-1.14,3.35,10.13,10.13,0,0,1-2.09,2.72,9,9,0,0,1-6.26,2.35c2.45,5.62,3.69,8.42,6.23,14l-2.81-.47c-2.45-5.45-3.66-8.17-6-13.63-4.33-.77-6.49-1.17-10.81-2L118,424.05Zm5.15-13.86c4.67.89,7,1.31,11.67,2.14a6.26,6.26,0,0,0,3-.17,7.37,7.37,0,0,0,2.56-1.41,8,8,0,0,0,1.86-2.31,9.16,9.16,0,0,0,1-2.86,8,8,0,0,0-.07-3.09,8.56,8.56,0,0,0-1.14-2.8,8.06,8.06,0,0,0-2-2.16,6.38,6.38,0,0,0-2.72-1.16c-4.47-.79-6.7-1.2-11.15-2Z" transform="translate(-2.93 -0.23)"/><path class="cls-1" d="M160,431.31a14.48,14.48,0,0,1-6.24-2.38A16.28,16.28,0,0,1,147,418.69a17.07,17.07,0,0,1-.15-6.26,16.83,16.83,0,0,1,2.19-6,17.83,17.83,0,0,1,4.09-4.74,16,16,0,0,1,5.44-2.88,14.29,14.29,0,0,1,6.3-.45,14,14,0,0,1,6.06,2.33,16.19,16.19,0,0,1,4.36,4.44,17.88,17.88,0,0,1,2.46,5.71,17,17,0,0,1,.36,6.13,16.66,16.66,0,0,1-2,6.13,16.93,16.93,0,0,1-4,4.82,16,16,0,0,1-5.53,2.94A14.75,14.75,0,0,1,160,431.31Zm-10.81-18.49a15.34,15.34,0,0,0,.11,5.52,14.39,14.39,0,0,0,2,5,13.49,13.49,0,0,0,3.77,3.83,12.37,12.37,0,0,0,5.26,2,12.05,12.05,0,0,0,5.69-.45A13.27,13.27,0,0,0,170.7,426a15.38,15.38,0,0,0,2.52-19.83,13.75,13.75,0,0,0-3.68-3.75,11.62,11.62,0,0,0-5-1.93,11.86,11.86,0,0,0-5.55.44,13.61,13.61,0,0,0-4.63,2.64,15.67,15.67,0,0,0-5.14,9.24Z" transform="translate(-2.93 -0.23)"/><path class="cls-1" d="M213.41,437.31l2.51-28.3c-6,8.37-9.07,12.53-15.32,20.8l-1.53-.16c-4.42-9.38-6.57-14.08-10.74-23.5L185,434.37l-2.45-.29,3.95-32.61,2.36.28c4.38,10,6.64,15,11.3,24.9,6.6-8.77,9.83-13.18,16.16-22.06l2.37.21-2.82,32.73Z" transform="translate(-2.93 -0.23)"/><path class="cls-1" d="M260.95,409.61c-4.85-.2-7.28-.31-12.12-.57l-1.65,30.68-2.45-.13q.86-15.34,1.73-30.68c-4.85-.27-7.27-.42-12.12-.76l.15-2.12c10.62.73,15.93,1,26.56,1.46Z" transform="translate(-2.93 -0.23)"/><path class="cls-1" d="M291.76,408.23q-.13,16.43-.26,32.85l-2.46,0c.07-6.29.1-9.44.17-15.73-8.5-.09-12.74-.18-21.24-.46l-.52,15.72-2.46-.08,1.16-32.83,2.37.08c-.2,6-.29,9-.49,15,8.47.28,12.71.37,21.19.46.06-6,.09-9,.16-15Z" transform="translate(-2.93 -0.23)"/><path class="cls-1" d="M323.15,438.69l.05,2.13c-9.12.22-13.68.28-22.79.29q0-16.43,0-32.85c8.64,0,13-.07,21.6-.27l.05,2.13c-7.71.19-11.56.24-19.27.27,0,5.16,0,7.75,0,12.91,6.83,0,10.25-.07,17.08-.22l0,2c-6.84.15-10.27.19-17.11.22,0,5.46,0,8.19.05,13.65C311,438.95,315,438.89,323.15,438.69Z" transform="translate(-2.93 -0.23)"/><path class="cls-1" d="M349.76,406.9l2-.11q7.92,16.05,16.28,31.88l-2.6.18c-2.2-4.19-3.29-6.29-5.45-10.49-6.45.41-9.68.59-16.14.89-1.68,4.41-2.54,6.62-4.26,11l-2.65.11Q343.6,423.73,349.76,406.9Zm9.49,19.56c-3.38-6.69-5-10-8.31-16.75-2.57,7-3.88,10.55-6.56,17.57C350.33,427,353.3,426.83,359.25,426.46Z" transform="translate(-2.93 -0.23)"/><path class="cls-1" d="M366.82,405.82q7.43,14.46,15.09,28.79,5.12-15.44,10-30.94l2.5-.25q-5.31,17.1-11.08,34l-2.26.19q-8.59-15.71-16.75-31.66Z" transform="translate(-2.93 -0.23)"/><path class="cls-1" d="M407,402.06l2-.24q8.89,15.54,18.22,30.82l-2.58.34c-2.46-4-3.67-6.08-6.09-10.14-6.42.8-9.64,1.18-16.07,1.88-1.41,4.51-2.13,6.76-3.59,11.27l-2.64.27Q401.84,419.23,407,402.06ZM417.64,421c-3.78-6.47-5.65-9.71-9.33-16.21-2.14,7.18-3.24,10.77-5.48,17.94C408.76,422.08,411.72,421.74,417.64,421Z" transform="translate(-2.93 -0.23)"/><path class="cls-1" d="M447.89,398.57c-4.81.77-7.21,1.14-12,1.85l4.46,30.4-2.44.35-4.39-30.41c-4.82.69-7.23,1-12,1.66l-.28-2.11c10.57-1.39,15.84-2.15,26.38-3.84Z" transform="translate(-2.93 -0.23)"/><path class="cls-1" d="M459.67,394.44l2-.35q9.78,15,20,29.73l-2.57.49c-2.69-3.9-4-5.86-6.66-9.77-6.38,1.17-9.58,1.73-16,2.79-1.16,4.58-1.75,6.87-3,11.45l-2.63.42Q455.52,411.88,459.67,394.44Zm11.75,18.3c-4.15-6.24-6.2-9.37-10.25-15.65-1.73,7.29-2.63,10.94-4.47,18.22C462.6,414.33,465.55,413.82,471.43,412.75Z" transform="translate(-2.93 -0.23)"/><path class="cls-1" d="M486.8,422.83l-6.35-32.23c5.42-1.07,8.12-1.62,13.53-2.77a8.74,8.74,0,0,1,4,0,10,10,0,0,1,3.5,1.63,11.23,11.23,0,0,1,2.69,2.77,9.87,9.87,0,0,1,1.51,3.43,10.82,10.82,0,0,1,.2,3.53,10.11,10.11,0,0,1-.92,3.31,9,9,0,0,1-4.93,4.53c4.38,4.29,6.59,6.42,11.06,10.65l-2.79.62c-4.32-4.13-6.47-6.2-10.71-10.37-4.31.91-6.46,1.35-10.77,2.21l2.43,12.16Zm-.43-14.77c4.66-.93,7-1.41,11.64-2.4a6.28,6.28,0,0,0,2.75-1.3,7.38,7.38,0,0,0,1.85-2.27,8,8,0,0,0,.86-2.84,9.14,9.14,0,0,0-.15-3,8,8,0,0,0-1.23-2.83,8.57,8.57,0,0,0-2.11-2.17,8.08,8.08,0,0,0-2.67-1.24,6.4,6.4,0,0,0-3-.05c-4.44.94-6.67,1.4-11.12,2.29Z" transform="translate(-2.93 -0.23)"/><path class="cls-1" d="M41.54,61.53,34.38,29.47c8.68-1.94,13-2.87,21.74-4.65l.43,2.08c-7.73,1.58-11.6,2.4-19.31,4.11l2.82,12.74c6.48-1.43,9.72-2.13,16.22-3.47l.41,2c-6.48,1.34-9.72,2-16.19,3.47L43.88,61Z" transform="translate(-2.93 -0.23)"/><path class="cls-1" d="M68.75,55.78,62.34,23.56l2.41-.48,6.34,32.23Z" transform="translate(-2.93 -0.23)"/><path class="cls-1" d="M102.85,44.31c-2.58,4.06-5.94,6.45-10.12,7.19a14,14,0,0,1-6.4-.3,16.14,16.14,0,0,1-5.55-2.83,18.25,18.25,0,0,1-4.19-4.67,16.64,16.64,0,0,1-2.3-5.78,17.32,17.32,0,0,1,2.18-12.19,15.43,15.43,0,0,1,4.21-4.52,14.34,14.34,0,0,1,5.95-2.46,18,18,0,0,1,4.61-.27,14,14,0,0,1,3.85.84,11.43,11.43,0,0,1,3.12,1.77,13.9,13.9,0,0,1,2.43,2.52l-1.79,1.47a10.63,10.63,0,0,0-5.29-3.86A13.8,13.8,0,0,0,87,20.9a11.73,11.73,0,0,0-5.16,2.2,13.23,13.23,0,0,0-3.5,4,14.43,14.43,0,0,0-1.73,5,16,16,0,0,0,.1,5.4,14.88,14.88,0,0,0,2,5.24,15.1,15.1,0,0,0,3.65,4,14,14,0,0,0,4.75,2.35,12,12,0,0,0,5.37.23A12.77,12.77,0,0,0,98,47a17.46,17.46,0,0,0,4.47-5.22l-1-6.25-7.5,1.28-.33-1.87c3.83-.67,5.74-1,9.57-1.63L105.73,49l-2,.34Z" transform="translate(-2.93 -0.23)"/><path class="cls-1" d="M133.56,11.59,138,44.13l-2.36.33-2.18-15.58c-8.39,1.17-12.59,1.8-21,3.12L115,47.54l-2.35.37-5.19-32.44,2.42-.38,2.34,14.81c8.39-1.33,12.59-2,21-3.13l-2.07-14.85Z" transform="translate(-2.93 -0.23)"/><path class="cls-1" d="M166.2,9.68c-4.95.55-7.42.83-12.36,1.43l3.68,30.5-2.36.29-3.75-30.49c-4.94.61-7.41.92-12.35,1.58l-.28-2.11C149.65,9.43,155.08,8.77,166,7.57Z" transform="translate(-2.93 -0.23)"/><path class="cls-1" d="M204.62,6.06c-5,.39-7.43.59-12.39,1l2.71,30.6-2.37.21L189.8,7.31c-5,.45-7.43.69-12.38,1.19l-.21-2.12c10.89-1.1,16.34-1.59,27.24-2.44Z" transform="translate(-2.93 -0.23)"/><path class="cls-1" d="M236,1.88l1.71,32.81-2.37.13-.85-15.71c-8.45.46-12.67.72-21.11,1.33l1.13,15.69-2.37.17L209.7,3.54l2.44-.18,1.07,15c8.45-.61,12.68-.87,21.14-1.33l-.81-15Z" transform="translate(-2.93 -0.23)"/><path class="cls-1" d="M268.26,31.36l.06,2.13c-8.81.23-13.21.39-22,.78L244.83,1.45c8.88-.4,13.32-.56,22.2-.79l.06,2.13c-7.89.21-11.83.35-19.72.68l.55,12.9c6.82-.29,10.23-.41,17.05-.61l.06,2c-6.81.19-10.22.32-17,.61L248.59,32C256.45,31.7,260.39,31.57,268.26,31.36Z" transform="translate(-2.93 -0.23)"/><path class="cls-1" d="M286.75,33.15q-.17-16.42-.35-32.85c5.65-.06,8.47-.07,14.12-.07a8.94,8.94,0,0,1,4,.89,10,10,0,0,1,3.12,2.35,11,11,0,0,1,2,3.3,9.75,9.75,0,0,1,.7,3.69,10.91,10.91,0,0,1-.6,3.49,10.3,10.3,0,0,1-1.63,3,9.05,9.05,0,0,1-2.51,2.21,8.93,8.93,0,0,1-3.21,1.14c3.32,5.12,5,7.68,8.21,12.82l-2.75,0c-3.17-5-4.77-7.47-8-12.43-4.33,0-6.49,0-10.82,0l.11,12.4ZM289,18.55c4.69,0,7,0,11.74,0a6.22,6.22,0,0,0,2.93-.69A7.43,7.43,0,0,0,305.94,16a8.09,8.09,0,0,0,1.46-2.58,9.19,9.19,0,0,0,.52-3,8,8,0,0,0-.57-3,8.43,8.43,0,0,0-1.6-2.58A8.06,8.06,0,0,0,303.36,3a6.52,6.52,0,0,0-2.94-.68c-4.62,0-6.94,0-11.56,0C288.92,8.86,288.95,12.09,289,18.55Z" transform="translate(-2.93 -0.23)"/><path class="cls-1" d="M339.06,31.63,339,33.75c-8.81-.3-13.21-.4-22-.54q.25-16.42.49-32.85c8.88.13,13.32.24,22.2.54L339.59,3c-7.89-.26-11.83-.36-19.73-.5-.09,5.16-.13,7.74-.22,12.91,6.82.12,10.24.2,17.06.41l-.06,2c-6.81-.21-10.22-.3-17-.41-.09,5.46-.14,8.19-.23,13.65C327.25,31.26,331.19,31.36,339.06,31.63Z" transform="translate(-2.93 -0.23)"/><path class="cls-1" d="M365.48,7.51c-2.06-2.49-5.1-3.84-9.11-4-3.31-.16-5.75.35-7.31,1.51a6,6,0,0,0-2.46,4.83,5.41,5.41,0,0,0,.47,2.63,4.85,4.85,0,0,0,1.7,1.85,12,12,0,0,0,3,1.38c1.21.39,2.68.82,4.39,1.27s3.38.95,4.82,1.47a14.11,14.11,0,0,1,3.63,1.88,7.15,7.15,0,0,1,2.21,2.63,7.43,7.43,0,0,1,.61,3.7,8,8,0,0,1-1.08,3.74,7.7,7.7,0,0,1-2.58,2.57A11.54,11.54,0,0,1,360,34.37a19.74,19.74,0,0,1-4.84.32,19,19,0,0,1-12.89-5.45l1.33-1.85a15.43,15.43,0,0,0,5,3.65,17.71,17.71,0,0,0,6.75,1.57,12.64,12.64,0,0,0,6.86-1.23,5.29,5.29,0,0,0,2.71-4.63,5.4,5.4,0,0,0-.5-2.78,5.85,5.85,0,0,0-1.84-2.07,13,13,0,0,0-3.2-1.6c-1.3-.47-2.82-.93-4.56-1.38s-3.34-.92-4.69-1.39a12.82,12.82,0,0,1-3.38-1.71,6.41,6.41,0,0,1-2-2.37,7.18,7.18,0,0,1-.58-3.4,8.46,8.46,0,0,1,1-3.9,8.32,8.32,0,0,1,2.57-2.79,11,11,0,0,1,3.85-1.62,18.26,18.26,0,0,1,4.9-.38,16.79,16.79,0,0,1,5.83,1.24,13.77,13.77,0,0,1,4.52,3.14Z" transform="translate(-2.93 -0.23)"/><path class="cls-1" d="M372.9,35.38,375,2.6l2.44.15-2.12,32.78Z" transform="translate(-2.93 -0.23)"/><path class="cls-1" d="M405.51,10.38c-2-2.56-5-4-9-4.33-3.3-.27-5.76.16-7.36,1.26a6,6,0,0,0-2.62,4.75,5.4,5.4,0,0,0,.38,2.65,4.85,4.85,0,0,0,1.64,1.91,12,12,0,0,0,3,1.48c1.2.43,2.65.91,4.35,1.41s3.35,1.06,4.77,1.63a14.12,14.12,0,0,1,3.57,2,7.15,7.15,0,0,1,2.13,2.7,7.43,7.43,0,0,1,.49,3.71,8,8,0,0,1-1.21,3.7A7.7,7.7,0,0,1,403,35.72,11.55,11.55,0,0,1,399.11,37a19.77,19.77,0,0,1-4.85.15,19,19,0,0,1-12.71-5.87l1.39-1.8a15.44,15.44,0,0,0,4.88,3.81,17.73,17.73,0,0,0,6.7,1.8,12.66,12.66,0,0,0,6.9-1,5.29,5.29,0,0,0,2.86-4.53,5.39,5.39,0,0,0-.41-2.8,5.85,5.85,0,0,0-1.77-2.13A13,13,0,0,0,399,23c-1.28-.51-2.79-1-4.52-1.53s-3.31-1-4.64-1.54a12.83,12.83,0,0,1-3.33-1.83,6.4,6.4,0,0,1-1.94-2.44,7.18,7.18,0,0,1-.47-3.42,8.46,8.46,0,0,1,1.16-3.86,8.32,8.32,0,0,1,2.66-2.71,11.06,11.06,0,0,1,3.9-1.49,18.28,18.28,0,0,1,4.92-.22,16.81,16.81,0,0,1,5.79,1.43,13.78,13.78,0,0,1,4.42,3.29Z" transform="translate(-2.93 -0.23)"/><path class="cls-1" d="M438.31,10.37c-4.94-.57-7.42-.84-12.36-1.36l-3.21,30.56-2.36-.25,3.15-30.56c-4.95-.51-7.42-.75-12.38-1.21l.2-2.12c10.9,1,16.34,1.58,27.22,2.83Z" transform="translate(-2.93 -0.23)"/><path class="cls-1" d="M451.07,9.77l2.09.27q5,17.17,9.71,34.44l-2.5-.35c-1.24-4.54-1.87-6.81-3.14-11.35-6.33-.85-9.5-1.25-15.83-2-2.37,4.08-3.54,6.12-5.88,10.21L433,40.68Q441.85,25.12,451.07,9.77Zm5.77,21c-2-7.21-3-10.81-5.08-18-3.87,6.45-5.78,9.68-9.56,16.16C448.05,29.61,451,30,456.84,30.76Z" transform="translate(-2.93 -0.23)"/><path class="cls-1" d="M474.33,17.42l-4.11,28.11-2.36-.34,4.69-32.52,1.85.27q9.69,16,18.88,32.21L498,16.62l2.42.4L495,49.42l-2.17-.36Q483.82,33.1,474.33,17.42Z" transform="translate(-2.93 -0.23)"/><path class="cls-1" d="M504.11,34.08a17.05,17.05,0,0,1,2.06-5.63,16.08,16.08,0,0,1,4-4.63A15.89,15.89,0,0,1,515.8,21a15.28,15.28,0,0,1,7-.19,14.22,14.22,0,0,1,7.27,3.43,12.73,12.73,0,0,1,3.71,6l-2.18.7a11,11,0,0,0-1.54-3.22,11.12,11.12,0,0,0-2.23-2.34,11.85,11.85,0,0,0-2.7-1.58,14.46,14.46,0,0,0-2.91-.88,12.37,12.37,0,0,0-5.89.21,13.34,13.34,0,0,0-4.73,2.51,14.12,14.12,0,0,0-3.36,4.08,15.76,15.76,0,0,0-1.76,4.93,15.06,15.06,0,0,0,.06,5.65,15.59,15.59,0,0,0,2,5.07,13.81,13.81,0,0,0,3.58,3.92A11.81,11.81,0,0,0,517,51.41a13.79,13.79,0,0,0,3.11.21,12.3,12.3,0,0,0,3.21-.56,12.53,12.53,0,0,0,3.06-1.46A10.83,10.83,0,0,0,529,47.17l1.84,1.36A11.09,11.09,0,0,1,528,51.3,14.59,14.59,0,0,1,524.34,53a15.69,15.69,0,0,1-4,.72,16.65,16.65,0,0,1-3.93-.25,13.41,13.41,0,0,1-5.87-2.59,16.77,16.77,0,0,1-4.14-4.67,18.11,18.11,0,0,1-2.23-5.89A17.26,17.26,0,0,1,504.11,34.08Z" transform="translate(-2.93 -0.23)"/><path class="cls-1" d="M557.34,59.45l-.46,2.08c-8.65-1.93-13-2.86-21.66-4.63l6.56-32.19c8.75,1.78,13.12,2.72,21.84,4.66l-.46,2.08c-7.75-1.73-11.63-2.56-19.4-4.16l-2.61,12.64c6.72,1.38,10.07,2.1,16.78,3.58l-.44,2c-6.69-1.48-10-2.19-16.75-3.58L538,55.3C545.74,56.89,549.61,57.73,557.34,59.45Z" transform="translate(-2.93 -0.23)"/></g></g></svg>