<svg xmlns="http://www.w3.org/2000/svg" viewBox="0 0 592.09 435.17"><defs><style>.cls-1{fill:#fff;}</style></defs><title>starworld_2</title><g id="Layer_2" data-name="Layer 2"><g id="Layer_1-2" data-name="Layer 1"><path class="cls-1" d="M113.28,50.55a10.56,10.56,0,0,0,3.08.64,13.31,13.31,0,0,0,3.74-.31A8.49,8.49,0,0,0,124.19,49,6.39,6.39,0,0,0,126,45.7a14.52,14.52,0,0,0,.17-4.76q-.29-2.75-1-6.15l-3.4-16.62,2.47-.5,3.35,16.63a65.53,65.53,0,0,1,1,6.86,15.45,15.45,0,0,1-.37,5.52,8.21,8.21,0,0,1-2.46,4A11.36,11.36,0,0,1,120.56,53,12.94,12.94,0,0,1,113,52.6Z" transform="translate(-2.93 -0.23)"/><path class="cls-1" d="M152.41,46.56a14.31,14.31,0,0,1-6.57-.31,17,17,0,0,1-5.62-2.83,17.23,17.23,0,0,1-4.21-4.7,17.6,17.6,0,0,1-2.32-5.92,16.72,16.72,0,0,1,0-6.51,17.44,17.44,0,0,1,2.36-6,16.11,16.11,0,0,1,4.42-4.62,15.12,15.12,0,0,1,6.17-2.51,14.78,14.78,0,0,1,6.84.33,16.33,16.33,0,0,1,5.72,3,17.48,17.48,0,0,1,4.11,4.84,16.85,16.85,0,0,1,2.1,5.88,17.21,17.21,0,0,1-.22,6.55,17.83,17.83,0,0,1-2.46,5.84,16.45,16.45,0,0,1-4.36,4.48A14.59,14.59,0,0,1,152.41,46.56ZM136.1,32.35a15.77,15.77,0,0,0,2,5.24,15.06,15.06,0,0,0,3.61,4.1,13.83,13.83,0,0,0,4.8,2.44,12.27,12.27,0,0,0,5.56.25,12,12,0,0,0,5.21-2.18,13.66,13.66,0,0,0,3.6-4,15.87,15.87,0,0,0,1.92-5.1,15.56,15.56,0,0,0,.11-5.44A15.19,15.19,0,0,0,161,22.37a15,15,0,0,0-3.57-4.18,13.89,13.89,0,0,0-4.82-2.51A12.25,12.25,0,0,0,147,15.4a12.5,12.5,0,0,0-5.4,2.25,13.7,13.7,0,0,0-3.69,4.1,15.08,15.08,0,0,0-1.86,5.16A15.26,15.26,0,0,0,136.1,32.35Z" transform="translate(-2.93 -0.23)"/><path class="cls-1" d="M174.39,42.78l-4.88-33L172,9.4l4.79,33Z" transform="translate(-2.93 -0.23)"/><path class="cls-1" d="M184.15,12.28l3.77,28.61-2.4.32L181.07,8.14l1.9-.25q14,12.86,27.4,26.34L207.33,5l2.5-.26,3.36,33.2-2.21.23Q197.85,24.93,184.15,12.28Z" transform="translate(-2.93 -0.23)"/><path class="cls-1" d="M254.58,3.52c-5.1.26-7.64.4-12.74.73l2,31.14-2.41.16L239.35,4.42c-5.09.35-7.64.54-12.73,1l-.18-2.15q14-1.18,28-1.86Z" transform="translate(-2.93 -0.23)"/><path class="cls-1" d="M286.9.32q.23,16.68.46,33.36l-2.41,0-.26-16c-8.64.14-13,.27-21.59.63l.66,16-2.41.1L259.87,1.1,262.38,1,263,16.21c8.65-.36,13-.48,21.64-.63L284.4.36Z" transform="translate(-2.93 -0.23)"/><path class="cls-1" d="M318.54,31.66l0,2.16c-8.95-.2-13.43-.25-22.38-.22Q296.06,16.92,296,.24c9.13,0,13.69,0,22.81.22l0,2.16c-8.1-.18-12.15-.22-20.26-.22V15.51c7,0,10.47,0,17.44.16l0,2.07c-7-.14-10.44-.17-17.4-.16V31.44C306.53,31.44,310.54,31.48,318.54,31.66Z" transform="translate(-2.93 -0.23)"/><path class="cls-1" d="M337.22,34.46l1.5-33.33c9.08.41,13.62.67,22.69,1.31l-.15,2.16c-8-.57-12.08-.81-20.13-1.19l-.63,13.24c6.74.32,10.11.51,16.84,1l-.14,2.06c-6.72-.45-10.08-.64-16.8-1l-.76,15.87Z" transform="translate(-2.93 -0.23)"/><path class="cls-1" d="M377.86,37.49a14.23,14.23,0,0,1-6.24-2,16.88,16.88,0,0,1-4.66-4.2,17.25,17.25,0,0,1-2.82-5.64,17.67,17.67,0,0,1-.68-6.32A16.77,16.77,0,0,1,365.16,13,17.44,17.44,0,0,1,369,7.91a16,16,0,0,1,5.46-3.3,15,15,0,0,1,6.59-.8,14.72,14.72,0,0,1,6.49,2.12,16.3,16.3,0,0,1,4.72,4.39,17.49,17.49,0,0,1,2.69,5.75,16.88,16.88,0,0,1,.48,6.22,17.23,17.23,0,0,1-1.93,6.26,17.84,17.84,0,0,1-3.91,5,16.43,16.43,0,0,1-5.37,3.18A14.52,14.52,0,0,1,377.86,37.49Zm-12-18a15.84,15.84,0,0,0,.56,5.58A15.08,15.08,0,0,0,368.85,30a13.78,13.78,0,0,0,4,3.61,12.21,12.21,0,0,0,5.28,1.7,11.91,11.91,0,0,0,5.58-.74,13.64,13.64,0,0,0,4.51-2.92,15.88,15.88,0,0,0,3.19-4.41A15.58,15.58,0,0,0,392.93,22a15.21,15.21,0,0,0-.42-5.6,15,15,0,0,0-2.34-5,13.87,13.87,0,0,0-4-3.69A12.19,12.19,0,0,0,380.83,6a12.43,12.43,0,0,0-5.78.76,13.66,13.66,0,0,0-4.62,3,15.08,15.08,0,0,0-3.14,4.49A15.31,15.31,0,0,0,365.91,19.5Z" transform="translate(-2.93 -0.23)"/><path class="cls-1" d="M400,39.61l4-33.13c5.77.69,8.65,1.06,14.42,1.84a9.28,9.28,0,0,1,3.93,1.44,10.24,10.24,0,0,1,2.85,2.8,11.12,11.12,0,0,1,1.6,3.61A9.79,9.79,0,0,1,427,20a11,11,0,0,1-1.1,3.43,10.45,10.45,0,0,1-2.07,2.81,9.25,9.25,0,0,1-6.26,2.58c2.67,5.61,4,8.42,6.53,14l-2.77-.41c-2.51-5.45-3.78-8.18-6.39-13.61-4.39-.59-6.58-.88-11-1.41l-1.53,12.5Zm4.2-14.4c4.77.58,7.15.89,11.91,1.54a6.41,6.41,0,0,0,3.06-.29,7.62,7.62,0,0,0,2.56-1.51,8.22,8.22,0,0,0,1.84-2.4,9.26,9.26,0,0,0,.94-2.93,8,8,0,0,0-.16-3.13,8.54,8.54,0,0,0-1.28-2.82,8.24,8.24,0,0,0-2.18-2.13,6.77,6.77,0,0,0-2.9-1.09c-4.72-.64-7.07-.95-11.8-1.52Z" transform="translate(-2.93 -0.23)"/><path class="cls-1" d="M430.78,26.73a17.2,17.2,0,0,1,2-5.76,16,16,0,0,1,9.72-7.73,15.74,15.74,0,0,1,7.17-.29,14.65,14.65,0,0,1,7.51,3.41,12.92,12.92,0,0,1,3.88,6l-2.23.73a11.12,11.12,0,0,0-1.62-3.26,11.36,11.36,0,0,0-2.32-2.35A12.21,12.21,0,0,0,452.09,16a14.94,14.94,0,0,0-3-.86,12.73,12.73,0,0,0-6,.29,13.6,13.6,0,0,0-4.8,2.62,14.27,14.27,0,0,0-3.36,4.2,15.9,15.9,0,0,0-1.7,5,15.28,15.28,0,0,0,.17,5.74,15.89,15.89,0,0,0,2.1,5.12A14.13,14.13,0,0,0,439.18,42a12.05,12.05,0,0,0,5.05,2.1,14.08,14.08,0,0,0,3.16.17,12.54,12.54,0,0,0,3.26-.61,12.82,12.82,0,0,0,3.09-1.52,11.06,11.06,0,0,0,2.65-2.5L458.28,41a11.28,11.28,0,0,1-2.92,2.85,14.93,14.93,0,0,1-3.68,1.81,16.09,16.09,0,0,1-4,.78,17,17,0,0,1-4-.2,13.68,13.68,0,0,1-6-2.54,17.16,17.16,0,0,1-4.29-4.67A18.48,18.48,0,0,1,431,33.11,17.5,17.5,0,0,1,430.78,26.73Z" transform="translate(-2.93 -0.23)"/><path class="cls-1" d="M485.27,52l-.47,2.11c-8.79-2-13.19-2.89-22-4.62l6.42-32.75c9,1.76,13.49,2.7,22.45,4.7l-.47,2.11c-8-1.77-11.94-2.61-19.93-4.2l-2.56,12.86c6.88,1.37,10.31,2.09,17.16,3.59l-.44,2c-6.84-1.5-10.26-2.22-17.12-3.59l-2.7,13.6C473.47,49.41,477.41,50.24,485.27,52Z" transform="translate(-2.93 -0.23)"/><path class="cls-1" d="M89.68,412.29,97,379.72c8.58,1.92,12.88,2.83,21.49,4.54l-.42,2.12c-7.68-1.53-11.52-2.33-19.17-4L96,395.3c6.59,1.46,9.9,2.15,16.51,3.49l-.41,2c-6.63-1.34-9.94-2-16.54-3.5l-3.42,15.51Z" transform="translate(-2.93 -0.23)"/><path class="cls-1" d="M118.33,418.24l6.28-32.77c5.51,1.06,8.26,1.56,13.78,2.53a8.85,8.85,0,0,1,3.73,1.55,10.17,10.17,0,0,1,2.67,2.86,11.42,11.42,0,0,1,1.47,3.63,10,10,0,0,1,.12,3.81,11,11,0,0,1-1.15,3.41,10.27,10.27,0,0,1-2.12,2.77,9.11,9.11,0,0,1-6.35,2.4c2.5,5.7,3.77,8.55,6.36,14.23l-2.86-.48c-2.5-5.53-3.73-8.3-6.14-13.84-4.4-.78-6.59-1.18-11-2L120.8,418.7Zm5.21-14.08c4.74.9,7.11,1.33,11.87,2.16a6.36,6.36,0,0,0,3.08-.18,7.5,7.5,0,0,0,2.6-1.44,8.11,8.11,0,0,0,1.89-2.35,9.3,9.3,0,0,0,1-2.91,8.16,8.16,0,0,0-.08-3.13,8.72,8.72,0,0,0-1.17-2.84,8.18,8.18,0,0,0-2-2.19,6.48,6.48,0,0,0-2.77-1.17c-4.54-.8-6.8-1.21-11.33-2.07Z" transform="translate(-2.93 -0.23)"/><path class="cls-1" d="M163.49,426a14.72,14.72,0,0,1-6.35-2.4,16.52,16.52,0,0,1-6.95-10.39,17.31,17.31,0,0,1-.17-6.36,17.1,17.1,0,0,1,2.22-6.12,18.11,18.11,0,0,1,4.14-4.82,16.2,16.2,0,0,1,5.52-2.94,14.53,14.53,0,0,1,6.4-.47,14.21,14.21,0,0,1,6.16,2.35,16.48,16.48,0,0,1,4.44,4.5,18.19,18.19,0,0,1,2.51,5.8,17.24,17.24,0,0,1,.38,6.23,16.91,16.91,0,0,1-2,6.23,17.18,17.18,0,0,1-4.07,4.9,16.24,16.24,0,0,1-5.61,3A15,15,0,0,1,163.49,426Zm-11-18.76a15.54,15.54,0,0,0,.13,5.61,14.59,14.59,0,0,0,2.07,5.08,13.68,13.68,0,0,0,3.84,3.88,12.58,12.58,0,0,0,5.35,2,12.26,12.26,0,0,0,5.78-.47,13.49,13.49,0,0,0,4.71-2.76,15.62,15.62,0,0,0,2.51-20.15,14,14,0,0,0-3.75-3.8,11.81,11.81,0,0,0-5.1-1.95,12.06,12.06,0,0,0-5.64.46,13.8,13.8,0,0,0-4.7,2.69,15.9,15.9,0,0,0-5.2,9.39Z" transform="translate(-2.93 -0.23)"/><path class="cls-1" d="M217.79,432l2.44-28.75c-6.07,8.52-9.17,12.76-15.49,21.18l-1.55-.16c-4.53-9.51-6.72-14.28-11-23.83l-3.31,28.67-2.49-.29,3.92-33.14,2.4.28c4.48,10.13,6.79,15.18,11.56,25.26,6.67-8.93,9.94-13.42,16.34-22.46l2.41.2-2.74,33.26Z" transform="translate(-2.93 -0.23)"/><path class="cls-1" d="M263.23,406.89c-2.09-2.49-5.12-3.83-9.1-4-3.28-.16-5.71.33-7.28,1.48a6.16,6.16,0,0,0-2.55,4.87,5.51,5.51,0,0,0,.42,2.69,4.87,4.87,0,0,0,1.69,1.91,11.93,11.93,0,0,0,3,1.44c1.23.41,2.72.85,4.46,1.31s3.45,1,4.92,1.47a14.88,14.88,0,0,1,3.74,1.87,7.4,7.4,0,0,1,2.32,2.63,7.5,7.5,0,0,1,.72,3.74,7.87,7.87,0,0,1-1,3.82,7.79,7.79,0,0,1-2.64,2.65,12.05,12.05,0,0,1-4,1.51,20.69,20.69,0,0,1-5.09.33,19.61,19.61,0,0,1-13.45-5.73l1.43-1.84a15.65,15.65,0,0,0,5.15,3.81,18.44,18.44,0,0,0,7.06,1.66,13.24,13.24,0,0,0,7.18-1.28,5.3,5.3,0,0,0,2.75-4.74,5.43,5.43,0,0,0-.57-2.82,6,6,0,0,0-1.93-2.08,13.76,13.76,0,0,0-3.29-1.6c-1.33-.47-2.89-.93-4.67-1.39s-3.4-.95-4.77-1.45a12.74,12.74,0,0,1-3.42-1.79,6.41,6.41,0,0,1-2-2.45,7.29,7.29,0,0,1-.51-3.47,8.74,8.74,0,0,1,1.12-3.93,8.55,8.55,0,0,1,2.61-2.79,11.05,11.05,0,0,1,3.84-1.6,18.22,18.22,0,0,1,4.85-.36,16.72,16.72,0,0,1,5.77,1.23,14,14,0,0,1,4.53,3.12Z" transform="translate(-2.93 -0.23)"/><path class="cls-1" d="M295.74,404.19c-4.93,0-7.4,0-12.33-.13q-.26,15.6-.53,31.2l-2.5,0q.3-15.6.61-31.2c-4.93-.1-7.39-.16-12.32-.32l.07-2.16c10.8.35,16.2.45,27,.49C295.74,402.9,295.74,403.33,295.74,404.19Z" transform="translate(-2.93 -0.23)"/><path class="cls-1" d="M308.18,402l2.08,0q7.32,16.64,15.1,33.08l-2.65.07c-2-4.35-3.06-6.53-5.07-10.89-6.57.13-9.85.16-16.42.18-1.91,4.4-2.87,6.6-4.82,11h-2.7Q301.18,418.8,308.18,402Zm8.76,20.27c-3.13-6.94-4.67-10.41-7.68-17.37-2.92,7-4.41,10.53-7.44,17.54C307.86,422.41,310.89,422.38,316.94,422.27Z" transform="translate(-2.93 -0.23)"/><path class="cls-1" d="M330.65,434.89q-.55-16.67-1.1-33.35c5.58-.18,8.37-.3,13.94-.56a8.8,8.8,0,0,1,4,.69,10.13,10.13,0,0,1,3.23,2.2,11.43,11.43,0,0,1,2.23,3.21,10.06,10.06,0,0,1,1,3.69,11,11,0,0,1-.37,3.58,10.28,10.28,0,0,1-1.46,3.17,9.08,9.08,0,0,1-5.65,3.74c3.68,5,5.54,7.51,9.31,12.48l-2.89.17c-3.65-4.84-5.45-7.27-9-12.15-4.45.21-6.67.3-11.11.46l.45,12.59Zm2-14.88c4.8-.17,7.2-.27,12-.5a6.33,6.33,0,0,0,3-.85,7.48,7.48,0,0,0,2.21-2,8.12,8.12,0,0,0,1.32-2.71,9.32,9.32,0,0,0,.33-3.05,8.17,8.17,0,0,0-.77-3,8.71,8.71,0,0,0-1.76-2.52,8.15,8.15,0,0,0-2.47-1.68,6.44,6.44,0,0,0-2.95-.54c-4.58.22-6.88.32-11.46.48Z" transform="translate(-2.93 -0.23)"/><path class="cls-1" d="M383.6,398.41l2.36-.22c2.45,4.64,3.69,7,6.2,11.58,1.54-5,2.3-7.54,3.79-12.58l2.36-.25c-1.75,5.84-2.65,8.76-4.47,14.6,3.51,6.18,5.28,9.27,8.89,15.42q4.88-15.9,9.49-31.85l2.63-.33q-5.08,17.5-10.65,34.86l-2.29.25c-3.78-6.49-5.64-9.75-9.31-16.28-2.33,7.13-3.52,10.69-6,17.8l-2.3.21q-8.86-15.91-17.26-32.07l2.6-.19q7.69,14.75,15.63,29.35c2.28-6.74,3.39-10.11,5.57-16.86C387.92,406.48,386.47,403.79,383.6,398.41Z" transform="translate(-2.93 -0.23)"/><path class="cls-1" d="M427.48,393.1l2.07-.29q9.42,15.56,19.28,30.85l-2.62.41c-2.6-4-3.89-6.08-6.44-10.14-6.51,1-9.77,1.44-16.3,2.3-1.33,4.61-2,6.92-3.38,11.53l-2.68.34Q422.69,410.66,427.48,393.1Zm11.32,19c-4-6.47-6-9.72-9.88-16.23-2,7.35-3,11-5.14,18.35C429.79,413.39,432.79,413,438.8,412.07Z" transform="translate(-2.93 -0.23)"/><path class="cls-1" d="M454.06,422.81l-5.39-32.93c5.53-.9,8.29-1.38,13.8-2.37a8.86,8.86,0,0,1,4,.17,10.18,10.18,0,0,1,3.5,1.77,11.43,11.43,0,0,1,2.64,2.9,10,10,0,0,1,1.43,3.53,11,11,0,0,1,.09,3.59,10.27,10.27,0,0,1-1,3.33,9.12,9.12,0,0,1-5.14,4.44c4.31,4.49,6.48,6.73,10.88,11.17L476,419c-4.26-4.33-6.36-6.5-10.54-10.88-4.4.78-6.6,1.16-11,1.9l2.07,12.42Zm0-15c4.76-.79,7.13-1.2,11.88-2.05a6.37,6.37,0,0,0,2.83-1.23,7.5,7.5,0,0,0,1.95-2.24,8.12,8.12,0,0,0,1-2.86,9.29,9.29,0,0,0-.06-3.07,8.15,8.15,0,0,0-1.15-2.92,8.71,8.71,0,0,0-2.07-2.27,8.18,8.18,0,0,0-2.67-1.35,6.49,6.49,0,0,0-3-.15c-4.53.81-6.8,1.2-11.35,2Z" transform="translate(-2.93 -0.23)"/><path class="cls-1" d="M499.41,385.8c-2.67-1.88-5.95-2.4-9.86-1.58-3.23.68-5.47,1.76-6.7,3.27a6.15,6.15,0,0,0-1.25,5.35,5.49,5.49,0,0,0,1.09,2.49,4.88,4.88,0,0,0,2.13,1.42,12,12,0,0,0,3.3.62c1.3.09,2.86.14,4.67.13s3.59,0,5.16.18a15,15,0,0,1,4.11.86,6.92,6.92,0,0,1,4.56,5.39,7.51,7.51,0,0,1-1.95,7.19,12.15,12.15,0,0,1-3.49,2.47,20.9,20.9,0,0,1-4.87,1.61,19.74,19.74,0,0,1-14.52-2.14l.93-2.15a15.72,15.72,0,0,0,6,2.38,18.6,18.6,0,0,0,7.28-.18,13.37,13.37,0,0,0,6.66-3.06,5.3,5.3,0,0,0,1.48-5.28,5.41,5.41,0,0,0-1.27-2.58,6.06,6.06,0,0,0-2.4-1.52,13.88,13.88,0,0,0-3.61-.71c-1.41-.11-3-.17-4.89-.17s-3.55-.06-5-.19a12.82,12.82,0,0,1-3.77-.87,6.42,6.42,0,0,1-2.56-1.86,7.26,7.26,0,0,1-1.37-3.23,8.72,8.72,0,0,1,.1-4.09,8.56,8.56,0,0,1,1.84-3.36,11.14,11.14,0,0,1,3.33-2.52,18.4,18.4,0,0,1,4.63-1.58,16.9,16.9,0,0,1,5.92-.28,14.11,14.11,0,0,1,5.19,1.87Z" transform="translate(-2.93 -0.23)"/><path class="cls-1" d="M2.93,182.84H43.3V163.09q-1.17,0-4-.07t-6-.07q-3.22,0-6.07-.07t-4-.07A21.35,21.35,0,0,1,8.7,157q-5.78-5.5-5.78-14.59V121.31A21.2,21.2,0,0,1,6,110.09a17.11,17.11,0,0,1,9.21-7.26q.88-.29,2.56-.8a9.57,9.57,0,0,1,2.41-.51H64.07v20.62H23.7v19.6q1.17,0,4.1.07t6.14.07H44.32q13,.44,18.28,12.35.29.73.88,2.57a10.23,10.23,0,0,1,.58,2.57V187.3A11.35,11.35,0,0,1,62.46,193a22.71,22.71,0,0,1-4.1,5.14,20.65,20.65,0,0,1-5.49,3.75,13.65,13.65,0,0,1-5.78,1.4H2.93Z" transform="translate(-2.93 -0.23)"/><path class="cls-1" d="M98.88,122.14H78.69V101.51h61.14v20.62H119.65v81.18H98.88Z" transform="translate(-2.93 -0.23)"/><path class="cls-1" d="M154.46,131.92A33.07,33.07,0,0,1,155.7,123a32.28,32.28,0,0,1,3.58-8.3,31,31,0,0,1,5.78-6.9,24.43,24.43,0,0,1,7.68-4.7q1.61-.59,3.51-1.1a14,14,0,0,1,3.66-.51H208a5.78,5.78,0,0,1,3.22,1,9.09,9.09,0,0,1,2.49,2.42,12.61,12.61,0,0,1,1.61,3.23,10.4,10.4,0,0,1,.58,3.23v92H195.27V163.24H175.37v40.08H154.75v-8.23q0-5.58-.07-12.63t-.07-14.69q0-7.93-.07-14.91t-.07-12.56v-8.37Zm40.66-9.78H182.54a4.67,4.67,0,0,0-2.41.75,10.1,10.1,0,0,0-2.27,1.87,10.4,10.4,0,0,0-1.68,2.47,5.8,5.8,0,0,0-.66,2.54v12.12h19.6Z" transform="translate(-2.93 -0.23)"/><path class="cls-1" d="M230.52,121.76a21.31,21.31,0,0,1,1.17-6.75,23.71,23.71,0,0,1,3.36-6.53,20.13,20.13,0,0,1,5.19-5,11.57,11.57,0,0,1,6.51-2h27.94a13.72,13.72,0,0,1,5.78,1.39,20.74,20.74,0,0,1,5.49,3.74,22,22,0,0,1,4.1,5.21,11.48,11.48,0,0,1,1.61,5.65v28.6a12.11,12.11,0,0,1-1.9,6.45,15.47,15.47,0,0,1-4.53,4.84c.29.39.49.59.58.59a22.05,22.05,0,0,1,4.1,4.84,11.33,11.33,0,0,1,1.75,6.16v34.33H271V172.45q-.88-1-1.17-1.32a22.65,22.65,0,0,0-8.63-5.78,28.28,28.28,0,0,0-10.24-2v39.93H230.81v-9.39q0-6.31-.07-14.38t-.07-16.87q0-8.8-.07-16.87t-.07-14.37v-9.68Zm20.77.53v19.31h19.6V122.28Z" transform="translate(-2.93 -0.23)"/><path class="cls-1" d="M306.28,101.51h20.48v47.24a18,18,0,0,1,4.24-4.9,9.35,9.35,0,0,1,6-2,9.56,9.56,0,0,1,5.78,1.75,15.11,15.11,0,0,1,4,4.39V101.51h20.62v94.32a4.07,4.07,0,0,1-.58,1.69q-.59,1.1-.88,1.69a6.55,6.55,0,0,1-3.51,3.3,13.43,13.43,0,0,1-4.68.81,14.84,14.84,0,0,1-5.63-1.1,7.94,7.94,0,0,1-4.17-4l-10.82-21.65h-.29L326,198.2a8,8,0,0,1-4.17,4,14.86,14.86,0,0,1-5.63,1.1,10,10,0,0,1-7.09-2.64,9.32,9.32,0,0,1-2.85-7.19Z" transform="translate(-2.93 -0.23)"/><path class="cls-1" d="M382,131.92a33.07,33.07,0,0,1,1.24-8.89,32.28,32.28,0,0,1,3.58-8.3,31,31,0,0,1,5.78-6.9,24.43,24.43,0,0,1,7.68-4.7q1.61-.59,3.51-1.1a14,14,0,0,1,3.66-.51h28.08a5.78,5.78,0,0,1,3.22,1,9.09,9.09,0,0,1,2.49,2.42,12.61,12.61,0,0,1,1.61,3.23,10.4,10.4,0,0,1,.58,3.23v92H422.86V163.24H403v40.08H382.34v-8.23q0-5.58-.07-12.63t-.07-14.69q0-7.93-.07-14.91T382,140.29v-8.37Zm40.66-9.78H410.13a4.67,4.67,0,0,0-2.41.75,10.1,10.1,0,0,0-2.27,1.87,10.4,10.4,0,0,0-1.68,2.47,5.8,5.8,0,0,0-.66,2.54v12.12h19.6Z" transform="translate(-2.93 -0.23)"/><path class="cls-1" d="M458.11,121.76a21.31,21.31,0,0,1,1.17-6.75,23.71,23.71,0,0,1,3.36-6.53,20.13,20.13,0,0,1,5.19-5,11.57,11.57,0,0,1,6.51-2h27.94a13.72,13.72,0,0,1,5.78,1.39,20.74,20.74,0,0,1,5.49,3.74,22,22,0,0,1,4.1,5.21,11.48,11.48,0,0,1,1.61,5.65v28.6a12.11,12.11,0,0,1-1.9,6.45,15.47,15.47,0,0,1-4.53,4.84c.29.39.49.59.58.59a22.05,22.05,0,0,1,4.1,4.84,11.33,11.33,0,0,1,1.75,6.16v34.33H498.62V172.45q-.88-1-1.17-1.32a22.65,22.65,0,0,0-8.63-5.78,28.28,28.28,0,0,0-10.24-2v39.93H458.4v-9.39q0-6.31-.07-14.38t-.07-16.87q0-8.8-.07-16.87t-.07-14.37v-9.68Zm20.77.53v19.31h19.6V122.28Z" transform="translate(-2.93 -0.23)"/><path class="cls-1" d="M533.87,182.84h40.37V163.09q-1.17,0-4-.07t-6-.07q-3.22,0-6.07-.07t-4-.07A21.35,21.35,0,0,1,539.65,157q-5.78-5.5-5.78-14.59V121.31a21.2,21.2,0,0,1,3.07-11.22,17.11,17.11,0,0,1,9.21-7.26q.88-.29,2.56-.8a9.57,9.57,0,0,1,2.41-.51H595v20.62H554.64v19.6q1.17,0,4.1.07t6.14.07h10.38q13,.44,18.28,12.35.29.73.88,2.57a10.23,10.23,0,0,1,.58,2.57V187.3A11.35,11.35,0,0,1,593.4,193a22.71,22.71,0,0,1-4.1,5.14,20.65,20.65,0,0,1-5.49,3.75,13.65,13.65,0,0,1-5.78,1.4H533.87Z" transform="translate(-2.93 -0.23)"/><path class="cls-1" d="M139.83,236.32v20.62H99.46v60.41h19.6V297.75h-9.8V276.69h20.33a9.54,9.54,0,0,1,7.46,3.09,10.8,10.8,0,0,1,2.78,7.49V318a20.35,20.35,0,0,1-1.24,6.76,25.44,25.44,0,0,1-3.44,6.54,19.1,19.1,0,0,1-5.19,4.92,11.88,11.88,0,0,1-6.51,1.91H95.66a13.65,13.65,0,0,1-5.78-1.39A20.6,20.6,0,0,1,84.4,333a22.48,22.48,0,0,1-4.1-5.13,11.29,11.29,0,0,1-1.61-5.72v-68.8a13.78,13.78,0,0,1,1.39-5.79,20.64,20.64,0,0,1,3.73-5.5,22.5,22.5,0,0,1,5.12-4.11,11.23,11.23,0,0,1,5.7-1.61Z" transform="translate(-2.93 -0.23)"/><path class="cls-1" d="M154.46,266.72a33.07,33.07,0,0,1,1.24-8.89,32.28,32.28,0,0,1,3.58-8.3,30.94,30.94,0,0,1,5.78-6.9,24.4,24.4,0,0,1,7.68-4.7q1.61-.59,3.51-1.1a13.94,13.94,0,0,1,3.66-.51H208a5.78,5.78,0,0,1,3.22,1,9.1,9.1,0,0,1,2.49,2.42,12.63,12.63,0,0,1,1.61,3.23,10.41,10.41,0,0,1,.58,3.23v92H195.27V298H175.37v40.08H154.75v-8.23q0-5.58-.07-12.63t-.07-14.69q0-7.93-.07-14.91t-.07-12.56v-8.37Zm40.66-9.78H182.54a4.68,4.68,0,0,0-2.41.75,10.1,10.1,0,0,0-2.27,1.87,10.4,10.4,0,0,0-1.68,2.47,5.8,5.8,0,0,0-.66,2.54v12.12h19.6Z" transform="translate(-2.93 -0.23)"/><path class="cls-1" d="M230.52,236.32H251v81.33h40.66v20.48h-45.2a11.22,11.22,0,0,1-5.7-1.61,22.39,22.39,0,0,1-5.12-4.11,20.58,20.58,0,0,1-3.73-5.5,13.76,13.76,0,0,1-1.39-5.79Z" transform="translate(-2.93 -0.23)"/><path class="cls-1" d="M306.28,266.72a33.07,33.07,0,0,1,1.24-8.89,32.28,32.28,0,0,1,3.58-8.3,30.94,30.94,0,0,1,5.78-6.9,24.4,24.4,0,0,1,7.68-4.7q1.61-.59,3.51-1.1a13.94,13.94,0,0,1,3.66-.51h28.08a5.78,5.78,0,0,1,3.22,1,9.1,9.1,0,0,1,2.49,2.42,12.63,12.63,0,0,1,1.61,3.23,10.41,10.41,0,0,1,.58,3.23v92H347.09V298H327.2v40.08H306.57v-8.23q0-5.58-.07-12.63t-.07-14.69q0-7.93-.07-14.91t-.07-12.56v-8.37Zm40.66-9.78H334.36a4.68,4.68,0,0,0-2.41.75,10.1,10.1,0,0,0-2.27,1.87A10.4,10.4,0,0,0,328,262a5.8,5.8,0,0,0-.66,2.54v12.12h19.6Z" transform="translate(-2.93 -0.23)"/><path class="cls-1" d="M382.34,315.23l17.7-28-17.7-27.87v-23h20.48v17.41l.58.58,9.65,14.48,9.36-14.19.44-.58v-17.7h20.62v23.47l-17.41,27.43,17.41,27.43v23.47H422.86v-17.7l-.44-.58-9.36-14.19-10.24,15.21v17.26H382.34Z" transform="translate(-2.93 -0.23)"/><path class="cls-1" d="M478.29,297.63q-8.92-.29-14.55-5.94a19.59,19.59,0,0,1-5.63-14.45V236.32h20.48v40.08h20V236.32h20.62v44a10.52,10.52,0,0,1-.58,2.42q-.59,1.83-.88,2.57a19.51,19.51,0,0,1-7.39,9.17,21.67,21.67,0,0,1-11.34,3.15v40.49H478.29Z" transform="translate(-2.93 -0.23)"/></g></g></svg>