<svg xmlns="http://www.w3.org/2000/svg" viewBox="0 0 259.84 286.09"><defs><style>.cls-1{fill:#ef8614;}.cls-2{fill:#fff;}.cls-3{fill:#f2c041;}.cls-4{fill:#cc972e;}.cls-5{fill:#f2c561;}.cls-6{fill:#fce6e6;}</style></defs><title>mordo_map</title><g id="Layer_2" data-name="Layer 2"><g id="Mordor"><path class="cls-1" d="M22.93,46.85C43.58,25.06,67.27,1.79,97.25.1,133.6-2,165,28.73,201.35,29.82c10.23.31,20.45-1.78,30.66-1s21.11,5.16,25.46,14.42c2.6,5.54,2.47,11.93,2.29,18L259,86c-.33,11.18-1.08,23.41-8.65,31.63-3.78,4.1-8.87,6.71-13.85,9.24l-72.77,36.93c-6.7,3.4-13.9,7.32-16.81,14.24-2.36,5.61-1.37,12-2,18.05-.85,8.51-4.88,16.33-8.84,23.91l-25.27,48.42c-5.24,10-15.7,21.85-25.53,16.21C72,277,86.82,255.49,80.77,241.43c-3.07-7.13-10.89-10.69-17.87-14.09A177.15,177.15,0,0,1,18,195.95C9.38,187.69,1.25,177.72.14,165.85c-1.05-11.23,4.34-21.93,6.58-33,3.1-15.25.14-31-.08-46.55s3.2-32.69,15.47-42.27"/><path class="cls-2" d="M64.44,78.64a2.81,2.81,0,0,1,1.15.24,1.75,1.75,0,0,1,.85.82l2.24,4.48h.06L71,79.7a1.6,1.6,0,0,1,.83-.82A2.91,2.91,0,0,1,73,78.64a2.36,2.36,0,0,1,1.1.26,1.59,1.59,0,0,1,.74.87l.15.43V99.71H70.83V90a3.1,3.1,0,0,1-.88,1,2.15,2.15,0,0,1-1.24.33A2.19,2.19,0,0,1,67.54,91a2.82,2.82,0,0,1-.86-.89v9.6H62.44V80.19a1,1,0,0,1,.11-.33l.17-.36a1.49,1.49,0,0,1,.74-.68A2.75,2.75,0,0,1,64.44,78.64Z"/><path class="cls-2" d="M78.09,96.35V94.77q0-1.06,0-2.38t0-2.77q0-1.48,0-2.82t0-2.36V82.82a4.39,4.39,0,0,1,.24-1.39,4.88,4.88,0,0,1,.7-1.35A4.17,4.17,0,0,1,80,79a2.4,2.4,0,0,1,1.35-.41h5.75a2.07,2.07,0,0,1,.53.12l.53.18a3.91,3.91,0,0,1,2.54,3.84V95.44a4.48,4.48,0,0,1-.32,1.7,4,4,0,0,1-.88,1.35,4.23,4.23,0,0,1-1.33.89,4.19,4.19,0,0,1-1.68.33h-4.3a4.22,4.22,0,0,1-2.69-.91A4,4,0,0,1,78.09,96.35Zm4.3-13.41V95.35h4.06V82.94Z"/><path class="cls-2" d="M93.77,82.83a4.42,4.42,0,0,1,.24-1.4,4.92,4.92,0,0,1,.7-1.35,4.17,4.17,0,0,1,1.07-1,2.39,2.39,0,0,1,1.35-.41h5.78a2.85,2.85,0,0,1,1.2.29,4.29,4.29,0,0,1,1.14.77,4.54,4.54,0,0,1,.85,1.08,2.38,2.38,0,0,1,.33,1.17v5.92A2.51,2.51,0,0,1,106,89.2a3.21,3.21,0,0,1-.94,1c.06.08.1.12.12.12a4.59,4.59,0,0,1,.85,1,2.35,2.35,0,0,1,.36,1.28v7.1h-4.27V93.32l-.24-.27a4.68,4.68,0,0,0-1.79-1.2A5.85,5.85,0,0,0,98,91.44v8.26H93.83V97.77q0-1.31,0-3t0-3.49q0-1.82,0-3.49t0-3v-2Zm4.3.11v4h4.06v-4Z"/><path class="cls-2" d="M110.63,99.65a2.12,2.12,0,0,1-.79-.59,1.34,1.34,0,0,1-.39-.9v-18a1.16,1.16,0,0,1,.14-.52,2.13,2.13,0,0,1,.35-.5,2,2,0,0,1,.48-.38,1.07,1.07,0,0,1,.51-.15h5.39a2.08,2.08,0,0,1,.82.2,4.6,4.6,0,0,1,.73.38,6.9,6.9,0,0,1,1.79,1.52,8.87,8.87,0,0,1,1.21,1.93,10.88,10.88,0,0,1,.74,2.2q.26,1.15.41,2.31,0,.15.06.5c0,.23,0,.37,0,.41v7.41a4,4,0,0,1-2.54,3.95l-.53.17a2.35,2.35,0,0,1-.53.11h-7.57l-.14,0Zm3.12-16.71V95.41h4.09V94.1q0-1,0-2t0-2V88.72q0-.67-.06-1.49a10.8,10.8,0,0,0-.24-1.61,6.27,6.27,0,0,0-.54-1.49A3.09,3.09,0,0,0,116,83a.2.2,0,0,0-.15-.06Z"/><path class="cls-2" d="M125.19,96.35V94.77q0-1.06,0-2.38t0-2.77q0-1.48,0-2.82t0-2.36V82.82a4.39,4.39,0,0,1,.24-1.39,4.88,4.88,0,0,1,.7-1.35,4.17,4.17,0,0,1,1.07-1,2.4,2.4,0,0,1,1.35-.41h5.75a2.07,2.07,0,0,1,.53.12l.53.18a3.91,3.91,0,0,1,2.54,3.84V95.44a4.48,4.48,0,0,1-.32,1.7,4,4,0,0,1-.88,1.35,4.23,4.23,0,0,1-1.33.89,4.19,4.19,0,0,1-1.68.33h-4.3a4.22,4.22,0,0,1-2.69-.91A4,4,0,0,1,125.19,96.35Zm4.3-13.41V95.35h4.06V82.94Z"/><path class="cls-2" d="M140.87,82.83a4.42,4.42,0,0,1,.24-1.4,4.92,4.92,0,0,1,.7-1.35,4.17,4.17,0,0,1,1.07-1,2.39,2.39,0,0,1,1.35-.41H150a2.85,2.85,0,0,1,1.2.29,4.29,4.29,0,0,1,1.14.77,4.54,4.54,0,0,1,.85,1.08,2.38,2.38,0,0,1,.33,1.17v5.92a2.51,2.51,0,0,1-.39,1.34,3.21,3.21,0,0,1-.94,1c.06.08.1.12.12.12a4.59,4.59,0,0,1,.85,1,2.34,2.34,0,0,1,.36,1.28v7.1h-4.27V93.32L149,93a4.68,4.68,0,0,0-1.79-1.2,5.85,5.85,0,0,0-2.12-.41v8.26h-4.18V97.77q0-1.31,0-3t0-3.49q0-1.82,0-3.49t0-3v-2Zm4.3.11v4h4.06v-4Z"/><path class="cls-2" d="M54.68,106.54h4.24v8.26a4.82,4.82,0,0,0,1-.12,7.24,7.24,0,0,0,1.14-.35,5.85,5.85,0,0,0,1.06-.54,2.72,2.72,0,0,0,.76-.71l.18-.27v-6.27h4.27v6.83a2.43,2.43,0,0,1-.26,1,6.75,6.75,0,0,1-.64,1.09,8.6,8.6,0,0,1-.8,1,3,3,0,0,1-.79.62v.06a3,3,0,0,1,.79.62,8.7,8.7,0,0,1,.8,1,6.75,6.75,0,0,1,.64,1.09,2.44,2.44,0,0,1,.26,1v6.83H63.06v-6.27l-.18-.27a2.72,2.72,0,0,0-.76-.71,5.85,5.85,0,0,0-1.06-.54,7.24,7.24,0,0,0-1.14-.35,4.82,4.82,0,0,0-1-.12v8.26H54.68Z"/><path class="cls-2" d="M70.36,123.37H74.5V110.81H70.36v-4.27H83v4.27H78.86v12.56H83v4.24H70.36Z"/><path class="cls-2" d="M88,106.54a2.81,2.81,0,0,1,1.15.24,1.75,1.75,0,0,1,.85.82l4.39,8.69v-9.75H98.6v19.52a.84.84,0,0,1-.12.35l-.18.35a1.36,1.36,0,0,1-.73.68,2.79,2.79,0,0,1-1,.17,3.07,3.07,0,0,1-1.17-.23,1.53,1.53,0,0,1-.83-.83L90.28,118v9.6H86V108.09a1,1,0,0,1,.11-.33l.17-.36a1.49,1.49,0,0,1,.74-.68A2.75,2.75,0,0,1,88,106.54Z"/><path class="cls-2" d="M114.28,106.54v4.27h-8.35v12.5H110v-4.05h-2v-4.36h4.21a2,2,0,0,1,1.54.64,2.24,2.24,0,0,1,.58,1.55v6.36a4.21,4.21,0,0,1-.26,1.4,5.27,5.27,0,0,1-.71,1.35,4,4,0,0,1-1.07,1,2.46,2.46,0,0,1-1.35.4h-5.75a2.83,2.83,0,0,1-1.2-.29,4.27,4.27,0,0,1-1.14-.77,4.63,4.63,0,0,1-.85-1.06,2.34,2.34,0,0,1-.33-1.18V110.06a2.85,2.85,0,0,1,.29-1.2,4.27,4.27,0,0,1,.77-1.14,4.65,4.65,0,0,1,1.06-.85,2.32,2.32,0,0,1,1.18-.33Z"/><path class="cls-2" d="M118.49,127.55a2.12,2.12,0,0,1-.79-.59,1.34,1.34,0,0,1-.39-.9v-18a1.16,1.16,0,0,1,.14-.52,2.13,2.13,0,0,1,.35-.5,2,2,0,0,1,.48-.38,1.07,1.07,0,0,1,.51-.15h5.39a2.08,2.08,0,0,1,.82.2,4.6,4.6,0,0,1,.73.38,6.9,6.9,0,0,1,1.79,1.52,8.87,8.87,0,0,1,1.21,1.93,10.88,10.88,0,0,1,.74,2.2q.26,1.15.41,2.31,0,.15.06.5c0,.23,0,.37,0,.41v7.41a4,4,0,0,1-2.54,3.95l-.53.17a2.35,2.35,0,0,1-.53.11h-7.57l-.14,0Zm3.12-16.71v12.47h4.09V122q0-1,0-2t0-2v-1.34q0-.67-.06-1.49a10.8,10.8,0,0,0-.24-1.61,6.27,6.27,0,0,0-.54-1.49,3.09,3.09,0,0,0-1-1.12.2.2,0,0,0-.15-.06Z"/><path class="cls-2" d="M133,124.25v-1.57q0-1.06,0-2.38t0-2.77q0-1.48,0-2.82t0-2.36v-1.63a4.39,4.39,0,0,1,.24-1.39,4.88,4.88,0,0,1,.7-1.35,4.17,4.17,0,0,1,1.07-1,2.4,2.4,0,0,1,1.35-.41h5.75a2.07,2.07,0,0,1,.53.12l.53.18a3.91,3.91,0,0,1,2.54,3.84v12.65a4.48,4.48,0,0,1-.32,1.7,4,4,0,0,1-.88,1.35,4.23,4.23,0,0,1-1.33.89,4.19,4.19,0,0,1-1.68.33h-4.3a4.22,4.22,0,0,1-2.69-.91A4,4,0,0,1,133,124.25Zm4.3-13.41v12.41h4.06V110.84Z"/><path class="cls-2" d="M150.73,106.54a2.81,2.81,0,0,1,1.15.24,1.75,1.75,0,0,1,.85.82l2.24,4.48H155l2.27-4.48a1.6,1.6,0,0,1,.83-.82,2.91,2.91,0,0,1,1.17-.24,2.36,2.36,0,0,1,1.1.26,1.59,1.59,0,0,1,.74.87l.15.43v19.52h-4.18v-9.75a3.09,3.09,0,0,1-.88,1,2.14,2.14,0,0,1-1.24.33,2.19,2.19,0,0,1-1.17-.29A2.82,2.82,0,0,1,153,118v9.6h-4.24V108.09a1,1,0,0,1,.11-.33l.17-.36a1.49,1.49,0,0,1,.74-.68A2.75,2.75,0,0,1,150.73,106.54Z"/><path class="cls-3" d="M103.93,27.35c4,12.14,16.42,18.8,27.28,23.89,12.13,5.68,25,9.51,37.8,13.25,19.81,5.79,64,15.14,48.76,45.18-6.6,13-20.84,18.64-33.93,22.77-14.83,4.68-29.84,8.84-44.81,13-22.32,6.27-53.15,14.32-56.76,41.8-2,15,8.95,25.92,13.46,39.24a48,48,0,0,1-7.07,43.54c-2.28,3.12,2.92,6.12,5.18,3A53.64,53.64,0,0,0,104,237.91a51.92,51.92,0,0,0-3.92-16.61c-2.83-6.72-7.07-12.75-9.8-19.51-5.86-14.46,1.41-28.56,13.78-36.81s28-11.31,42.26-15.33c15.14-4.28,30.54-8.22,45.35-13.52,11.16-4,22.11-9.65,29-19.66,6.27-9.14,8.44-21.47,2.66-31.38-5.91-10.15-17.59-15-28.14-18.72-15.11-5.36-30.77-9-45.91-14.28a140.76,140.76,0,0,1-22.64-9.9c-6.9-3.87-14.38-8.51-17-16.43-1.19-3.66-7-2.09-5.79,1.6Z"/><path class="cls-3" d="M23.91,112.72c3.55,14.62,15.65,26.87,26.25,36.91a169.89,169.89,0,0,0,38.33,27.21c1.71.89,3.23-1.7,1.51-2.59a166.76,166.76,0,0,1-36.5-25.6c-10.68-9.92-23.16-22.15-26.7-36.73-.46-1.88-3.35-1.08-2.89.8Z"/><path class="cls-3" d="M188.11,68.53C192.72,57.74,206,59.32,215.6,58a63.48,63.48,0,0,0,25.88-9.74c1.62-1,.11-3.64-1.51-2.59-10.63,6.86-21.56,9.11-34,10.16-8.15.69-17,3-20.48,11.18-.75,1.76,1.83,3.29,2.59,1.51Z"/><path class="cls-3" d="M144.76,53.19a73.57,73.57,0,0,0-29.34,2.93c-10.2,3.23-19.22,9.34-29.89,11.16-11.58,2-22.68-.06-33.36-4.67-8.1-3.5-15.93-7.18-25-5.79-1.9.29-1.09,3.18.8,2.89C38.63,58.07,47.87,64.61,57.5,68a57.45,57.45,0,0,0,27.07,2.49c10.24-1.49,18.66-6.65,28.19-10.24a70.93,70.93,0,0,1,32-4c1.92.19,1.91-2.82,0-3Z"/><path class="cls-3" d="M101.73,231.59c3.8-13.3,19.9-17,26.64-28.4,6.57-11.14,6.53-27.47,19.5-33.79,1.74-.85.22-3.43-1.51-2.59-13.13,6.4-13.72,22-19.81,33.48-6.66,12.62-23.6,16.11-27.71,30.5a1.5,1.5,0,0,0,2.89.8Z"/><path class="cls-4" d="M63.45,148.78h0a10,10,0,0,1,10,10v43a0,0,0,0,1,0,0h-20a0,0,0,0,1,0,0v-43A10,10,0,0,1,63.45,148.78Z"/><path class="cls-3" d="M48.45,165.78h0a10,10,0,0,1,10,10v25a0,0,0,0,1,0,0h-20a0,0,0,0,1,0,0v-25A10,10,0,0,1,48.45,165.78Z"/><path class="cls-5" d="M58.45,177.78h0a10,10,0,0,1,10,10v14a0,0,0,0,1,0,0h-20a0,0,0,0,1,0,0v-14A10,10,0,0,1,58.45,177.78Z"/><path class="cls-6" d="M95.77,8.8a81.15,81.15,0,0,0,13.59,11c1.63,1,3.13-1.55,1.51-2.59a77.49,77.49,0,0,1-13-10.48A1.5,1.5,0,0,0,95.77,8.8Z"/><path class="cls-6" d="M107.73,5.39,94.39,18.72a1.5,1.5,0,0,0,2.12,2.12L109.85,7.51a1.5,1.5,0,0,0-2.12-2.12Z"/></g></g></svg>