<svg xmlns="http://www.w3.org/2000/svg" viewBox="0 0 591.06 236.61"><defs><style>.cls-1{fill:#fff;}</style></defs><title>pandora2</title><g id="Layer_2" data-name="Layer 2"><g id="Layer_1-2" data-name="Layer 1"><path class="cls-1" d="M61.14,84V124H40.22V42.36a21.37,21.37,0,0,1,1.17-6.76,22.69,22.69,0,0,1,3.36-6.47A20.65,20.65,0,0,1,50,24.22a11.57,11.57,0,0,1,6.51-2H84.25a11.35,11.35,0,0,1,2.56.52q1.83.51,2.56.81Q101.66,29,101.66,42.41V62.89a21.6,21.6,0,0,1-1.76,8.55Q94.78,83.22,81.33,83.66c-.58,0-1.51,0-2.78.07s-2.68.07-4.24.07-3,0-4.68.07-3.17.07-4.53.07Zm.15-41.1V62.6h19.6V42.86Z" transform="translate(-2.93 -22.23)"/><path class="cls-1" d="M116.28,52.64a33.07,33.07,0,0,1,1.24-8.89,32.28,32.28,0,0,1,3.58-8.3,31,31,0,0,1,5.78-6.9,24.43,24.43,0,0,1,7.68-4.7q1.61-.59,3.51-1.1a14,14,0,0,1,3.66-.51h28.08a5.78,5.78,0,0,1,3.22,1,9.09,9.09,0,0,1,2.49,2.42,12.61,12.61,0,0,1,1.61,3.23,10.4,10.4,0,0,1,.58,3.23v92H157.09V84H137.2V124H116.58v-8.23q0-5.58-.07-12.63t-.07-14.69q0-7.93-.07-14.91T116.28,61V52.64Zm40.66-9.78H144.37a4.67,4.67,0,0,0-2.41.75,10.1,10.1,0,0,0-2.27,1.87A10.4,10.4,0,0,0,138,47.94a5.8,5.8,0,0,0-.66,2.54V62.6h19.6Z" transform="translate(-2.93 -22.23)"/><path class="cls-1" d="M202,22.23a13.55,13.55,0,0,1,5.56,1.17,8.47,8.47,0,0,1,4.09,3.95l21.21,42V22.23H253v94.31a4.07,4.07,0,0,1-.58,1.69q-.59,1.1-.88,1.69a6.56,6.56,0,0,1-3.51,3.31,13.43,13.43,0,0,1-4.68.81,14.84,14.84,0,0,1-5.63-1.1,7.38,7.38,0,0,1-4-4L212.82,77.67V124H192.34V29.72a5.06,5.06,0,0,1,.51-1.62c.34-.78.61-1.37.8-1.76a7.22,7.22,0,0,1,3.58-3.3A13.24,13.24,0,0,1,202,22.23Z" transform="translate(-2.93 -22.23)"/><path class="cls-1" d="M273.37,123.74a10.2,10.2,0,0,1-3.8-2.86,6.49,6.49,0,0,1-1.9-4.33V29.71a5.59,5.59,0,0,1,.66-2.49A10.22,10.22,0,0,1,270,24.8,9.46,9.46,0,0,1,272.35,23a5.14,5.14,0,0,1,2.49-.73h26a10,10,0,0,1,3.95,1A22.69,22.69,0,0,1,308.33,25,33.33,33.33,0,0,1,317,32.35a42.84,42.84,0,0,1,5.85,9.32,52.63,52.63,0,0,1,3.58,10.63q1.24,5.57,2,11.15.14.73.29,2.42t.15,2v35.79q0,13.64-12.29,19.07-.73.29-2.56.81a11.25,11.25,0,0,1-2.56.51H274.83a3.18,3.18,0,0,1-.66-.15A3.23,3.23,0,0,0,273.37,123.74ZM288.44,43v60.26h19.75V96.94q0-4.7-.07-9.85T308,77.4V70.93q0-3.23-.29-7.2a52,52,0,0,0-1.17-7.79,30.26,30.26,0,0,0-2.63-7.2,14.93,14.93,0,0,0-4.68-5.44,1,1,0,0,0-.73-.29Z" transform="translate(-2.93 -22.23)"/><path class="cls-1" d="M343.73,107.8v-7.61q0-5.12-.07-11.48t-.07-13.38q0-7.16-.07-13.6t-.07-11.41v-7.9a21.21,21.21,0,0,1,1.17-6.73A23.57,23.57,0,0,1,348,29.18a20.12,20.12,0,0,1,5.19-5,11.6,11.6,0,0,1,6.51-2h27.79a10.16,10.16,0,0,1,2.56.58q1.83.59,2.56.88,12.29,5.41,12.29,18.58v61.14a21.67,21.67,0,0,1-1.54,8.19,19.28,19.28,0,0,1-4.24,6.51A20.42,20.42,0,0,1,384.53,124H363.76a20.39,20.39,0,0,1-13-4.39A19.25,19.25,0,0,1,343.73,107.8ZM364.5,43v60h19.6V43Z" transform="translate(-2.93 -22.23)"/><path class="cls-1" d="M419.49,42.47a21.31,21.31,0,0,1,1.17-6.75A23.71,23.71,0,0,1,424,29.2a20.13,20.13,0,0,1,5.19-5,11.57,11.57,0,0,1,6.51-2h27.94a13.72,13.72,0,0,1,5.78,1.39,20.74,20.74,0,0,1,5.49,3.74,22,22,0,0,1,4.1,5.21,11.48,11.48,0,0,1,1.61,5.65v28.6a12.11,12.11,0,0,1-1.9,6.45,15.47,15.47,0,0,1-4.53,4.84c.29.39.49.59.58.59a22.05,22.05,0,0,1,4.1,4.84,11.33,11.33,0,0,1,1.75,6.16V124H460V93.17q-.88-1-1.17-1.32a22.65,22.65,0,0,0-8.63-5.78,28.28,28.28,0,0,0-10.24-2V124H419.78v-9.39q0-6.31-.07-14.38t-.07-16.87q0-8.8-.07-16.87t-.07-14.37V42.47Zm20.77.53V62.31h19.6V43Z" transform="translate(-2.93 -22.23)"/><path class="cls-1" d="M495.26,52.64a33.07,33.07,0,0,1,1.24-8.89,32.28,32.28,0,0,1,3.58-8.3,31,31,0,0,1,5.78-6.9,24.43,24.43,0,0,1,7.68-4.7q1.61-.59,3.51-1.1a14,14,0,0,1,3.66-.51h28.08a5.78,5.78,0,0,1,3.22,1,9.09,9.09,0,0,1,2.49,2.42,12.61,12.61,0,0,1,1.61,3.23,10.4,10.4,0,0,1,.58,3.23v92H536.07V84H516.17V124H495.55v-8.23q0-5.58-.07-12.63t-.07-14.69q0-7.93-.07-14.91T495.26,61V52.64Zm40.66-9.78H523.34a4.67,4.67,0,0,0-2.41.75,10.1,10.1,0,0,0-2.27,1.87A10.4,10.4,0,0,0,517,47.94a5.8,5.8,0,0,0-.66,2.54V62.6h19.6Z" transform="translate(-2.93 -22.23)"/><path class="cls-1" d="M2.93,157H23.4v81h20V157H64.07v85.81a11.32,11.32,0,0,1-1.61,5.72,22.62,22.62,0,0,1-4.1,5.13,20.68,20.68,0,0,1-5.49,3.74,13.67,13.67,0,0,1-5.78,1.39H19.16a9.55,9.55,0,0,1-3.88-1A33.54,33.54,0,0,1,11.7,256,14,14,0,0,1,8,252.9a19.24,19.24,0,0,1-2.78-4.33,24.22,24.22,0,0,1-1.68-4.91,22.05,22.05,0,0,1-.58-4.91Z" transform="translate(-2.93 -22.23)"/><path class="cls-1" d="M88.34,157a13.55,13.55,0,0,1,5.56,1.17A8.48,8.48,0,0,1,98,162.15l21.21,42V157h20.19v94.31a4.07,4.07,0,0,1-.58,1.69q-.59,1.1-.88,1.69a6.56,6.56,0,0,1-3.51,3.31,13.43,13.43,0,0,1-4.68.81,14.84,14.84,0,0,1-5.63-1.1,7.38,7.38,0,0,1-4-4L99.17,212.47v46.37H78.69V164.53a5.07,5.07,0,0,1,.51-1.62c.34-.78.61-1.37.8-1.76a7.23,7.23,0,0,1,3.58-3.3A13.25,13.25,0,0,1,88.34,157Z" transform="translate(-2.93 -22.23)"/><path class="cls-1" d="M154,238.36h20v-60.7H154V157h61.14v20.62h-20v60.7h20v20.48H154Z" transform="translate(-2.93 -22.23)"/><path class="cls-1" d="M229.78,179.92V157h20.48v20L260.35,209h.29l9.65-30.86V157h20.62v23.91l-20,70.41a10.16,10.16,0,0,1-4,5.57,11.57,11.57,0,0,1-12.73,0,10.15,10.15,0,0,1-4-5.57Z" transform="translate(-2.93 -22.23)"/><path class="cls-1" d="M366.69,157v20.62H326.32V197.4h40.37v21.06H326.32v19.89h40.37v20.48H322.52a13.65,13.65,0,0,1-5.78-1.39,20.6,20.6,0,0,1-5.49-3.74,22.48,22.48,0,0,1-4.1-5.13,11.29,11.29,0,0,1-1.61-5.72V174a13.78,13.78,0,0,1,1.39-5.79,20.64,20.64,0,0,1,3.73-5.5,22.5,22.5,0,0,1,5.12-4.11,11.23,11.23,0,0,1,5.7-1.61Z" transform="translate(-2.93 -22.23)"/><path class="cls-1" d="M381.32,177.28a21.32,21.32,0,0,1,1.17-6.75,23.7,23.7,0,0,1,3.36-6.53,20.13,20.13,0,0,1,5.19-5,11.57,11.57,0,0,1,6.51-2h27.94a13.7,13.7,0,0,1,5.78,1.39,20.71,20.71,0,0,1,5.49,3.74,22,22,0,0,1,4.1,5.21,11.48,11.48,0,0,1,1.61,5.65v28.6a12.11,12.11,0,0,1-1.9,6.45,15.46,15.46,0,0,1-4.53,4.84c.29.39.49.59.58.59a22,22,0,0,1,4.1,4.84,11.33,11.33,0,0,1,1.75,6.16v34.33H421.83V228q-.88-1-1.17-1.32a22.64,22.64,0,0,0-8.63-5.78,28.28,28.28,0,0,0-10.24-2v39.93H381.61v-9.39q0-6.31-.07-14.37t-.07-16.87q0-8.8-.07-16.87T381.32,187v-9.68Zm20.77.53v19.31h19.6V177.8Z" transform="translate(-2.93 -22.23)"/><path class="cls-1" d="M457.08,238.36h40.37V218.61q-1.17,0-4-.07t-6-.07q-3.22,0-6.07-.07t-4-.07a21.35,21.35,0,0,1-14.55-5.79q-5.78-5.5-5.78-14.59V176.83a21.2,21.2,0,0,1,3.07-11.22,17.11,17.11,0,0,1,9.21-7.26q.88-.29,2.56-.8a9.53,9.53,0,0,1,2.41-.51h43.88v20.62H477.85v19.6q1.17,0,4.1.07t6.14.07h10.38q13,.44,18.28,12.35.29.73.88,2.57a10.22,10.22,0,0,1,.58,2.57v27.93a11.35,11.35,0,0,1-1.61,5.73,22.7,22.7,0,0,1-4.1,5.14,20.65,20.65,0,0,1-5.49,3.75,13.65,13.65,0,0,1-5.78,1.4H457.08Z" transform="translate(-2.93 -22.23)"/><path class="cls-1" d="M594,157v20.62H553.62V197.4H594v21.06H553.62v19.89H594v20.48H549.81a13.65,13.65,0,0,1-5.78-1.39,20.6,20.6,0,0,1-5.49-3.74,22.48,22.48,0,0,1-4.1-5.13,11.29,11.29,0,0,1-1.61-5.72V174a13.78,13.78,0,0,1,1.39-5.79,20.64,20.64,0,0,1,3.73-5.5,22.5,22.5,0,0,1,5.12-4.11,11.23,11.23,0,0,1,5.7-1.61Z" transform="translate(-2.93 -22.23)"/></g></g></svg>