<svg xmlns="http://www.w3.org/2000/svg" viewBox="0 0 343.84 399.16"><defs><style>.cls-1{fill:#2fd821;}.cls-2{fill:#fff;}.cls-3{fill:#27a519;}.cls-4{fill:#ad881e;}.cls-5{fill:#edbf2e;}.cls-6{fill:#f4c84d;}.cls-7{fill:#1991ce;}</style></defs><title>pandora_map</title><g id="Layer_2" data-name="Layer 2"><g id="Pandora"><path class="cls-1" d="M303.92,322.74c-9.27,3.21-18.77,6.56-26.21,12.94s-12.44,16.61-9.86,26.07c1,3.49,2.86,6.67,3.66,10.2,2.4,10.6-6.22,21.17-16.44,24.86s-21.48,2.27-32.25.8c-9.79-1.34-21.46-4.15-24.56-13.54-7.21-21.84,41.05-34.43,31.53-55.36-5-11-20.79-9.47-32.81-7.82-46.79,6.41-96.35-16.59-121.66-56.46C60.46,241,52.71,211.76,30.53,195.09c-8.44-6.34-18.77-10.67-24.91-19.25C-4.8,161.25,1,140.9,8.95,124.81c10-20.22,23-40.19,23.58-62.74C33,42,25,17.25,40.87,4.9,54.22-5.5,73.51,2.61,88.12,11.16c30.14,17.63,61,37.6,77.63,68.3,11.83,21.81,17.35,49.75,39,61.81a40.62,40.62,0,0,0,33.39,2.56c8.2-3,15.63-8.81,24.37-9.29,17.56-1,28,18.32,39.68,31.47,10.77,12.12,25.72,20.78,33.45,35,6.58,12.12,6.94,26.53,7.16,40.32l1,64.68c0,2.73.06,5.59-1.21,8-6.37,12.18-28.7-4-38.13,6"/><path class="cls-2" d="M172.89,226v8.58h-4.48V217.14a4.58,4.58,0,0,1,.25-1.45,4.85,4.85,0,0,1,.72-1.38,4.4,4.4,0,0,1,1.11-1.05,2.47,2.47,0,0,1,1.39-.42h5.95a2.44,2.44,0,0,1,.55.11l.55.17a4.09,4.09,0,0,1,2.63,4v4.38a4.63,4.63,0,0,1-.37,1.83,4.14,4.14,0,0,1-4,2.62l-.59,0-.91,0-1,0-1,0Zm0-8.8v4.23h4.19v-4.23Z"/><path class="cls-2" d="M184.69,219.34a7.07,7.07,0,0,1,.27-1.9,6.9,6.9,0,0,1,.77-1.78,6.62,6.62,0,0,1,1.24-1.48,5.23,5.23,0,0,1,1.64-1q.34-.13.75-.24a3,3,0,0,1,.78-.11h6a1.24,1.24,0,0,1,.69.2,1.94,1.94,0,0,1,.53.52,2.68,2.68,0,0,1,.34.69,2.23,2.23,0,0,1,.13.69v19.68h-4.41V226h-4.26v8.58h-4.41v-1.76q0-1.19,0-2.7t0-3.14q0-1.7,0-3.19t0-2.69v-1.79Zm8.7-2.09H190.7a1,1,0,0,0-.52.16,2.17,2.17,0,0,0-.48.4,2.22,2.22,0,0,0-.36.53,1.25,1.25,0,0,0-.14.54v2.59h4.19Z"/><path class="cls-2" d="M203,212.83a2.91,2.91,0,0,1,1.19.25,1.82,1.82,0,0,1,.88.85l4.54,9V212.83H214V233a.87.87,0,0,1-.12.36l-.19.36a1.4,1.4,0,0,1-.75.71,2.86,2.86,0,0,1-1,.17,3.18,3.18,0,0,1-1.21-.23,1.58,1.58,0,0,1-.86-.86l-4.48-8.83v9.92H201V214.44a1.08,1.08,0,0,1,.11-.35l.17-.38A1.54,1.54,0,0,1,202,213,2.84,2.84,0,0,1,203,212.83Z"/><path class="cls-2" d="M218.31,234.56a2.18,2.18,0,0,1-.81-.61,1.39,1.39,0,0,1-.41-.93V214.43a1.2,1.2,0,0,1,.14-.53,2.18,2.18,0,0,1,.36-.52,2,2,0,0,1,.5-.39,1.1,1.1,0,0,1,.53-.16h5.57a2.16,2.16,0,0,1,.84.2,4.92,4.92,0,0,1,.75.39,7.15,7.15,0,0,1,1.85,1.57,9.16,9.16,0,0,1,1.25,2,11.24,11.24,0,0,1,.77,2.28q.27,1.19.42,2.39c0,.1,0,.28.06.52s0,.38,0,.42v7.66a4.12,4.12,0,0,1-2.63,4.08l-.55.17a2.41,2.41,0,0,1-.55.11h-7.83l-.14,0Zm3.22-17.28v12.9h4.23v-1.35q0-1,0-2.11t0-2.08v-1.38q0-.69-.06-1.54a11.27,11.27,0,0,0-.25-1.67,6.43,6.43,0,0,0-.56-1.54,3.18,3.18,0,0,0-1-1.16.21.21,0,0,0-.16-.06Z"/><path class="cls-2" d="M233.37,231.14v-1.63q0-1.1,0-2.46t0-2.86q0-1.53,0-2.91t0-2.44v-1.69a4.55,4.55,0,0,1,.25-1.44,5,5,0,0,1,.72-1.39,4.29,4.29,0,0,1,1.11-1.06,2.48,2.48,0,0,1,1.39-.42h5.95a2.19,2.19,0,0,1,.55.13l.55.19a4,4,0,0,1,2.63,4V230.2a4.64,4.64,0,0,1-.33,1.75,4.14,4.14,0,0,1-.91,1.39,4.37,4.37,0,0,1-3.11,1.27h-4.45a4.36,4.36,0,0,1-2.79-.94A4.12,4.12,0,0,1,233.37,231.14Zm4.45-13.87v12.83H242V217.28Z"/><path class="cls-2" d="M249.58,217.16a4.57,4.57,0,0,1,.25-1.44,5.08,5.08,0,0,1,.72-1.4,4.29,4.29,0,0,1,1.11-1.07,2.47,2.47,0,0,1,1.39-.42h6a2.94,2.94,0,0,1,1.24.3,4.44,4.44,0,0,1,1.17.8,4.72,4.72,0,0,1,.88,1.11,2.46,2.46,0,0,1,.34,1.21v6.12a2.59,2.59,0,0,1-.41,1.38,3.31,3.31,0,0,1-1,1c.06.08.1.13.13.13a4.72,4.72,0,0,1,.88,1,2.43,2.43,0,0,1,.38,1.32v7.35h-4.41V228l-.25-.28a4.84,4.84,0,0,0-1.85-1.24,6.05,6.05,0,0,0-2.19-.42v8.55h-4.32v-2q0-1.35,0-3.08t0-3.61q0-1.88,0-3.61t0-3.08v-2.07Zm4.45.11v4.13h4.19v-4.13Z"/><path class="cls-2" d="M265.8,219.34a7.07,7.07,0,0,1,.27-1.9,6.9,6.9,0,0,1,.77-1.78,6.62,6.62,0,0,1,1.24-1.48,5.23,5.23,0,0,1,1.64-1q.34-.13.75-.24a3,3,0,0,1,.78-.11h6a1.24,1.24,0,0,1,.69.2,1.94,1.94,0,0,1,.53.52,2.68,2.68,0,0,1,.34.69,2.23,2.23,0,0,1,.13.69v19.68h-4.41V226h-4.26v8.58h-4.41v-1.76q0-1.19,0-2.7t0-3.14q0-1.7,0-3.19t0-2.69v-1.79Zm8.7-2.09h-2.69a1,1,0,0,0-.52.16,2.17,2.17,0,0,0-.48.4,2.22,2.22,0,0,0-.36.53,1.25,1.25,0,0,0-.14.54v2.59h4.19Z"/><path class="cls-2" d="M160.44,241.68h4.38V259h4.29V241.68h4.41V260a2.43,2.43,0,0,1-.34,1.22,4.84,4.84,0,0,1-.88,1.1,4.43,4.43,0,0,1-1.17.8,2.92,2.92,0,0,1-1.24.3h-6a2,2,0,0,1-.83-.21,6.9,6.9,0,0,1-.77-.39,3,3,0,0,1-.8-.67,4.13,4.13,0,0,1-.59-.93,5.21,5.21,0,0,1-.36-1.05,4.74,4.74,0,0,1-.12-1.05Z"/><path class="cls-2" d="M178.72,241.68a2.9,2.9,0,0,1,1.19.25,1.82,1.82,0,0,1,.88.84l4.54,9V241.68h4.32v20.18a.87.87,0,0,1-.12.36l-.19.36a1.4,1.4,0,0,1-.75.71,2.85,2.85,0,0,1-1,.17,3.17,3.17,0,0,1-1.21-.24,1.58,1.58,0,0,1-.86-.86L181,253.54v9.92h-4.38V243.28a1.09,1.09,0,0,1,.11-.35l.17-.38a1.54,1.54,0,0,1,.77-.71A2.84,2.84,0,0,1,178.72,241.68Z"/><path class="cls-2" d="M192.77,259.08h4.29v-13h-4.29v-4.41h13.08v4.41h-4.29v13h4.29v4.38H192.77Z"/><path class="cls-2" d="M209,246.58v-4.9h4.38V246l2.16,6.82h.06l2.07-6.61v-4.51h4.41v5.12l-4.29,15.07a2.17,2.17,0,0,1-.86,1.19,2.47,2.47,0,0,1-2.72,0,2.17,2.17,0,0,1-.86-1.19Z"/><path class="cls-2" d="M238.28,241.68v4.41h-8.64v4.23h8.64v4.51h-8.64v4.26h8.64v4.38h-9.45a2.92,2.92,0,0,1-1.24-.3,4.42,4.42,0,0,1-1.17-.8,4.81,4.81,0,0,1-.88-1.1,2.42,2.42,0,0,1-.34-1.22V245.32a2.94,2.94,0,0,1,.3-1.24,4.4,4.4,0,0,1,.8-1.18,4.82,4.82,0,0,1,1.1-.88,2.41,2.41,0,0,1,1.22-.35Z"/><path class="cls-2" d="M241.41,246a4.57,4.57,0,0,1,.25-1.44,5.07,5.07,0,0,1,.72-1.4,4.27,4.27,0,0,1,1.11-1.07,2.48,2.48,0,0,1,1.39-.42h6a2.94,2.94,0,0,1,1.24.3,4.45,4.45,0,0,1,1.17.8,4.72,4.72,0,0,1,.88,1.11,2.46,2.46,0,0,1,.34,1.21v6.12a2.59,2.59,0,0,1-.41,1.38,3.31,3.31,0,0,1-1,1c.06.08.1.13.13.13a4.72,4.72,0,0,1,.88,1,2.43,2.43,0,0,1,.38,1.32v7.35h-4.41v-6.61l-.25-.28a4.83,4.83,0,0,0-1.85-1.24,6.06,6.06,0,0,0-2.19-.42v8.55h-4.32v-2q0-1.35,0-3.08t0-3.61q0-1.88,0-3.61t0-3.08V246Zm4.45.11v4.13h4.19v-4.13Z"/><path class="cls-2" d="M257.63,259.08h8.64v-4.23l-.85,0-1.28,0-1.3,0-.86,0a4.57,4.57,0,0,1-3.11-1.24,4.11,4.11,0,0,1-1.24-3.12v-4.52a4.54,4.54,0,0,1,.66-2.4,3.66,3.66,0,0,1,2-1.55l.55-.17a2,2,0,0,1,.52-.11h9.39v4.41h-8.64v4.2l.88,0,1.31,0h2.22A4.13,4.13,0,0,1,270.4,253q.06.16.19.55a2.18,2.18,0,0,1,.13.55v6a2.44,2.44,0,0,1-.34,1.23,4.9,4.9,0,0,1-.88,1.1,4.42,4.42,0,0,1-1.17.8,2.92,2.92,0,0,1-1.24.3h-9.45Z"/><path class="cls-2" d="M286.92,241.68v4.41h-8.64v4.23h8.64v4.51h-8.64v4.26h8.64v4.38h-9.45a2.92,2.92,0,0,1-1.24-.3,4.42,4.42,0,0,1-1.17-.8,4.81,4.81,0,0,1-.88-1.1,2.42,2.42,0,0,1-.34-1.22V245.32a2.94,2.94,0,0,1,.3-1.24,4.4,4.4,0,0,1,.8-1.18A4.82,4.82,0,0,1,276,242a2.41,2.41,0,0,1,1.22-.35Z"/><polygon class="cls-3" points="101.68 64.87 88.18 101.82 115.18 101.82 101.68 64.87"/><polygon class="cls-3" points="80.68 87.87 67.18 124.82 94.18 124.82 80.68 87.87"/><polygon class="cls-4" points="243.18 321.87 224.18 384.82 262.18 384.82 243.18 321.87"/><polygon class="cls-5" points="233.35 337.82 216.18 384.82 250.52 384.82 233.35 337.82"/><polygon class="cls-6" points="246.18 357.45 236.18 384.82 256.18 384.82 246.18 357.45"/><polygon class="cls-3" points="108.18 111.45 98.18 138.82 118.18 138.82 108.18 111.45"/><polygon class="cls-3" points="133.18 118.4 127.18 134.82 139.18 134.82 133.18 118.4"/><polygon class="cls-3" points="132.68 66.92 115.18 114.82 150.18 114.82 132.68 66.92"/><path class="cls-7" d="M82.52,148.65c6-5,15.07-3.54,22.12-.22s13.57,8.23,21.27,9.51c6.16,1,12.48-.4,18.7.13s13.07,4.07,14,10.25c.69,4.64-2.22,9.06-5.59,12.32s-7.39,5.94-10,9.85c-2.27,3.42-3.29,7.52-5.37,11.06-5.49,9.32-17.7,13-28.37,11.24s-20.06-8-28.57-14.64-16.63-14.06-26.3-18.89c-2.5-1.25-5.18-2.39-7-4.52-4.31-5.11-1.47-13.16,3.09-18a33.44,33.44,0,0,1,33.92-8.83"/><path class="cls-2" d="M203.79,151.21l11.33,11.33a1.5,1.5,0,0,0,2.12-2.12l-11.33-11.33a1.5,1.5,0,0,0-2.12,2.12Z"/><path class="cls-2" d="M215.12,149.76l-12,12a1.5,1.5,0,0,0,2.12,2.12l12-12a1.5,1.5,0,0,0-2.12-2.12Z"/></g></g></svg>