<svg xmlns="http://www.w3.org/2000/svg" viewBox="0 0 244.45 253.17"><defs><style>.cls-1{fill:#ef300a;}.cls-2{fill:#fff;}.cls-3{fill:#fce6e6;}</style></defs><title>starwars_map</title><g id="Layer_2" data-name="Layer 2"><g id="Star"><path class="cls-1" d="M238.56,198.81c-6,8.88-12.69,17.77-21.21,24a44.88,44.88,0,0,1-9.78,5.47c-1.07.43-2.16.81-3.27,1.15-11.35,3.53-24,3-34.75,8.1-5.69,2.71-10.64,6.94-16.61,9s-13.82.91-16.67-4.71h0c-1.26-2.5-1.31-5.44-2.25-8.08-2.52-7.11-12.31-9.9-18.61-6.23a10.14,10.14,0,0,0-2.49,2c-2.65,2.93-3.76,6.88-5.68,10.33-4.81,8.59-14.89,13.53-24.73,13.38s-19.26-4.92-26.27-11.83c-2.73-2.69-5.19-5.74-8.45-7.74-5.71-3.51-13.09-3.37-18.81-6.87-10-6.09-10.86-20-10.3-31.66,0-1,.11-2.08.17-3.12,0,0,0-.08,0-.12,0-.34,0-.68.08-1,.45-6.06,1.47-12.11,4.77-17.11,2.16-3.26,5.17-5.89,7.34-9.14,4.68-7,4.81-16.05,4.79-24.5,0-4.39-.17-9.2-3.07-12.5s-7.38-4-11.36-5.55c-5.31-2-9.9-5.55-14.41-9C4,110.71.83,108.12.1,104.45S3,93.72,6.48,95.14l0,0c16.95,1.08,33.29-8,44.85-20.44a96.43,96.43,0,0,0,8.17-10.16c7.22-10.28,12.74-21.81,18-33.26,3.66-7.93,8.19-16.71,16.55-19.2,5.54-1.65,11.46-.06,17,1.52l21,6c13.86,3.95,27.86,7.95,40.43,15s23.77,17.5,28.87,31c3.46,9.15,4,19.17,6.91,28.5.08.25.16.5.24.74a76.05,76.05,0,0,0,7.65,15.71c7.84,12.77,17.89,24.55,21.12,39.08,1.81,8.13,1.36,16.75,4.23,24.58,1,2.76,2.44,5.41,2.85,8.32C245.17,188.31,241.85,193.9,238.56,198.81Z"/><path class="cls-2" d="M64.88,137.27H72.4v-3.68H68.67A4,4,0,0,1,66,132.46a3.58,3.58,0,0,1-1.08-2.72V125.8a4,4,0,0,1,.57-2.09,3.19,3.19,0,0,1,1.72-1.35l.48-.15a1.79,1.79,0,0,1,.45-.1h8.18V126H68.75v3.65h3.85a3.6,3.6,0,0,1,3.41,2.3q.05.14.16.48a1.9,1.9,0,0,1,.11.48v5.21a2.12,2.12,0,0,1-.3,1.07,4.23,4.23,0,0,1-.76,1,3.85,3.85,0,0,1-1,.7,2.55,2.55,0,0,1-1.08.26H64.88Z"/><path class="cls-2" d="M82.77,126H79v-3.85H90.4V126H86.64v15.14H82.77Z"/><path class="cls-2" d="M93.13,127.78a6.16,6.16,0,0,1,.23-1.66,6,6,0,0,1,.67-1.55,5.78,5.78,0,0,1,1.08-1.29,4.55,4.55,0,0,1,1.43-.88q.3-.11.65-.21a2.61,2.61,0,0,1,.68-.1h5.24a1.08,1.08,0,0,1,.6.18,1.69,1.69,0,0,1,.46.45,2.33,2.33,0,0,1,.3.6,1.94,1.94,0,0,1,.11.6v17.15h-3.85v-7.47H97v7.47H93.19v-1.53q0-1,0-2.35t0-2.74q0-1.48,0-2.78t0-2.34v-1.56Zm7.58-1.82H98.37a.87.87,0,0,0-.45.14,1.87,1.87,0,0,0-.42.35,1.94,1.94,0,0,0-.31.46,1.09,1.09,0,0,0-.12.47v2.26h3.65Z"/><path class="cls-2" d="M107.31,125.88a4,4,0,0,1,.22-1.26,4.42,4.42,0,0,1,.63-1.22,3.76,3.76,0,0,1,1-.93,2.16,2.16,0,0,1,1.21-.37h5.21a2.55,2.55,0,0,1,1.08.26,3.85,3.85,0,0,1,1,.7,4.1,4.1,0,0,1,.76,1,2.14,2.14,0,0,1,.3,1.05v5.33a2.26,2.26,0,0,1-.35,1.2,2.87,2.87,0,0,1-.85.9c.05.07.09.11.11.11a4.08,4.08,0,0,1,.76.9,2.11,2.11,0,0,1,.33,1.15v6.4h-3.85v-5.75l-.22-.25A4.23,4.23,0,0,0,113,134a5.27,5.27,0,0,0-1.91-.37v7.45h-3.76v-1.75q0-1.18,0-2.68t0-3.15q0-1.64,0-3.15t0-2.68v-1.81Zm3.87.1v3.6h3.65V126Z"/><path class="cls-2" d="M121.44,122.11h3.82v8.81A3.35,3.35,0,0,1,126,130a1.74,1.74,0,0,1,1.12-.37,1.78,1.78,0,0,1,1.08.33,2.81,2.81,0,0,1,.75.82v-8.67h3.85V139.7a.76.76,0,0,1-.11.31l-.16.31a1.22,1.22,0,0,1-.65.62,2.5,2.5,0,0,1-.87.15,2.77,2.77,0,0,1-1-.2,1.48,1.48,0,0,1-.78-.75l-2-4h-.05l-2,4a1.48,1.48,0,0,1-.78.75,2.77,2.77,0,0,1-1,.2,1.87,1.87,0,0,1-1.32-.49,1.74,1.74,0,0,1-.53-1.34Z"/><path class="cls-2" d="M135.56,127.78a6.16,6.16,0,0,1,.23-1.66,6,6,0,0,1,.67-1.55,5.78,5.78,0,0,1,1.08-1.29,4.55,4.55,0,0,1,1.43-.88q.3-.11.65-.21a2.61,2.61,0,0,1,.68-.1h5.24a1.08,1.08,0,0,1,.6.18,1.69,1.69,0,0,1,.46.45,2.33,2.33,0,0,1,.3.6,1.94,1.94,0,0,1,.11.6v17.15h-3.85v-7.47h-3.71v7.47h-3.85v-1.53q0-1,0-2.35t0-2.74q0-1.48,0-2.78t0-2.34v-1.56Zm7.58-1.82H140.8a.87.87,0,0,0-.45.14,1.87,1.87,0,0,0-.42.35,1.94,1.94,0,0,0-.31.46,1.09,1.09,0,0,0-.12.47v2.26h3.65Z"/><path class="cls-2" d="M149.75,125.88a4,4,0,0,1,.22-1.26,4.42,4.42,0,0,1,.63-1.22,3.76,3.76,0,0,1,1-.93,2.16,2.16,0,0,1,1.21-.37H158a2.55,2.55,0,0,1,1.08.26,3.85,3.85,0,0,1,1,.7,4.1,4.1,0,0,1,.76,1,2.14,2.14,0,0,1,.3,1.05v5.33a2.26,2.26,0,0,1-.35,1.2,2.87,2.87,0,0,1-.85.9c.05.07.09.11.11.11a4.08,4.08,0,0,1,.76.9,2.11,2.11,0,0,1,.33,1.15v6.4H157.3v-5.75l-.22-.25a4.23,4.23,0,0,0-1.61-1.08,5.27,5.27,0,0,0-1.91-.37v7.45H149.8v-1.75q0-1.18,0-2.68t0-3.15q0-1.64,0-3.15t0-2.68v-1.81Zm3.87.1v3.6h3.65V126Z"/><path class="cls-2" d="M163.87,137.27h7.53v-3.68h-3.74a4,4,0,0,1-2.71-1.08,3.58,3.58,0,0,1-1.08-2.72V125.8a4,4,0,0,1,.57-2.09,3.19,3.19,0,0,1,1.72-1.35l.48-.15a1.79,1.79,0,0,1,.45-.1h8.18V126h-7.53v3.65h3.85a3.6,3.6,0,0,1,3.41,2.3q.05.14.16.48a1.9,1.9,0,0,1,.11.48v5.21a2.12,2.12,0,0,1-.3,1.07,4.23,4.23,0,0,1-.76,1,3.85,3.85,0,0,1-1,.7,2.55,2.55,0,0,1-1.08.26h-8.24Z"/><path class="cls-2" d="M90.4,147.24v3.85H82.88v11.26h3.65V158.7H84.7v-3.93h3.79a1.78,1.78,0,0,1,1.39.58,2,2,0,0,1,.52,1.4v5.73a3.79,3.79,0,0,1-.23,1.26,4.74,4.74,0,0,1-.64,1.22,3.55,3.55,0,0,1-1,.92,2.21,2.21,0,0,1-1.21.36H82.17a2.55,2.55,0,0,1-1.08-.26,3.85,3.85,0,0,1-1-.7,4.21,4.21,0,0,1-.76-1,2.11,2.11,0,0,1-.3-1.07V150.42a2.57,2.57,0,0,1,.26-1.08,3.85,3.85,0,0,1,.7-1,4.19,4.19,0,0,1,1-.77,2.09,2.09,0,0,1,1.06-.3Z"/><path class="cls-2" d="M93.13,152.91a6.16,6.16,0,0,1,.23-1.66,6,6,0,0,1,.67-1.55,5.78,5.78,0,0,1,1.08-1.29,4.55,4.55,0,0,1,1.43-.88q.3-.11.65-.21a2.61,2.61,0,0,1,.68-.1h5.24a1.08,1.08,0,0,1,.6.18,1.69,1.69,0,0,1,.46.45,2.33,2.33,0,0,1,.3.6,1.94,1.94,0,0,1,.11.6v17.15h-3.85v-7.47H97v7.47H93.19v-1.53q0-1,0-2.35t0-2.74q0-1.48,0-2.78t0-2.34v-1.56Zm7.58-1.82H98.37a.87.87,0,0,0-.45.14,1.87,1.87,0,0,0-.42.35,1.94,1.94,0,0,0-.31.46,1.09,1.09,0,0,0-.12.47v2.26h3.65Z"/><path class="cls-2" d="M107.31,147.24h3.82v15.16h7.58v3.82h-8.43a2.09,2.09,0,0,1-1.06-.3,4.17,4.17,0,0,1-1-.77,3.84,3.84,0,0,1-.7-1,2.56,2.56,0,0,1-.26-1.08Z"/><path class="cls-2" d="M121.44,152.91a6.16,6.16,0,0,1,.23-1.66,6,6,0,0,1,.67-1.55,5.78,5.78,0,0,1,1.08-1.29,4.55,4.55,0,0,1,1.43-.88q.3-.11.65-.21a2.61,2.61,0,0,1,.68-.1h5.24a1.08,1.08,0,0,1,.6.18,1.69,1.69,0,0,1,.46.45,2.33,2.33,0,0,1,.3.6,1.94,1.94,0,0,1,.11.6v17.15H129v-7.47h-3.71v7.47h-3.85v-1.53q0-1,0-2.35t0-2.74q0-1.48,0-2.78t0-2.34v-1.56Zm7.58-1.82h-2.35a.87.87,0,0,0-.45.14,1.87,1.87,0,0,0-.42.35,1.94,1.94,0,0,0-.31.46,1.09,1.09,0,0,0-.12.47v2.26H129Z"/><path class="cls-2" d="M135.62,162l3.3-5.22-3.3-5.2v-4.29h3.82v3.25l.11.11,1.8,2.7,1.75-2.65.08-.11v-3.3H147v4.38l-3.25,5.11,3.25,5.11v4.38h-3.85v-3.3l-.08-.11-1.75-2.65L139.44,163v3.22h-3.82Z"/><path class="cls-2" d="M153.51,158.68a3.85,3.85,0,0,1-2.71-1.11,3.65,3.65,0,0,1-1-2.69v-7.63h3.82v7.47h3.74v-7.47h3.85v8.21a2,2,0,0,1-.11.45q-.11.34-.16.48a3.64,3.64,0,0,1-1.38,1.71,4,4,0,0,1-2.11.59v7.55h-3.87Z"/><path class="cls-3" d="M210.43,185.65l14.66,8c1.69.93,3.21-1.66,1.51-2.59l-14.66-8c-1.69-.93-3.21,1.66-1.51,2.59Z"/><path class="cls-3" d="M223.73,180.74l-13.33,13.33a1.5,1.5,0,0,0,2.12,2.12l13.33-13.33a1.5,1.5,0,0,0-2.12-2.12Z"/><path class="cls-3" d="M77,6.81l14,7.31c1.71.89,3.23-1.7,1.51-2.59l-14-7.31c-1.71-.89-3.23,1.7-1.51,2.59Z"/><path class="cls-3" d="M88.5.71,79.42,15.54C78.41,17.19,81,18.69,82,17L91.09,2.23C92.1.57,89.51-.93,88.5.71Z"/><path class="cls-3" d="M99.89,82.81A4,4,0,0,1,104,79.56c.72.07,1.4.35,2.12.45a11,11,0,0,0,3.77-.45c4.39-.92,8.93-.45,13.39,0,3,.32,6.18.7,8.58,2.53s3.57,5.65,1.58,7.92c-2.35,2.7-6.78,1.4-10.19,2.5-1.94.62-3.55,2-5.49,2.67-4.13,1.33-8.53-1.23-12.86-1-2,.11-4,.82-6,.75s-4.23-1.32-4.36-3.32c-.2-3,4.29-5.21,3.31-8.05"/><path class="cls-3" d="M134.66,97.23a1.48,1.48,0,0,1,.93-2c.35-.09.75-.06,1-.29s.32-.53.52-.76c.58-.67,1.67-.19,2.55-.32s1.55-.86,2.41-1c1.31-.2,2.46,1,3.79,1.06,1.15,0,2.31-.9,3.37-.43a2.32,2.32,0,0,1,1,2.51,13.08,13.08,0,0,0-.44,2.86,6,6,0,0,1,.1,1.18c-.12,1.08-1.36,1.69-2.44,1.67s-2.12-.44-3.2-.53c-3.09-.24-6.13,2.34-9.07,1.33a2.32,2.32,0,0,1-1.63-1.63c-.19-1.06.71-2,.66-3.12"/><path class="cls-3" d="M119.73,106.66a.45.45,0,0,1,.28-.59c.1,0,.23,0,.31-.09s.1-.16.16-.23.51-.06.77-.1.47-.26.73-.3.74.32,1.15.32.7-.27,1-.13a.7.7,0,0,1,.3.76,4,4,0,0,0-.13.86,1.83,1.83,0,0,1,0,.36c0,.33-.41.51-.74.51s-.64-.13-1-.16c-.93-.07-1.85.71-2.74.4a.7.7,0,0,1-.49-.49c-.06-.32.21-.62.2-.94"/></g></g></svg>