<svg xmlns="http://www.w3.org/2000/svg" viewBox="0 0 592.09 236.61"><defs><style>.cls-1{fill:#fff;}</style></defs><title>starwars2</title><g id="Layer_2" data-name="Layer 2"><g id="Layer_1-2" data-name="Layer 1"><path class="cls-1" d="M2.93,103.56H43.3V83.81q-1.17,0-4-.07t-6-.07q-3.22,0-6.07-.07t-4-.07A21.35,21.35,0,0,1,8.7,77.73q-5.78-5.5-5.78-14.59V42A21.2,21.2,0,0,1,6,30.81a17.11,17.11,0,0,1,9.21-7.26q.88-.29,2.56-.8a9.57,9.57,0,0,1,2.41-.51H64.07V42.86H23.7v19.6q1.17,0,4.1.07t6.14.07H44.32q13,.44,18.28,12.35.29.73.88,2.57a10.23,10.23,0,0,1,.58,2.57V108a11.35,11.35,0,0,1-1.61,5.73,22.71,22.71,0,0,1-4.1,5.14,20.65,20.65,0,0,1-5.49,3.75A13.65,13.65,0,0,1,47.1,124H2.93Z" transform="translate(-2.93 -22.23)"/><path class="cls-1" d="M98.88,42.86H78.69V22.23h61.14V42.86H119.65V124H98.88Z" transform="translate(-2.93 -22.23)"/><path class="cls-1" d="M154.46,52.64a33.07,33.07,0,0,1,1.24-8.89,32.28,32.28,0,0,1,3.58-8.3,31,31,0,0,1,5.78-6.9,24.43,24.43,0,0,1,7.68-4.7q1.61-.59,3.51-1.1a14,14,0,0,1,3.66-.51H208a5.78,5.78,0,0,1,3.22,1,9.09,9.09,0,0,1,2.49,2.42,12.61,12.61,0,0,1,1.61,3.23,10.4,10.4,0,0,1,.58,3.23v92H195.27V84H175.37V124H154.75v-8.23q0-5.58-.07-12.63t-.07-14.69q0-7.93-.07-14.91T154.46,61V52.64Zm40.66-9.78H182.54a4.67,4.67,0,0,0-2.41.75,10.1,10.1,0,0,0-2.27,1.87,10.4,10.4,0,0,0-1.68,2.47,5.8,5.8,0,0,0-.66,2.54V62.6h19.6Z" transform="translate(-2.93 -22.23)"/><path class="cls-1" d="M230.52,42.47a21.31,21.31,0,0,1,1.17-6.75A23.71,23.71,0,0,1,235,29.2a20.13,20.13,0,0,1,5.19-5,11.57,11.57,0,0,1,6.51-2h27.94a13.72,13.72,0,0,1,5.78,1.39A20.74,20.74,0,0,1,286,27.37a22,22,0,0,1,4.1,5.21,11.48,11.48,0,0,1,1.61,5.65v28.6a12.11,12.11,0,0,1-1.9,6.45,15.47,15.47,0,0,1-4.53,4.84c.29.39.49.59.58.59a22.05,22.05,0,0,1,4.1,4.84,11.33,11.33,0,0,1,1.75,6.16V124H271V93.17q-.88-1-1.17-1.32a22.65,22.65,0,0,0-8.63-5.78,28.28,28.28,0,0,0-10.24-2V124H230.81v-9.39q0-6.31-.07-14.38t-.07-16.87q0-8.8-.07-16.87t-.07-14.37V42.47Zm20.77.53V62.31h19.6V43Z" transform="translate(-2.93 -22.23)"/><path class="cls-1" d="M306.28,22.23h20.48V69.48a18,18,0,0,1,4.24-4.9,9.35,9.35,0,0,1,6-2,9.56,9.56,0,0,1,5.78,1.75,15.11,15.11,0,0,1,4,4.39V22.23h20.62v94.32a4.07,4.07,0,0,1-.58,1.69q-.59,1.1-.88,1.69a6.55,6.55,0,0,1-3.51,3.3,13.43,13.43,0,0,1-4.68.81,14.84,14.84,0,0,1-5.63-1.1,7.94,7.94,0,0,1-4.17-4L337.14,97.27h-.29L326,118.91a8,8,0,0,1-4.17,4,14.86,14.86,0,0,1-5.63,1.1,10,10,0,0,1-7.09-2.64,9.32,9.32,0,0,1-2.85-7.19Z" transform="translate(-2.93 -22.23)"/><path class="cls-1" d="M382,52.64a33.07,33.07,0,0,1,1.24-8.89,32.28,32.28,0,0,1,3.58-8.3,31,31,0,0,1,5.78-6.9,24.43,24.43,0,0,1,7.68-4.7q1.61-.59,3.51-1.1a14,14,0,0,1,3.66-.51h28.08a5.78,5.78,0,0,1,3.22,1,9.09,9.09,0,0,1,2.49,2.42,12.61,12.61,0,0,1,1.61,3.23,10.4,10.4,0,0,1,.58,3.23v92H422.86V84H403V124H382.34v-8.23q0-5.58-.07-12.63t-.07-14.69q0-7.93-.07-14.91T382,61V52.64Zm40.66-9.78H410.13a4.67,4.67,0,0,0-2.41.75,10.1,10.1,0,0,0-2.27,1.87,10.4,10.4,0,0,0-1.68,2.47,5.8,5.8,0,0,0-.66,2.54V62.6h19.6Z" transform="translate(-2.93 -22.23)"/><path class="cls-1" d="M458.11,42.47a21.31,21.31,0,0,1,1.17-6.75,23.71,23.71,0,0,1,3.36-6.53,20.13,20.13,0,0,1,5.19-5,11.57,11.57,0,0,1,6.51-2h27.94a13.72,13.72,0,0,1,5.78,1.39,20.74,20.74,0,0,1,5.49,3.74,22,22,0,0,1,4.1,5.21,11.48,11.48,0,0,1,1.61,5.65v28.6a12.11,12.11,0,0,1-1.9,6.45,15.47,15.47,0,0,1-4.53,4.84c.29.39.49.59.58.59a22.05,22.05,0,0,1,4.1,4.84,11.33,11.33,0,0,1,1.75,6.16V124H498.62V93.17q-.88-1-1.17-1.32a22.65,22.65,0,0,0-8.63-5.78,28.28,28.28,0,0,0-10.24-2V124H458.4v-9.39q0-6.31-.07-14.38t-.07-16.87q0-8.8-.07-16.87t-.07-14.37V42.47Zm20.77.53V62.31h19.6V43Z" transform="translate(-2.93 -22.23)"/><path class="cls-1" d="M533.87,103.56h40.37V83.81q-1.17,0-4-.07t-6-.07q-3.22,0-6.07-.07t-4-.07a21.35,21.35,0,0,1-14.55-5.79q-5.78-5.5-5.78-14.59V42a21.2,21.2,0,0,1,3.07-11.22,17.11,17.11,0,0,1,9.21-7.26q.88-.29,2.56-.8a9.57,9.57,0,0,1,2.41-.51H595V42.86H554.64v19.6q1.17,0,4.1.07t6.14.07h10.38q13,.44,18.28,12.35.29.73.88,2.57a10.23,10.23,0,0,1,.58,2.57V108a11.35,11.35,0,0,1-1.61,5.73,22.71,22.71,0,0,1-4.1,5.14,20.65,20.65,0,0,1-5.49,3.75A13.65,13.65,0,0,1,578,124H533.87Z" transform="translate(-2.93 -22.23)"/><path class="cls-1" d="M139.83,157v20.62H99.46v60.41h19.6V218.47h-9.8V197.4h20.33a9.54,9.54,0,0,1,7.46,3.09,10.8,10.8,0,0,1,2.78,7.49V238.7a20.35,20.35,0,0,1-1.24,6.76,25.44,25.44,0,0,1-3.44,6.54,19.1,19.1,0,0,1-5.19,4.92,11.88,11.88,0,0,1-6.51,1.91H95.66a13.65,13.65,0,0,1-5.78-1.39,20.6,20.6,0,0,1-5.49-3.74,22.48,22.48,0,0,1-4.1-5.13,11.29,11.29,0,0,1-1.61-5.72V174a13.78,13.78,0,0,1,1.39-5.79,20.64,20.64,0,0,1,3.73-5.5,22.5,22.5,0,0,1,5.12-4.11,11.23,11.23,0,0,1,5.7-1.61Z" transform="translate(-2.93 -22.23)"/><path class="cls-1" d="M154.46,187.44a33.07,33.07,0,0,1,1.24-8.89,32.28,32.28,0,0,1,3.58-8.3,30.94,30.94,0,0,1,5.78-6.9,24.4,24.4,0,0,1,7.68-4.7q1.61-.59,3.51-1.1a13.94,13.94,0,0,1,3.66-.51H208a5.78,5.78,0,0,1,3.22,1,9.1,9.1,0,0,1,2.49,2.42,12.63,12.63,0,0,1,1.61,3.23,10.41,10.41,0,0,1,.58,3.23v92H195.27V218.76H175.37v40.08H154.75v-8.23q0-5.58-.07-12.63t-.07-14.69q0-7.93-.07-14.91t-.07-12.56v-8.37Zm40.66-9.78H182.54a4.68,4.68,0,0,0-2.41.75,10.1,10.1,0,0,0-2.27,1.87,10.4,10.4,0,0,0-1.68,2.47,5.8,5.8,0,0,0-.66,2.54V197.4h19.6Z" transform="translate(-2.93 -22.23)"/><path class="cls-1" d="M230.52,157H251v81.33h40.66v20.48h-45.2a11.22,11.22,0,0,1-5.7-1.61,22.39,22.39,0,0,1-5.12-4.11,20.58,20.58,0,0,1-3.73-5.5,13.76,13.76,0,0,1-1.39-5.79Z" transform="translate(-2.93 -22.23)"/><path class="cls-1" d="M306.28,187.44a33.07,33.07,0,0,1,1.24-8.89,32.28,32.28,0,0,1,3.58-8.3,30.94,30.94,0,0,1,5.78-6.9,24.4,24.4,0,0,1,7.68-4.7q1.61-.59,3.51-1.1a13.94,13.94,0,0,1,3.66-.51h28.08a5.78,5.78,0,0,1,3.22,1,9.1,9.1,0,0,1,2.49,2.42,12.63,12.63,0,0,1,1.61,3.23,10.41,10.41,0,0,1,.58,3.23v92H347.09V218.76H327.2v40.08H306.57v-8.23q0-5.58-.07-12.63t-.07-14.69q0-7.93-.07-14.91t-.07-12.56v-8.37Zm40.66-9.78H334.36a4.68,4.68,0,0,0-2.41.75,10.1,10.1,0,0,0-2.27,1.87,10.4,10.4,0,0,0-1.68,2.47,5.8,5.8,0,0,0-.66,2.54V197.4h19.6Z" transform="translate(-2.93 -22.23)"/><path class="cls-1" d="M382.34,236l17.7-28-17.7-27.87V157h20.48v17.41l.58.58,9.65,14.48,9.36-14.19.44-.58V157h20.62v23.47l-17.41,27.43,17.41,27.43v23.47H422.86v-17.7l-.44-.58-9.36-14.19-10.24,15.21v17.26H382.34Z" transform="translate(-2.93 -22.23)"/><path class="cls-1" d="M478.29,218.35q-8.92-.29-14.55-5.94A19.59,19.59,0,0,1,458.11,198V157h20.48v40.08h20V157h20.62v44a10.52,10.52,0,0,1-.58,2.42q-.59,1.83-.88,2.57a19.51,19.51,0,0,1-7.39,9.17,21.67,21.67,0,0,1-11.34,3.15v40.49H478.29Z" transform="translate(-2.93 -22.23)"/></g></g></svg>